<?xml version="1.0" encoding="UTF-8"?>
<svg width="224px" height="240px" viewBox="0 0 224 240" version="1.1" xmlns="http://www.w3.org/2000/svg" xmlns:xlink="http://www.w3.org/1999/xlink">
    <!-- Generator: Sketch 61 (89581) - https://sketch.com -->
    <title>开发</title>
    <desc>Created with Sketch.</desc>
    <defs>
        <rect id="path-1" x="0" y="0" width="240" height="240"></rect>
    </defs>
    <g id="文档" stroke="none" stroke-width="1" fill="none" fill-rule="evenodd">
        <g id="开发" transform="translate(-16.000000, 0.000000)">
            <g>
                <mask id="mask-2" fill="white">
                    <use xlink:href="#path-1"></use>
                </mask>
                <g id="蒙版"></g>
                <g id="编组" opacity="0.1" mask="url(#mask-2)">
                    <g transform="translate(16.000000, -15.000000)" id="Shape">
                        <path d="M316.521739,123.625532 L350,65.3361702 L334.782609,50.0170213 L294.456522,90.9191489 L262.043478,58.3659574 L302.521739,17.6170213 L285.021739,-4.26325641e-14 L228.26087,35.387234 C214.409379,44.0524039 206.201426,59.4977808 206.728261,75.906383 L207.565217,102.102128 L10.8043478,299.948936 C5.06606272,305.698776 1.84007889,313.513344 1.84007889,321.66383 C1.84007889,329.814315 5.06606272,337.628884 10.8043478,343.378723 L10.8043478,343.378723 C16.5189835,349.178941 24.297988,352.441481 32.4130435,352.441481 C40.5280989,352.441481 48.3071035,349.178941 54.0217391,343.378723 L251.086957,145.531915 L274.826087,146.604255 C291.902101,147.407561 307.99305,138.539742 316.521739,123.625532 L316.521739,123.625532 Z" fill="#86DBA2" transform="translate(175.920039, 176.220740) rotate(-360.000000) translate(-175.920039, -176.220740) "></path>
                        <path d="M214.122331,268.959167 L263.695893,219.461693 L338.869806,294.372331 C345.328298,300.84128 349.970016,308.624096 349.970016,317.795745 C349.970016,326.967393 346.338927,335.760839 339.880435,342.229787 C326.460522,355.687827 302.792244,357.327846 289.372331,343.869806 L214.122331,268.959167 Z" fill="#3D3E49" transform="translate(282.046174, 286.321200) rotate(-360.000000) translate(-282.046174, -286.321200) "></path>
                        <polygon fill="#3D3E49" transform="translate(81.425433, 84.726532) rotate(-360.000000) translate(-81.425433, -84.726532) " points="141.861136 168.07434 63.5676582 89.3339144 18.8695652 80.0425532 2.30926389e-14 17.6170213 16.2065217 1.3787234 81.0326087 17.6170213 84.557388 68.3441846 162.850866 147.008014"></polygon>
                        <polygon fill="#3D3E49" transform="translate(217.535361, 222.429163) rotate(-360.000000) translate(-217.535361, -222.429163) " points="185.320063 211.320871 206.533267 190.107667 249.750658 233.537455 228.537455 254.750658"></polygon>
                    </g>
                </g>
            </g>
        </g>
    </g>
</svg>