<?xml version="1.0" encoding="UTF-8"?>
<svg width="202px" height="230px" viewBox="0 0 202 230" version="1.1" xmlns="http://www.w3.org/2000/svg" xmlns:xlink="http://www.w3.org/1999/xlink">
    <!-- Generator: Sketch 61 (89581) - https://sketch.com -->
    <title>上手</title>
    <desc>Created with Sketch.</desc>
    <defs>
        <rect id="path-1" x="0" y="0" width="240" height="240"></rect>
    </defs>
    <g id="文档" stroke="none" stroke-width="1" fill="none" fill-rule="evenodd">
        <g id="上手" transform="translate(-38.000000, -10.000000)">
            <g>
                <mask id="mask-2" fill="white">
                    <use xlink:href="#path-1"></use>
                </mask>
                <g id="蒙版"></g>
                <g id="编组" opacity="0.1" mask="url(#mask-2)">
                    <g transform="translate(38.000000, 10.000000)">
                        <path d="M360,0 L360,250.000215 C360,272.091486 342.086007,290 320.000771,290 L39.9992289,290 C17.9082648,290 5.21882184e-13,272.091692 4.5528014e-13,250.000215 L-2.98427949e-13,0 L360,0 Z" id="Rectangle" fill="#86DBA2"></path>
                        <rect id="Rectangle" fill="#3D3E49" x="0" y="0" width="360" height="60"></rect>
                        <rect id="Rectangle" fill="#FFFFFF" x="20" y="20" width="30" height="20"></rect>
                        <rect id="Rectangle" fill="#FFFFFF" x="70" y="20" width="30" height="20"></rect>
                        <rect id="Rectangle" fill="#FFFFFF" x="120" y="20" width="30" height="20"></rect>
                        <path d="M260,130 L380,260.909091 L322.779,260.909 L345,331.417809 L320.658351,340 L299.245,272.052 L260,310 L260,130 Z" id="Combined-Shape" fill="#3D3E49"></path>
                    </g>
                </g>
            </g>
        </g>
    </g>
</svg>