<svg width="1517" height="137" viewBox="0 0 1517 137" fill="none" xmlns="http://www.w3.org/2000/svg">
<rect width="1517" height="137" fill="white"/>
<path d="M39 47C39 44.7909 40.7909 43 43 43H275C277.209 43 279 44.7909 279 47V93C279 95.2091 277.209 97 275 97H43C40.7909 97 39 95.2091 39 93V47Z" fill="#00AA72"/>
<path d="M129.112 63.248L127.672 64.144C128.68 65.552 129.48 66.832 130.056 67.984L131.448 67.024C130.904 65.952 130.136 64.688 129.112 63.248ZM129.96 70.304C129.32 72.544 128.568 74.752 127.704 76.896L129.288 77.6C130.088 75.52 130.824 73.28 131.48 70.912L129.96 70.304ZM134.44 70.24H137.24V71.904H134.44V70.24ZM134.44 73.424H137.24V75.264H134.44V73.424ZM134.44 76.816H142.312V75.264H138.856V73.424H141.672V71.904H138.856V70.24H141.64V68.704H138.856V66.992H141.976V65.424H139.064C138.856 64.608 138.584 63.712 138.248 62.72L136.632 63.168C136.952 63.888 137.224 64.64 137.48 65.424H134.68C134.968 64.688 135.224 63.936 135.432 63.168L133.848 62.848C133.304 65.024 132.376 67.04 131.064 68.864L131.608 70.592C132.024 70.064 132.424 69.52 132.808 68.96V77.68H134.44V76.816ZM137.24 66.992V68.704H134.44V66.992H137.24ZM155.88 70.448H146.536C148.2 70.032 149.704 69.504 151.064 68.848C152.456 69.52 154.056 70.064 155.88 70.448ZM152.664 67.936C153.912 67.136 154.984 66.192 155.896 65.104V63.84H149.704C149.88 63.584 150.056 63.328 150.248 63.04L148.6 62.672C147.368 64.384 145.928 65.696 144.296 66.624L145.368 67.92C146.088 67.472 146.776 66.944 147.448 66.352C148.04 66.928 148.712 67.472 149.48 67.952C147.784 68.64 145.832 69.136 143.624 69.424L144.344 70.896C144.824 70.8 145.288 70.72 145.768 70.624V77.664H147.352V77.104H154.68V77.664H156.264V70.528C156.712 70.608 157.192 70.688 157.672 70.768L158.392 69.296C156.216 69.008 154.296 68.56 152.664 67.936ZM148.44 65.376L148.52 65.296H153.768C152.968 66.016 152.072 66.656 151.048 67.216C150.056 66.704 149.176 66.08 148.44 65.376ZM147.352 75.696V74.4H150.216V75.696H147.352ZM151.784 75.696V74.4H154.68V75.696H151.784ZM147.352 73.088V71.824H150.216V73.088H147.352ZM151.784 71.824H154.68V73.088H151.784V71.824ZM166.168 65.536V75.104H159.848V76.72H174.168V75.104H167.864V65.536H173.192V63.936H160.856V65.536H166.168ZM182.968 66.576H183.432V77.712H185.128V74.144H189.544V72.528H185.128V70.336H189.544V68.704H185.128V66.576H190.152V64.928H183.704C183.928 64.336 184.152 63.728 184.376 63.088L182.68 62.704C181.72 65.456 180.6 67.568 179.32 69.072L180.52 70.512C181.416 69.424 182.232 68.112 182.968 66.576ZM177.368 69.344V77.712H179.064V66.944C179.704 65.856 180.232 64.704 180.632 63.504L179.048 62.768C178.264 65.168 177.064 67.264 175.448 69.04L176.008 70.832C176.488 70.352 176.936 69.856 177.368 69.344Z" fill="white"/>
<path d="M43 45H275V41H43V45ZM277 47V93H281V47H277ZM275 95H43V99H275V95ZM41 93V47H37V93H41ZM43 95C41.8954 95 41 94.1046 41 93H37C37 96.3137 39.6863 99 43 99V95ZM277 93C277 94.1046 276.105 95 275 95V99C278.314 99 281 96.3137 281 93H277ZM275 45C276.105 45 277 45.8954 277 47H281C281 43.6863 278.314 41 275 41V45ZM43 41C39.6863 41 37 43.6863 37 47H41C41 45.8954 41.8954 45 43 45V41Z" fill="#00AA72"/>
<path d="M283 69H335" stroke="#00AA72" stroke-width="2" stroke-linecap="round" stroke-linejoin="round"/>
<circle cx="283" cy="69" r="2" transform="rotate(-180 283 69)" fill="#00AA72" stroke="#00AA72" stroke-width="2"/>
<path d="M330 75L336 69L330 63" stroke="#00AA72" stroke-width="2" stroke-linecap="round" stroke-linejoin="round"/>
<path d="M339 47C339 44.7909 340.791 43 343 43H575C577.209 43 579 44.7909 579 47V93C579 95.2091 577.209 97 575 97H343C340.791 97 339 95.2091 339 93V47Z" fill="#00AA72"/>
<path d="M409.544 69.392V71.808C409.544 72.128 409.368 72.304 409.016 72.304C408.6 72.304 408.088 72.272 407.496 72.208L407.912 73.76C408.456 73.792 409.048 73.824 409.688 73.824C410.664 73.76 411.16 73.28 411.176 72.384V67.92H405.624C406.648 66.832 407.544 65.68 408.344 64.496C409.24 65.424 410.36 66.816 411.72 68.64L412.808 67.504C411.56 65.936 410.232 64.4 408.808 62.928H407.592C406.328 64.816 404.952 66.432 403.448 67.808L404.424 69.152L405.08 68.496V75.888C405.08 76.912 405.608 77.424 406.664 77.424H410.584C411.352 77.424 411.88 77.296 412.152 77.04C412.424 76.752 412.632 75.904 412.76 74.496L411.192 73.952C411.128 74.752 411.032 75.264 410.92 75.52C410.824 75.76 410.536 75.888 410.072 75.888H407.416C406.968 75.888 406.76 75.68 406.76 75.264V69.392H409.544ZM413.448 64.272V74.112H415.08V64.272H413.448ZM416.232 77.52C417.336 77.52 417.896 76.928 417.896 75.76V62.912H416.232V75.344C416.232 75.792 416.04 76.032 415.656 76.032C414.968 76.032 414.232 76 413.464 75.936L413.848 77.52H416.232ZM433.192 69.664V67.408H434.104V66.064H433.192V63.856H429.816V62.832H428.184V63.856H425.576V65.232H428.184V66.064H424.792V67.408H428.184V68.288H425.576V69.664H428.184V70.528H425.24V71.888H428.184V72.752H424.744V74.144H428.184V75.312H429.816V74.144H433.832V72.752H429.816V71.888H433.368V70.528H429.816V69.664H433.192ZM429.816 65.232H431.592V66.064H429.816V65.232ZM429.816 67.408H431.592V68.288H429.816V67.408ZM428.616 75.824C426.552 75.792 425.016 75.504 423.992 74.928C423.8 74.816 423.608 74.672 423.432 74.496C424.136 73.056 424.536 71.312 424.6 69.28V68.288H422.36C423.032 67.312 423.704 66.176 424.392 64.88V63.52H420.232V65.088H422.536C421.832 66.304 421.064 67.44 420.232 68.528V69.792H423.08C422.984 70.992 422.744 72.064 422.36 72.992C422.04 72.368 421.752 71.6 421.496 70.704L420.088 71.232C420.472 72.544 420.952 73.632 421.528 74.496C421.08 75.136 420.504 75.68 419.832 76.144L420.936 77.568C421.608 77.056 422.184 76.464 422.664 75.792L422.984 76.048C424.248 76.88 426.36 77.312 429.336 77.312H433.992L434.28 75.728C432.328 75.792 430.44 75.824 428.616 75.824ZM448.648 66.848H445.448C445.896 66.4 446.36 65.872 446.808 65.28V64.064H441.784C441.96 63.792 442.136 63.52 442.328 63.232L440.68 62.88C439.336 64.832 437.784 66.32 436.008 67.376L437.08 68.64C437.4 68.416 437.736 68.192 438.088 67.936V74.512H439.72V68.416H447.016V74.352H448.648V66.848ZM443.528 66.848H439.384C439.816 66.432 440.232 66 440.632 65.536H444.744C444.328 66.016 443.928 66.464 443.528 66.848ZM444.376 73.728L443.544 74.96C445.48 75.632 447.352 76.56 449.176 77.76L450.104 76.304C448.376 75.296 446.456 74.432 444.376 73.728ZM442.504 69.008V71.28C442.408 72.56 441.976 73.6 441.176 74.4C440.376 75.136 438.808 75.744 436.488 76.256L437.384 77.68C439.688 77.168 441.368 76.416 442.392 75.456C443.448 74.416 444.024 73.024 444.12 71.28V69.008H442.504ZM452.728 63.984V65.488H455.656V66.512H451.896V68.032H460.712C460.824 69.392 461 70.56 461.224 71.552C461.384 72.336 461.576 73.056 461.8 73.696C461.032 74.848 460.088 75.728 459 76.336L459.912 77.68C460.888 77.152 461.768 76.416 462.536 75.456C462.632 75.664 462.76 75.856 462.888 76.048C463.56 77.008 464.2 77.488 464.792 77.488C465.528 77.488 466.072 76.416 466.456 74.288L465.048 73.52C464.888 75.024 464.728 75.776 464.584 75.776C464.392 75.776 464.12 75.408 463.752 74.688C463.656 74.512 463.576 74.304 463.48 74.064C464.248 72.736 464.888 71.104 465.384 69.168L463.896 68.496C463.608 69.712 463.256 70.8 462.824 71.792L462.696 71.168C462.536 70.368 462.408 69.328 462.328 68.032H466.088V66.512H462.232C462.168 65.424 462.136 64.176 462.136 62.8H460.52C460.52 64.128 460.552 65.36 460.616 66.512H457.288V65.488H459.992V63.984H457.288V62.816H455.656V63.984H452.728ZM463.768 62.944L462.504 63.744C463.304 64.64 463.928 65.44 464.392 66.16L465.624 65.296C465.192 64.624 464.568 63.84 463.768 62.944ZM459.992 74.128C459.272 74.224 458.504 74.304 457.688 74.384V73.472H459.912V72.08H457.688V71.12H456.056V72.08H454.696C454.984 71.616 455.272 71.104 455.544 70.56H460.072V69.088H456.152C456.232 68.864 456.312 68.624 456.408 68.384L454.824 68.08C454.712 68.416 454.6 68.752 454.472 69.088H452.376V70.56H453.848C453.528 71.184 453.176 71.712 452.824 72.144L453.16 73.472H456.056V74.528C454.936 74.624 453.736 74.704 452.472 74.768L452.664 76.304C453.832 76.208 454.968 76.112 456.056 76.016V77.616H457.688V75.856C458.488 75.76 459.256 75.664 459.992 75.568V74.128ZM478.904 71.152C477.432 72.192 475.672 73.088 473.64 73.824L474.328 75.408C476.328 74.608 477.992 73.712 479.336 72.688L478.904 71.152ZM475.976 68.048L474.92 69.088C475.992 69.856 476.824 70.592 477.4 71.264L478.568 70.096C477.864 69.424 477 68.736 475.976 68.048ZM475.208 62.72C474.744 64.928 473.848 66.8 472.536 68.336L473.656 69.792C474.424 68.896 475.096 67.872 475.64 66.752H480.296C480.264 71.36 480.216 74.048 480.136 74.816C480.04 75.584 479.704 75.984 479.128 75.984C478.392 75.984 477.528 75.952 476.536 75.904L476.952 77.488C478.104 77.552 478.936 77.584 479.416 77.584C480.776 77.584 481.544 76.928 481.704 75.616C481.848 74.288 481.928 70.8 481.928 65.136H476.296C476.52 64.432 476.728 63.696 476.888 62.928L475.208 62.72ZM467.672 66.928V68.56H469.256V73.68C468.664 73.808 468.056 73.92 467.448 74.016L467.896 75.792C469.688 75.408 471.384 74.928 472.952 74.368V72.608C472.28 72.848 471.608 73.072 470.936 73.264V68.56H472.408V66.928H470.936V62.928H469.256V66.928H467.672ZM487.896 66.752V72.112H490.184L490.088 72.944H487.464V74.416H489.688C489.304 75.232 488.504 75.936 487.32 76.544L488.296 77.744C489.448 77.152 490.28 76.432 490.792 75.6C491.624 76.08 492.456 76.672 493.256 77.408L494.136 76.048C493.272 75.44 492.328 74.896 491.288 74.432V74.416H494.536V72.944H491.592C491.624 72.688 491.64 72.4 491.672 72.112H493.992V66.064H492.456C492.712 65.728 492.984 65.344 493.256 64.896V63.808H490.968C491.112 63.584 491.256 63.344 491.4 63.104L489.816 62.736C489.048 64.048 488.136 65.056 487.096 65.776L487.896 66.752ZM490.888 66.064H489.096C489.384 65.776 489.688 65.472 489.976 65.12H491.592C491.352 65.472 491.112 65.776 490.888 66.064ZM492.632 70.88H491.592V69.664H492.632V70.88ZM490.312 70.88H489.272V69.664H490.312V70.88ZM489.272 68.512V67.28H490.312V68.512H489.272ZM491.592 67.28H492.632V68.512H491.592V67.28ZM486.152 62.816C485.592 64.288 484.712 65.552 483.528 66.624L484.024 68.224C485.704 66.8 486.888 65.216 487.56 63.488L486.152 62.816ZM486.424 67.088C485.784 68.656 484.808 70.016 483.496 71.168L483.992 72.72C484.392 72.384 484.776 72.032 485.144 71.68V77.696H486.696V69.824C487.144 69.152 487.528 68.464 487.816 67.744L486.424 67.088ZM495.912 77.6C496.888 77.6 497.384 77.088 497.384 76.08V69.424H498.408V67.872H494.344V69.424H495.832V75.68C495.832 76.016 495.672 76.192 495.368 76.192C495.08 76.192 494.776 76.16 494.456 76.096L494.792 77.6H495.912ZM494.52 63.808V65.328H498.152V63.808H494.52ZM501.096 63.36V67.616H506.328V63.36H501.096ZM504.824 66.24H502.6V64.768H504.824V66.24ZM507.704 63.36V67.616H510.84L509.768 67.968C509.96 68.224 510.136 68.496 510.328 68.8H506.984C507.144 68.512 507.288 68.208 507.416 67.904L505.832 67.728C505.672 68.08 505.464 68.448 505.208 68.8H499.88V70.272H503.656C502.632 70.976 501.288 71.568 499.592 72.048L500.36 73.424C500.68 73.328 500.984 73.216 501.304 73.104V77.68H502.76V77.072H504.92V77.68H506.392V72.368H503.032C504.184 71.792 505.144 71.088 505.912 70.272H508.472C509.144 71.04 510.056 71.744 511.24 72.368H507.592V77.68H509.064V77.072H511.496V77.68H512.968V73.152C513.192 73.248 513.464 73.344 513.752 73.44L514.424 72.016C512.68 71.568 511.32 70.992 510.344 70.272H514.12V68.8H511.96C511.752 68.384 511.512 68 511.256 67.616H513.096V63.36H507.704ZM511.592 66.24H509.208V64.768H511.592V66.24ZM502.76 75.664V73.744H504.92V75.664H502.76ZM509.064 75.664V73.744H511.496V75.664H509.064Z" fill="white"/>
<path d="M343 45H575V41H343V45ZM577 47V93H581V47H577ZM575 95H343V99H575V95ZM341 93V47H337V93H341ZM343 95C341.895 95 341 94.1046 341 93H337C337 96.3137 339.686 99 343 99V95ZM577 93C577 94.1046 576.105 95 575 95V99C578.314 99 581 96.3137 581 93H577ZM575 45C576.105 45 577 45.8954 577 47H581C581 43.6863 578.314 41 575 41V45ZM343 41C339.686 41 337 43.6863 337 47H341C341 45.8954 341.895 45 343 45V41Z" fill="#00AA72"/>
<path d="M583 69H635" stroke="#00AA72" stroke-width="2" stroke-linecap="round" stroke-linejoin="round"/>
<circle cx="583" cy="69" r="2" transform="rotate(-180 583 69)" fill="#00AA72" stroke="#00AA72" stroke-width="2"/>
<path d="M630 75L636 69L630 63" stroke="#00AA72" stroke-width="2" stroke-linecap="round" stroke-linejoin="round"/>
<path d="M639 47C639 44.7909 640.791 43 643 43H875C877.209 43 879 44.7909 879 47V93C879 95.2091 877.209 97 875 97H643C640.791 97 639 95.2091 639 93V47Z" fill="#00AA72"/>
<path d="M725.544 69.392V71.808C725.544 72.128 725.368 72.304 725.016 72.304C724.6 72.304 724.088 72.272 723.496 72.208L723.912 73.76C724.456 73.792 725.048 73.824 725.688 73.824C726.664 73.76 727.16 73.28 727.176 72.384V67.92H721.624C722.648 66.832 723.544 65.68 724.344 64.496C725.24 65.424 726.36 66.816 727.72 68.64L728.808 67.504C727.56 65.936 726.232 64.4 724.808 62.928H723.592C722.328 64.816 720.952 66.432 719.448 67.808L720.424 69.152L721.08 68.496V75.888C721.08 76.912 721.608 77.424 722.664 77.424H726.584C727.352 77.424 727.88 77.296 728.152 77.04C728.424 76.752 728.632 75.904 728.76 74.496L727.192 73.952C727.128 74.752 727.032 75.264 726.92 75.52C726.824 75.76 726.536 75.888 726.072 75.888H723.416C722.968 75.888 722.76 75.68 722.76 75.264V69.392H725.544ZM729.448 64.272V74.112H731.08V64.272H729.448ZM732.232 77.52C733.336 77.52 733.896 76.928 733.896 75.76V62.912H732.232V75.344C732.232 75.792 732.04 76.032 731.656 76.032C730.968 76.032 730.232 76 729.464 75.936L729.848 77.52H732.232ZM749.192 69.664V67.408H750.104V66.064H749.192V63.856H745.816V62.832H744.184V63.856H741.576V65.232H744.184V66.064H740.792V67.408H744.184V68.288H741.576V69.664H744.184V70.528H741.24V71.888H744.184V72.752H740.744V74.144H744.184V75.312H745.816V74.144H749.832V72.752H745.816V71.888H749.368V70.528H745.816V69.664H749.192ZM745.816 65.232H747.592V66.064H745.816V65.232ZM745.816 67.408H747.592V68.288H745.816V67.408ZM744.616 75.824C742.552 75.792 741.016 75.504 739.992 74.928C739.8 74.816 739.608 74.672 739.432 74.496C740.136 73.056 740.536 71.312 740.6 69.28V68.288H738.36C739.032 67.312 739.704 66.176 740.392 64.88V63.52H736.232V65.088H738.536C737.832 66.304 737.064 67.44 736.232 68.528V69.792H739.08C738.984 70.992 738.744 72.064 738.36 72.992C738.04 72.368 737.752 71.6 737.496 70.704L736.088 71.232C736.472 72.544 736.952 73.632 737.528 74.496C737.08 75.136 736.504 75.68 735.832 76.144L736.936 77.568C737.608 77.056 738.184 76.464 738.664 75.792L738.984 76.048C740.248 76.88 742.36 77.312 745.336 77.312H749.992L750.28 75.728C748.328 75.792 746.44 75.824 744.616 75.824ZM760.856 66.24H765.88V64.608H761.416C761.544 64.128 761.672 63.616 761.784 63.072L760.056 62.752C759.672 64.96 758.952 66.704 757.88 68.016L758.936 69.312C759.704 68.496 760.344 67.472 760.856 66.24ZM762.584 66.944L761.24 67.792C762.008 68.816 762.632 69.76 763.08 70.624L764.472 69.664C764.024 68.896 763.4 67.984 762.584 66.944ZM755.896 62.832V70.832H757.576V62.832H755.896ZM752.616 63.616V70.24H754.264V63.616H752.616ZM764.728 71.328H753.304V75.744H751.672V77.232H766.28V75.744H764.728V71.328ZM754.92 75.744V72.832H756.536V75.744H754.92ZM758.152 75.744V72.832H759.816V75.744H758.152ZM761.432 75.744V72.832H763.112V75.744H761.432ZM781.128 62.944C779.192 63.632 776.984 64 774.504 64.064V69.856C774.392 72.64 773.624 74.816 772.2 76.384L773.4 77.632C775.096 75.696 776.008 73.104 776.12 69.856V69.456H778.408V77.712H780.056V69.456H782.312V67.872H776.12V65.488C778.264 65.36 780.2 65.008 781.96 64.432L781.128 62.944ZM773.016 64.08H768.2V75.264H769.864V74.24H773.016V64.08ZM769.864 72.672V65.648H771.384V72.672H769.864ZM785.096 63.36V67.616H790.328V63.36H785.096ZM788.824 66.24H786.6V64.768H788.824V66.24ZM791.704 63.36V67.616H794.84L793.768 67.968C793.96 68.224 794.136 68.496 794.328 68.8H790.984C791.144 68.512 791.288 68.208 791.416 67.904L789.832 67.728C789.672 68.08 789.464 68.448 789.208 68.8H783.88V70.272H787.656C786.632 70.976 785.288 71.568 783.592 72.048L784.36 73.424C784.68 73.328 784.984 73.216 785.304 73.104V77.68H786.76V77.072H788.92V77.68H790.392V72.368H787.032C788.184 71.792 789.144 71.088 789.912 70.272H792.472C793.144 71.04 794.056 71.744 795.24 72.368H791.592V77.68H793.064V77.072H795.496V77.68H796.968V73.152C797.192 73.248 797.464 73.344 797.752 73.44L798.424 72.016C796.68 71.568 795.32 70.992 794.344 70.272H798.12V68.8H795.96C795.752 68.384 795.512 68 795.256 67.616H797.096V63.36H791.704ZM795.592 66.24H793.208V64.768H795.592V66.24ZM786.76 75.664V73.744H788.92V75.664H786.76ZM793.064 75.664V73.744H795.496V75.664H793.064Z" fill="white"/>
<path d="M643 45H875V41H643V45ZM877 47V93H881V47H877ZM875 95H643V99H875V95ZM641 93V47H637V93H641ZM643 95C641.895 95 641 94.1046 641 93H637C637 96.3137 639.686 99 643 99V95ZM877 93C877 94.1046 876.105 95 875 95V99C878.314 99 881 96.3137 881 93H877ZM875 45C876.105 45 877 45.8954 877 47H881C881 43.6863 878.314 41 875 41V45ZM643 41C639.686 41 637 43.6863 637 47H641C641 45.8954 641.895 45 643 45V41Z" fill="#00AA72"/>
<path d="M883 69H935" stroke="#00AA72" stroke-width="2" stroke-linecap="round" stroke-linejoin="round"/>
<circle cx="883" cy="69" r="2" transform="rotate(-180 883 69)" fill="#00AA72" stroke="#00AA72" stroke-width="2"/>
<path d="M930 75L936 69L930 63" stroke="#00AA72" stroke-width="2" stroke-linecap="round" stroke-linejoin="round"/>
<path d="M939 47C939 44.7909 940.791 43 943 43H1175C1177.21 43 1179 44.7909 1179 47V93C1179 95.2091 1177.21 97 1175 97H943C940.791 97 939 95.2091 939 93V47Z" fill="#00AA72"/>
<path d="M1008.22 63.36V64.896H1011.4C1011.3 65.424 1011.16 65.92 1011 66.4H1007.46V68.016H1010.22C1010.18 68.064 1010.14 68.112 1010.1 68.176C1009.37 69.2 1008.28 70.096 1006.86 70.848L1007.9 72.176C1009.53 71.168 1010.76 70.032 1011.59 68.784C1011.74 68.528 1011.88 68.272 1012.01 68.016H1013.29C1014.22 69.632 1015.7 70.944 1017.75 71.968L1018.47 70.496C1016.97 69.872 1015.83 69.04 1015.05 68.016H1018.01V66.4H1012.66C1012.81 65.92 1012.94 65.424 1013.06 64.896H1017.29V63.36H1008.22ZM1008.94 71.888C1008.42 73.456 1007.8 74.8 1007.08 75.92L1008.47 76.912C1009.18 75.696 1009.8 74.24 1010.34 72.576L1008.94 71.888ZM1005.05 62.992L1003.91 64.08C1004.98 64.848 1005.82 65.552 1006.41 66.208L1007.54 65.072C1006.87 64.368 1006.04 63.68 1005.05 62.992ZM1004.66 66.816L1003.53 67.904C1004.63 68.768 1005.48 69.568 1006.07 70.304L1007.22 69.168C1006.52 68.384 1005.67 67.6 1004.66 66.816ZM1005.69 71.312C1005.1 73.216 1004.39 75.072 1003.59 76.88L1005.14 77.568C1005.88 75.808 1006.55 73.92 1007.16 71.904L1005.69 71.312ZM1011.34 77.68C1012.31 77.68 1012.81 77.104 1012.81 75.952V70.112H1011.19V75.568C1011.19 76 1011.05 76.224 1010.76 76.224C1010.36 76.224 1009.94 76.176 1009.5 76.112L1009.85 77.68H1011.34ZM1016.57 71.52L1015.13 72C1015.77 73.376 1016.34 74.96 1016.89 76.752L1018.36 76.08C1017.85 74.464 1017.26 72.944 1016.57 71.52ZM1014.47 72.08L1013.08 72.544C1013.66 73.92 1014.17 75.504 1014.65 77.296L1016.12 76.608C1015.64 75.008 1015.1 73.488 1014.47 72.08ZM1033.74 65.072H1028.18V77.424H1029.78V76.448H1032.1V77.424H1033.74V65.072ZM1029.78 74.848V66.656H1032.1V74.848H1029.78ZM1022.2 62.896V65.952H1019.83V67.584H1022.2C1022.12 71.744 1021.21 74.768 1019.46 76.672L1020.73 77.792C1022.71 75.616 1023.77 72.224 1023.86 67.584H1025.42C1025.38 71.808 1025.34 74.288 1025.26 75.008C1025.14 75.68 1024.78 76.032 1024.17 76.032C1023.77 76.032 1023.3 76 1022.76 75.936L1023.18 77.456C1023.75 77.52 1024.18 77.552 1024.44 77.552C1025.85 77.552 1026.65 76.96 1026.81 75.792C1026.97 74.544 1027.05 71.264 1027.05 65.952H1023.86V62.896H1022.2ZM1038.89 68.88H1050.2V67.248H1038.89V65.456C1042.76 65.36 1046.25 65.024 1049.35 64.448L1048.54 62.944C1045.24 63.584 1041.46 63.92 1037.24 63.952V68.992C1037.16 72.128 1036.58 74.576 1035.53 76.336L1036.78 77.648C1038.09 75.504 1038.79 72.608 1038.89 68.992V68.88ZM1049.03 70.624H1039.99V77.68H1041.67V77.072H1047.35V77.68H1049.03V70.624ZM1041.67 75.44V72.224H1047.35V75.44H1041.67ZM1051.62 65.36V66.928H1056.81V65.36H1055.1C1054.9 64.496 1054.71 63.728 1054.52 63.056L1052.86 63.328C1053.1 63.952 1053.32 64.624 1053.51 65.36H1051.62ZM1053.32 67.584L1051.94 68.032C1052.23 69.984 1052.49 72 1052.68 74.112L1054.01 73.792C1053.8 71.456 1053.58 69.376 1053.32 67.584ZM1056.73 73.808L1055.69 74.144C1056.01 72.16 1056.26 70 1056.44 67.664L1054.95 67.456C1054.81 69.952 1054.58 72.304 1054.3 74.544C1053.4 74.768 1052.49 74.96 1051.56 75.104L1051.99 76.736C1053.67 76.368 1055.26 75.92 1056.73 75.408V73.808ZM1064.01 65.776H1062.41V62.896H1060.78V65.776H1059.22V63.52H1057.62V67.232H1065.59V63.52H1064.01V65.776ZM1057.11 68.144V69.68H1060.57C1060.49 70.048 1060.39 70.416 1060.26 70.784H1057.42V77.6H1058.92V72.256H1059.85V77.328H1061.22V72.256H1062.07V77.312H1063.45V72.256H1064.42V75.904C1064.42 76.08 1064.34 76.176 1064.22 76.176L1063.58 76.128L1063.98 77.6H1064.7C1065.5 77.6 1065.9 77.136 1065.9 76.208V70.784H1061.9C1062.02 70.432 1062.12 70.064 1062.22 69.68H1066.22V68.144H1057.11ZM1070.14 68.624H1072.23V70.832H1070.14V68.624ZM1072.23 67.136H1070.14V64.896H1072.23V67.136ZM1070.1 72.336H1072.23V75.376C1072.23 75.936 1072.07 76.224 1071.75 76.224C1071.37 76.224 1070.97 76.192 1070.54 76.16L1070.94 77.616H1072.22C1073.24 77.616 1073.75 77.04 1073.75 75.92V63.392H1068.65V71.328C1068.63 73.44 1068.31 75.184 1067.67 76.56L1068.94 77.712C1069.59 76.288 1069.98 74.496 1070.1 72.336ZM1076.3 70.752H1076.42C1076.76 72.208 1077.38 73.52 1078.28 74.688C1077.72 75.312 1077.06 75.84 1076.3 76.288V70.752ZM1076.3 76.416L1077.1 77.664C1077.96 77.2 1078.73 76.608 1079.37 75.904C1080.01 76.528 1080.78 77.104 1081.67 77.648L1082.49 76.224C1081.67 75.744 1080.95 75.2 1080.31 74.592C1080.95 73.504 1081.42 72.192 1081.69 70.672V69.28H1076.3V64.896H1079.94C1079.91 65.904 1079.85 66.528 1079.77 66.784C1079.67 67.008 1079.56 67.136 1079.4 67.184C1079.26 67.216 1079.02 67.248 1078.68 67.248C1078.25 67.248 1077.9 67.232 1077.64 67.232L1078.09 68.656H1079.43C1080.46 68.656 1081.08 68.304 1081.27 67.632C1081.46 66.928 1081.58 65.504 1081.58 63.392H1074.73V77.68H1076.3V76.416ZM1077.85 70.752H1080.22C1079.98 71.728 1079.64 72.608 1079.21 73.376C1078.6 72.592 1078.15 71.712 1077.85 70.752ZM1088.22 62.784C1087.58 64.32 1086.33 65.616 1084.47 66.672L1085.48 68C1086.09 67.616 1086.66 67.216 1087.19 66.784C1087.8 67.28 1088.46 67.744 1089.16 68.176C1087.53 68.752 1085.67 69.184 1083.59 69.44L1084.36 71.008C1086.89 70.624 1089.1 70 1091 69.152C1092.98 70.08 1095.21 70.672 1097.69 70.96L1098.44 69.408C1096.39 69.216 1094.52 68.816 1092.84 68.208C1094.15 67.44 1095.27 66.512 1096.22 65.424V64.08H1089.42C1089.59 63.76 1089.75 63.408 1089.91 63.04L1088.22 62.784ZM1090.98 67.408C1090.02 66.928 1089.13 66.352 1088.3 65.68L1088.33 65.648H1093.74C1092.92 66.32 1092.01 66.896 1090.98 67.408ZM1089.77 70.064C1089.75 70.608 1089.7 71.12 1089.61 71.616H1084.71V73.12H1089.1C1089 73.28 1088.9 73.456 1088.79 73.632C1088.01 74.704 1086.31 75.616 1083.72 76.368L1084.82 77.728C1087.8 76.768 1089.67 75.584 1090.44 74.16C1090.63 73.84 1090.79 73.488 1090.92 73.12H1095.11C1095.08 74.448 1094.95 75.264 1094.74 75.584C1094.55 75.888 1094.09 76.048 1093.34 76.064C1092.79 76.048 1092.1 76.016 1091.26 75.968L1091.67 77.472C1092.47 77.536 1093.14 77.568 1093.7 77.568C1094.82 77.568 1095.61 77.28 1096.06 76.72C1096.5 76.16 1096.74 74.464 1096.78 71.616H1091.3C1091.37 71.136 1091.42 70.608 1091.42 70.064H1089.77ZM1101.1 63.36V67.616H1106.33V63.36H1101.1ZM1104.82 66.24H1102.6V64.768H1104.82V66.24ZM1107.7 63.36V67.616H1110.84L1109.77 67.968C1109.96 68.224 1110.14 68.496 1110.33 68.8H1106.98C1107.14 68.512 1107.29 68.208 1107.42 67.904L1105.83 67.728C1105.67 68.08 1105.46 68.448 1105.21 68.8H1099.88V70.272H1103.66C1102.63 70.976 1101.29 71.568 1099.59 72.048L1100.36 73.424C1100.68 73.328 1100.98 73.216 1101.3 73.104V77.68H1102.76V77.072H1104.92V77.68H1106.39V72.368H1103.03C1104.18 71.792 1105.14 71.088 1105.91 70.272H1108.47C1109.14 71.04 1110.06 71.744 1111.24 72.368H1107.59V77.68H1109.06V77.072H1111.5V77.68H1112.97V73.152C1113.19 73.248 1113.46 73.344 1113.75 73.44L1114.42 72.016C1112.68 71.568 1111.32 70.992 1110.34 70.272H1114.12V68.8H1111.96C1111.75 68.384 1111.51 68 1111.26 67.616H1113.1V63.36H1107.7ZM1111.59 66.24H1109.21V64.768H1111.59V66.24ZM1102.76 75.664V73.744H1104.92V75.664H1102.76ZM1109.06 75.664V73.744H1111.5V75.664H1109.06Z" fill="white"/>
<path d="M943 45H1175V41H943V45ZM1177 47V93H1181V47H1177ZM1175 95H943V99H1175V95ZM941 93V47H937V93H941ZM943 95C941.895 95 941 94.1046 941 93H937C937 96.3137 939.686 99 943 99V95ZM1177 93C1177 94.1046 1176.1 95 1175 95V99C1178.31 99 1181 96.3137 1181 93H1177ZM1175 45C1176.1 45 1177 45.8954 1177 47H1181C1181 43.6863 1178.31 41 1175 41V45ZM943 41C939.686 41 937 43.6863 937 47H941C941 45.8954 941.895 45 943 45V41Z" fill="#00AA72"/>
<path d="M1183 69H1235" stroke="#00AA72" stroke-width="2" stroke-linecap="round" stroke-linejoin="round"/>
<circle cx="1183" cy="69" r="2" transform="rotate(-180 1183 69)" fill="#00AA72" stroke="#00AA72" stroke-width="2"/>
<path d="M1230 75L1236 69L1230 63" stroke="#00AA72" stroke-width="2" stroke-linecap="round" stroke-linejoin="round"/>
<path d="M1239 47C1239 44.7909 1240.79 43 1243 43H1475C1477.21 43 1479 44.7909 1479 47V93C1479 95.2091 1477.21 97 1475 97H1243C1240.79 97 1239 95.2091 1239 93V47Z" fill="#00AA72"/>
<path d="M1303.46 67.984V68.848H1308.06V67.92C1308.54 68.432 1309.08 68.912 1309.69 69.392L1310.6 68C1308.68 66.528 1307.32 64.816 1306.54 62.864H1305.06C1304.12 64.992 1302.78 66.72 1301.02 68.048L1301.9 69.392C1302.44 68.976 1302.97 68.512 1303.46 67.984ZM1307.56 67.344H1304.02C1304.68 66.512 1305.27 65.568 1305.8 64.496C1306.25 65.52 1306.82 66.464 1307.56 67.344ZM1301.48 75.568V77.168H1310.38V75.568H1308.18C1308.78 73.92 1309.27 72.048 1309.69 69.968L1308.09 69.552C1307.66 71.904 1307.16 73.904 1306.62 75.568H1301.48ZM1303.34 70.016L1301.91 70.512C1302.42 71.888 1302.86 73.344 1303.21 74.864L1304.63 74.528C1304.25 72.832 1303.82 71.328 1303.34 70.016ZM1305.8 69.52L1304.38 69.984C1304.79 71.328 1305.14 72.736 1305.42 74.192L1306.84 73.856C1306.54 72.224 1306.18 70.768 1305.8 69.52ZM1299.53 64.944L1298.86 70.032H1297.43L1298.04 65.872L1296.52 65.792L1295.77 71.504H1299.78C1299.78 73.664 1299.7 74.96 1299.56 75.408C1299.42 75.84 1299 76.064 1298.31 76.064C1298.09 76.064 1297.7 76.016 1297.14 75.936L1297.59 77.408C1297.96 77.44 1298.31 77.472 1298.66 77.472C1299.75 77.472 1300.47 77.168 1300.81 76.592C1301.14 76.016 1301.32 73.824 1301.32 70.032H1300.42L1301.18 63.44H1295.83V64.944H1299.53ZM1299.18 72.48C1298.1 72.832 1296.86 73.12 1295.43 73.344L1295.64 74.912C1296.95 74.672 1298.14 74.352 1299.18 73.968V72.48ZM1321.38 65.072V75.504H1319.66V67.392H1318.02V75.504H1316.57V77.136H1326.5V75.504H1323.08V70.576H1325.94V69.024H1323.08V65.072H1326.17V63.44H1317.05V65.072H1321.38ZM1313.9 62.976L1312.73 64.08C1313.83 64.912 1314.68 65.712 1315.29 66.464L1316.42 65.296C1315.72 64.528 1314.89 63.76 1313.9 62.976ZM1311.61 67.584V69.184H1313.78V74.704C1313.78 75.056 1313.64 75.344 1313.35 75.568L1313.99 77.088C1315.08 76.336 1316.12 75.488 1317.1 74.56L1316.66 72.8C1316.22 73.248 1315.78 73.648 1315.37 74.032V67.584H1311.61ZM1340.65 66.848H1337.45C1337.9 66.4 1338.36 65.872 1338.81 65.28V64.064H1333.78C1333.96 63.792 1334.14 63.52 1334.33 63.232L1332.68 62.88C1331.34 64.832 1329.78 66.32 1328.01 67.376L1329.08 68.64C1329.4 68.416 1329.74 68.192 1330.09 67.936V74.512H1331.72V68.416H1339.02V74.352H1340.65V66.848ZM1335.53 66.848H1331.38C1331.82 66.432 1332.23 66 1332.63 65.536H1336.74C1336.33 66.016 1335.93 66.464 1335.53 66.848ZM1336.38 73.728L1335.54 74.96C1337.48 75.632 1339.35 76.56 1341.18 77.76L1342.1 76.304C1340.38 75.296 1338.46 74.432 1336.38 73.728ZM1334.5 69.008V71.28C1334.41 72.56 1333.98 73.6 1333.18 74.4C1332.38 75.136 1330.81 75.744 1328.49 76.256L1329.38 77.68C1331.69 77.168 1333.37 76.416 1334.39 75.456C1335.45 74.416 1336.02 73.024 1336.12 71.28V69.008H1334.5ZM1344.73 63.984V65.488H1347.66V66.512H1343.9V68.032H1352.71C1352.82 69.392 1353 70.56 1353.22 71.552C1353.38 72.336 1353.58 73.056 1353.8 73.696C1353.03 74.848 1352.09 75.728 1351 76.336L1351.91 77.68C1352.89 77.152 1353.77 76.416 1354.54 75.456C1354.63 75.664 1354.76 75.856 1354.89 76.048C1355.56 77.008 1356.2 77.488 1356.79 77.488C1357.53 77.488 1358.07 76.416 1358.46 74.288L1357.05 73.52C1356.89 75.024 1356.73 75.776 1356.58 75.776C1356.39 75.776 1356.12 75.408 1355.75 74.688C1355.66 74.512 1355.58 74.304 1355.48 74.064C1356.25 72.736 1356.89 71.104 1357.38 69.168L1355.9 68.496C1355.61 69.712 1355.26 70.8 1354.82 71.792L1354.7 71.168C1354.54 70.368 1354.41 69.328 1354.33 68.032H1358.09V66.512H1354.23C1354.17 65.424 1354.14 64.176 1354.14 62.8H1352.52C1352.52 64.128 1352.55 65.36 1352.62 66.512H1349.29V65.488H1351.99V63.984H1349.29V62.816H1347.66V63.984H1344.73ZM1355.77 62.944L1354.5 63.744C1355.3 64.64 1355.93 65.44 1356.39 66.16L1357.62 65.296C1357.19 64.624 1356.57 63.84 1355.77 62.944ZM1351.99 74.128C1351.27 74.224 1350.5 74.304 1349.69 74.384V73.472H1351.91V72.08H1349.69V71.12H1348.06V72.08H1346.7C1346.98 71.616 1347.27 71.104 1347.54 70.56H1352.07V69.088H1348.15C1348.23 68.864 1348.31 68.624 1348.41 68.384L1346.82 68.08C1346.71 68.416 1346.6 68.752 1346.47 69.088H1344.38V70.56H1345.85C1345.53 71.184 1345.18 71.712 1344.82 72.144L1345.16 73.472H1348.06V74.528C1346.94 74.624 1345.74 74.704 1344.47 74.768L1344.66 76.304C1345.83 76.208 1346.97 76.112 1348.06 76.016V77.616H1349.69V75.856C1350.49 75.76 1351.26 75.664 1351.99 75.568V74.128ZM1370.9 71.152C1369.43 72.192 1367.67 73.088 1365.64 73.824L1366.33 75.408C1368.33 74.608 1369.99 73.712 1371.34 72.688L1370.9 71.152ZM1367.98 68.048L1366.92 69.088C1367.99 69.856 1368.82 70.592 1369.4 71.264L1370.57 70.096C1369.86 69.424 1369 68.736 1367.98 68.048ZM1367.21 62.72C1366.74 64.928 1365.85 66.8 1364.54 68.336L1365.66 69.792C1366.42 68.896 1367.1 67.872 1367.64 66.752H1372.3C1372.26 71.36 1372.22 74.048 1372.14 74.816C1372.04 75.584 1371.7 75.984 1371.13 75.984C1370.39 75.984 1369.53 75.952 1368.54 75.904L1368.95 77.488C1370.1 77.552 1370.94 77.584 1371.42 77.584C1372.78 77.584 1373.54 76.928 1373.7 75.616C1373.85 74.288 1373.93 70.8 1373.93 65.136H1368.3C1368.52 64.432 1368.73 63.696 1368.89 62.928L1367.21 62.72ZM1359.67 66.928V68.56H1361.26V73.68C1360.66 73.808 1360.06 73.92 1359.45 74.016L1359.9 75.792C1361.69 75.408 1363.38 74.928 1364.95 74.368V72.608C1364.28 72.848 1363.61 73.072 1362.94 73.264V68.56H1364.41V66.928H1362.94V62.928H1361.26V66.928H1359.67ZM1379.9 66.752V72.112H1382.18L1382.09 72.944H1379.46V74.416H1381.69C1381.3 75.232 1380.5 75.936 1379.32 76.544L1380.3 77.744C1381.45 77.152 1382.28 76.432 1382.79 75.6C1383.62 76.08 1384.46 76.672 1385.26 77.408L1386.14 76.048C1385.27 75.44 1384.33 74.896 1383.29 74.432V74.416H1386.54V72.944H1383.59C1383.62 72.688 1383.64 72.4 1383.67 72.112H1385.99V66.064H1384.46C1384.71 65.728 1384.98 65.344 1385.26 64.896V63.808H1382.97C1383.11 63.584 1383.26 63.344 1383.4 63.104L1381.82 62.736C1381.05 64.048 1380.14 65.056 1379.1 65.776L1379.9 66.752ZM1382.89 66.064H1381.1C1381.38 65.776 1381.69 65.472 1381.98 65.12H1383.59C1383.35 65.472 1383.11 65.776 1382.89 66.064ZM1384.63 70.88H1383.59V69.664H1384.63V70.88ZM1382.31 70.88H1381.27V69.664H1382.31V70.88ZM1381.27 68.512V67.28H1382.31V68.512H1381.27ZM1383.59 67.28H1384.63V68.512H1383.59V67.28ZM1378.15 62.816C1377.59 64.288 1376.71 65.552 1375.53 66.624L1376.02 68.224C1377.7 66.8 1378.89 65.216 1379.56 63.488L1378.15 62.816ZM1378.42 67.088C1377.78 68.656 1376.81 70.016 1375.5 71.168L1375.99 72.72C1376.39 72.384 1376.78 72.032 1377.14 71.68V77.696H1378.7V69.824C1379.14 69.152 1379.53 68.464 1379.82 67.744L1378.42 67.088ZM1387.91 77.6C1388.89 77.6 1389.38 77.088 1389.38 76.08V69.424H1390.41V67.872H1386.34V69.424H1387.83V75.68C1387.83 76.016 1387.67 76.192 1387.37 76.192C1387.08 76.192 1386.78 76.16 1386.46 76.096L1386.79 77.6H1387.91ZM1386.52 63.808V65.328H1390.15V63.808H1386.52ZM1394.14 68.624H1396.23V70.832H1394.14V68.624ZM1396.23 67.136H1394.14V64.896H1396.23V67.136ZM1394.1 72.336H1396.23V75.376C1396.23 75.936 1396.07 76.224 1395.75 76.224C1395.37 76.224 1394.97 76.192 1394.54 76.16L1394.94 77.616H1396.22C1397.24 77.616 1397.75 77.04 1397.75 75.92V63.392H1392.65V71.328C1392.63 73.44 1392.31 75.184 1391.67 76.56L1392.94 77.712C1393.59 76.288 1393.98 74.496 1394.1 72.336ZM1400.3 70.752H1400.42C1400.76 72.208 1401.38 73.52 1402.28 74.688C1401.72 75.312 1401.06 75.84 1400.3 76.288V70.752ZM1400.3 76.416L1401.1 77.664C1401.96 77.2 1402.73 76.608 1403.37 75.904C1404.01 76.528 1404.78 77.104 1405.67 77.648L1406.49 76.224C1405.67 75.744 1404.95 75.2 1404.31 74.592C1404.95 73.504 1405.42 72.192 1405.69 70.672V69.28H1400.3V64.896H1403.94C1403.91 65.904 1403.85 66.528 1403.77 66.784C1403.67 67.008 1403.56 67.136 1403.4 67.184C1403.26 67.216 1403.02 67.248 1402.68 67.248C1402.25 67.248 1401.9 67.232 1401.64 67.232L1402.09 68.656H1403.43C1404.46 68.656 1405.08 68.304 1405.27 67.632C1405.46 66.928 1405.58 65.504 1405.58 63.392H1398.73V77.68H1400.3V76.416ZM1401.85 70.752H1404.22C1403.98 71.728 1403.64 72.608 1403.21 73.376C1402.6 72.592 1402.15 71.712 1401.85 70.752ZM1412.22 62.784C1411.58 64.32 1410.33 65.616 1408.47 66.672L1409.48 68C1410.09 67.616 1410.66 67.216 1411.19 66.784C1411.8 67.28 1412.46 67.744 1413.16 68.176C1411.53 68.752 1409.67 69.184 1407.59 69.44L1408.36 71.008C1410.89 70.624 1413.1 70 1415 69.152C1416.98 70.08 1419.21 70.672 1421.69 70.96L1422.44 69.408C1420.39 69.216 1418.52 68.816 1416.84 68.208C1418.15 67.44 1419.27 66.512 1420.22 65.424V64.08H1413.42C1413.59 63.76 1413.75 63.408 1413.91 63.04L1412.22 62.784ZM1414.98 67.408C1414.02 66.928 1413.13 66.352 1412.3 65.68L1412.33 65.648H1417.74C1416.92 66.32 1416.01 66.896 1414.98 67.408ZM1413.77 70.064C1413.75 70.608 1413.7 71.12 1413.61 71.616H1408.71V73.12H1413.1C1413 73.28 1412.9 73.456 1412.79 73.632C1412.01 74.704 1410.31 75.616 1407.72 76.368L1408.82 77.728C1411.8 76.768 1413.67 75.584 1414.44 74.16C1414.63 73.84 1414.79 73.488 1414.92 73.12H1419.11C1419.08 74.448 1418.95 75.264 1418.74 75.584C1418.55 75.888 1418.09 76.048 1417.34 76.064C1416.79 76.048 1416.1 76.016 1415.26 75.968L1415.67 77.472C1416.47 77.536 1417.14 77.568 1417.7 77.568C1418.82 77.568 1419.61 77.28 1420.06 76.72C1420.5 76.16 1420.74 74.464 1420.78 71.616H1415.3C1415.37 71.136 1415.42 70.608 1415.42 70.064H1413.77Z" fill="white"/>
<path d="M1243 45H1475V41H1243V45ZM1477 47V93H1481V47H1477ZM1475 95H1243V99H1475V95ZM1241 93V47H1237V93H1241ZM1243 95C1241.9 95 1241 94.1046 1241 93H1237C1237 96.3137 1239.69 99 1243 99V95ZM1477 93C1477 94.1046 1476.1 95 1475 95V99C1478.31 99 1481 96.3137 1481 93H1477ZM1475 45C1476.1 45 1477 45.8954 1477 47H1481C1481 43.6863 1478.31 41 1475 41V45ZM1243 41C1239.69 41 1237 43.6863 1237 47H1241C1241 45.8954 1241.9 45 1243 45V41Z" fill="#00AA72"/>
</svg>
