<svg xmlns="http://www.w3.org/2000/svg" width="62" height="72" viewBox="0 0 62 72">
    <g fill="none" fill-rule="evenodd">
        <g>
            <g>
                <g>
                    <path fill="#F5F8FA" d="M32.506.875l28 16.258c.925.537 1.494 1.525 1.494 2.594v32.546c0 1.069-.569 2.057-1.494 2.594l-28 16.258c-.931.541-2.081.541-3.012 0l-28-16.258C.569 54.33 0 53.342 0 52.273V19.727c0-1.069.569-2.057 1.494-2.594l28-16.258c.931-.541 2.081-.541 3.012 0z" transform="translate(-165 -672) translate(141 660) translate(24 12)"/>
                    <g>
                        <path d="M0 0H40V40H0z" transform="translate(-165 -672) translate(141 660) translate(24 12) translate(11 16)"/>
                        <g transform="translate(-165 -672) translate(141 660) translate(24 12) translate(11 16) translate(4 1)">
                            <path fill="#FFF" d="M32 11.398v4c0 2.21-7.163 4-16 4s-16-1.79-16-4v-4c0 2.21 7.163 4 16 4 8.7 0 15.78-1.736 15.995-3.898l.005-.102zM32 22.327v4c0 2.21-7.163 4-16 4s-16-1.79-16-4v-4c0 2.21 7.163 4 16 4 8.7 0 15.78-1.736 15.995-3.898l.005-.102z"/>
                            <path fill="#D0D0D8" d="M32 15v8c0 2.21-7.163 4-16 4S0 25.21 0 23v-8c0 2.21 7.163 4 16 4 8.7 0 15.78-1.736 15.995-3.898L32 15z"/>
                            <path fill="#D0D0D8" d="M32 25.673v8c0 2.209-7.163 4-16 4s-16-1.791-16-4v-8c0 2.209 7.163 4 16 4 8.7 0 15.78-1.736 15.995-3.899l.005-.101zM0 4.398h32v8c0 2.21-7.163 4-16 4s-16-1.79-16-4v-8z"/>
                            <ellipse cx="16" cy="4.398" fill="#3D3E49" rx="16" ry="4"/>
                        </g>
                    </g>
                </g>
            </g>
        </g>
    </g>
</svg>
