<svg width="62" height="72" viewBox="0 0 62 72" fill="none" xmlns="http://www.w3.org/2000/svg">
<path fill-rule="evenodd" clip-rule="evenodd" d="M29.4936 0.405633C30.425 -0.135211 31.575 -0.135211 32.5064 0.405633L60.5064 16.6637C61.431 17.2006 62 18.1889 62 19.2581V51.8038C62 52.873 61.431 53.8613 60.5064 54.3982L32.5064 70.6563C31.575 71.1971 30.425 71.1971 29.4936 70.6563L1.49359 54.3982C0.569001 53.8613 0 52.873 0 51.8038L0 19.2581C0 18.1889 0.569002 17.2006 1.49359 16.6637L29.4936 0.405633Z" fill="#F5F8FA"/>
<path d="M35.5146 44.9987H26.4849C26.7571 45.9273 27.0645 46.7833 27.3999 47.5548C28.0724 49.1015 28.8087 50.1954 29.4993 50.8672C30.1782 51.5277 30.6818 51.6654 30.9998 51.6654C31.3177 51.6654 31.8213 51.5277 32.5002 50.8672C33.1908 50.1954 33.9272 49.1015 34.5996 47.5548C34.9351 46.7833 35.2424 45.9273 35.5146 44.9987Z" fill="#D0D0D8"/>
<path d="M26.2551 25.832C26.5798 24.5781 26.9663 23.4398 27.3999 22.4426C28.0724 20.8959 28.8087 19.802 29.4993 19.1302C30.1782 18.4697 30.6818 18.332 30.9998 18.332C31.3177 18.332 31.8213 18.4697 32.5002 19.1302C33.1908 19.802 33.9272 20.8959 34.5996 22.4426C35.0332 23.4398 35.4197 24.5781 35.7444 25.832H26.2551Z" fill="#D0D0D8"/>
<path d="M23.6795 25.832H17.0781C19.2477 22.5437 22.5511 20.0694 26.4316 18.9658C25.2867 20.695 24.3381 23.0555 23.6795 25.832Z" fill="#D0D0D8"/>
<path d="M23.8892 44.9987H17.6652C19.8226 47.8708 22.8862 50.0233 26.4316 51.0316C25.403 49.4781 24.5329 47.4151 23.8892 44.9987Z" fill="#D0D0D8"/>
<path d="M38.1104 44.9987H44.3343C42.177 47.8708 39.1133 50.0233 35.5679 51.0316C36.5965 49.4781 37.4666 47.4151 38.1104 44.9987Z" fill="#D0D0D8"/>
<path d="M44.9214 25.832H38.32C37.6614 23.0555 36.7128 20.695 35.5679 18.9658C39.4484 20.0694 42.7518 22.5437 44.9214 25.832Z" fill="#D0D0D8"/>
<path fill-rule="evenodd" clip-rule="evenodd" d="M15.9997 28.332C15.0792 28.332 14.333 29.0782 14.333 29.9987V40.832C14.333 41.7525 15.0792 42.4987 15.9997 42.4987H45.9997C46.9201 42.4987 47.6663 41.7525 47.6663 40.832V29.9987C47.6663 29.0782 46.9201 28.332 45.9997 28.332H15.9997ZM23.2221 36.3187L24.0376 31.8607H25.7368L24.228 38.9701H22.4507L21.4985 34.9173L20.5659 38.9701H18.7934L17.2798 31.8607H18.9839L19.7993 36.3187L20.7758 31.8607H22.2309L23.2221 36.3187ZM32.7135 36.3187L33.529 31.8607H35.2282L33.7194 38.9701H31.9421L30.9899 34.9173L30.0573 38.9701H28.2848L26.7712 31.8607H28.4753L29.2907 36.3187L30.2673 31.8607H31.7223L32.7135 36.3187ZM43.0204 31.8607L42.2049 36.3187L41.2137 31.8607H39.7587L38.7821 36.3187L37.9667 31.8607H36.2626L37.7762 38.9701H39.5487L40.4813 34.9173L41.4335 38.9701H43.2108L44.7196 31.8607H43.0204Z" fill="#3D3E49"/>
</svg>
