<svg xmlns="http://www.w3.org/2000/svg" width="62" height="72" viewBox="0 0 62 72">
    <g fill="none" fill-rule="evenodd">
        <g>
            <g>
                <g>
                    <path fill="#F5F8FA" d="M32.506.406l28 16.258C61.431 17.2 62 18.189 62 19.258v32.546c0 1.069-.569 2.057-1.494 2.594l-28 16.258c-.931.541-2.081.541-3.012 0l-28-16.258C.569 53.861 0 52.873 0 51.804V19.258c0-1.07.569-2.057 1.494-2.594l28-16.258c.931-.541 2.081-.541 3.012 0z" transform="translate(-1049 -1058) translate(1025 1046) translate(24 12)"/>
                    <g>
                        <path fill="#3D3E49" d="M0 31.042L8.545 31.042 17.997 13.946 14.07 6.803z" transform="translate(-1049 -1058) translate(1025 1046) translate(24 12) translate(13 18)"/>
                        <path fill="#D0D0D8" d="M14.066 6.807L27.44 31.042 36 31.042 18 0z" transform="translate(-1049 -1058) translate(1025 1046) translate(24 12) translate(13 18)"/>
                    </g>
                </g>
            </g>
        </g>
    </g>
</svg>
