<svg xmlns="http://www.w3.org/2000/svg" xmlns:xlink="http://www.w3.org/1999/xlink" width="62" height="72" viewBox="0 0 62 72">
    <defs>
        <path id="uu8zmmb6qa" d="M21.419.402l16.918 9.768c.928.536 1.5 1.526 1.5 2.598v4.536c0 1.072-.572 2.062-1.5 2.598L21.42 29.67c-.929.536-2.072.536-3 0L1.5 19.902C.572 19.366 0 18.376 0 17.304v-4.536c0-1.072.572-2.062 1.5-2.598L18.419.402c.928-.536 2.071-.536 3 0z"/>
        <path id="u53ngxaaqb" d="M12.447.418l16.89 9.752c.928.536 1.5 1.526 1.5 2.598v16.568c0 1.055-.553 2.032-1.458 2.574l-7.025 4.21c-.934.56-2.098.569-3.042.024l-16.89-9.751c-.928-.536-1.5-1.527-1.5-2.599V7.226c0-1.054.554-2.031 1.458-2.573L9.405.443c.934-.56 2.099-.57 3.042-.025z"/>
        <path id="rs3fqef0jd" d="M11.46.634l6.959 4.018c.928.536 1.5 1.526 1.5 2.598v4.036c0 1.072-.572 2.062-1.5 2.598l-6.96 4.018c-.928.536-2.072.536-3 0L1.5 13.884C.572 13.348 0 12.358 0 11.286V7.25c0-1.072.572-2.062 1.5-2.598L8.46.634c.927-.536 2.071-.536 3 0z"/>
    </defs>
    <g fill="none" fill-rule="evenodd">
        <g>
            <g>
                <g>
                    <path fill="#F5F8FA" d="M32.506.875l28 16.258c.925.537 1.494 1.525 1.494 2.594v32.546c0 1.069-.569 2.057-1.494 2.594l-28 16.258c-.931.541-2.081.541-3.012 0l-28-16.258C.569 54.33 0 53.342 0 52.273V19.727c0-1.069.569-2.057 1.494-2.594l28-16.258c.931-.541 2.081-.541 3.012 0z" transform="translate(-165 -1341) translate(141 1329) translate(24 12)"/>
                    <g transform="translate(-165 -1341) translate(141 1329) translate(24 12) translate(11 28)">
                        <use fill="#D0D0D8" xlink:href="#uu8zmmb6qa"/>
                    </g>
                    <g transform="translate(-165 -1341) translate(141 1329) translate(24 12) translate(20 16)">
                        <mask id="927cokixvc" fill="#fff">
                            <use xlink:href="#u53ngxaaqb"/>
                        </mask>
                        <use fill="#D0D0D8" xlink:href="#u53ngxaaqb"/>
                        <path fill="#3D3E49" d="M22.33 16.7l6.947-4.265c.47-.29 1.086-.142 1.375.328.097.158.148.339.148.524v16.058c0 1.06-.56 2.042-1.473 2.582l-6.918 4.092c-.475.281-1.089.124-1.37-.351-.09-.154-.139-.33-.139-.51V19.258c0-1.043.541-2.01 1.43-2.557z" mask="url(#927cokixvc)"/>
                    </g>
                    <path fill="#3D3E49" d="M32.477 48.295l16.815-9.908c.476-.28 1.09-.121 1.37.354.09.154.138.33.138.508v6.076c0 1.071-.571 2.061-1.499 2.597l-16.8 9.71c-.479.276-1.09.113-1.367-.365-.088-.153-.134-.325-.134-.5V50.88c0-1.062.562-2.045 1.477-2.585z" transform="translate(-165 -1341) translate(141 1329) translate(24 12)"/>
                    <g transform="translate(-165 -1341) translate(141 1329) translate(24 12) translate(11 29)">
                        <mask id="rr33fy19xe" fill="#fff">
                            <use xlink:href="#rs3fqef0jd"/>
                        </mask>
                        <use fill="#D0D0D8" xlink:href="#rs3fqef0jd"/>
                        <path fill="#3D3E49" d="M11.477 10.713l6.915-4.075c.476-.28 1.09-.122 1.37.354.09.154.138.329.138.507v3.798c0 1.071-.571 2.061-1.499 2.597l-6.9 3.988c-.479.277-1.09.113-1.367-.365-.088-.152-.134-.325-.134-.5v-3.72c0-1.062.562-2.045 1.477-2.584z" mask="url(#rr33fy19xe)"/>
                    </g>
                </g>
            </g>
        </g>
    </g>
</svg>
