<svg xmlns="http://www.w3.org/2000/svg" width="62" height="72" viewBox="0 0 62 72">
    <g fill="none" fill-rule="evenodd">
        <g>
            <g>
                <g>
                    <path fill="#F5F8FA" d="M32.506.406l28 16.258C61.431 17.2 62 18.189 62 19.258v32.546c0 1.069-.569 2.057-1.494 2.594l-28 16.258c-.931.541-2.081.541-3.012 0l-28-16.258C.569 53.861 0 52.873 0 51.804V19.258c0-1.07.569-2.057 1.494-2.594l28-16.258c.931-.541 2.081-.541 3.012 0z" transform="translate(-1050 -1344) translate(1026 1332) translate(24 12)"/>
                    <g>
                        <path fill="#D0D0D8" d="M12.75 5.822C11.433 4.1 8.415 3.65 3.693 4.472 6.755 1.938 10.257.648 14.198.602c3.106-.036 7.408 1.033 8.936 4.036.726.422 2.781 1.59 6.165 3.506.4.227.542.735.315 1.136l-2.425 4.283c-.227.4-.735.541-1.135.315l-4.72-2.667c-.022-.013-.045-.025-.069-.037-1.222-.642-2.733-.17-3.375 1.053l-1.426 2.72-4.177-2.457c1.48-2.91 1.635-5.132.462-6.669z" transform="translate(-1050 -1344) translate(1026 1332) translate(24 12) translate(18 19)"/>
                        <path fill="#3D3E49" d="M6.582 12.289l4.852.04.754 20.908c.01.276-.205.508-.481.518h-.036l-5.265-.19c-.275-.01-.49-.241-.482-.516l.658-20.76z" transform="translate(-1050 -1344) translate(1026 1332) translate(24 12) translate(18 19) rotate(30 9.058 23.032)"/>
                    </g>
                </g>
            </g>
        </g>
    </g>
</svg>
