<svg xmlns="http://www.w3.org/2000/svg" width="62" height="72" viewBox="0 0 62 72">
    <g fill="none" fill-rule="evenodd">
        <g>
            <g>
                <g>
                    <path fill="#F5F8FA" d="M32.506.406l28 16.258C61.431 17.2 62 18.189 62 19.258v32.546c0 1.069-.569 2.057-1.494 2.594l-28 16.258c-.931.541-2.081.541-3.012 0l-28-16.258C.569 53.861 0 52.873 0 51.804V19.258c0-1.07.569-2.057 1.494-2.594l28-16.258c.931-.541 2.081-.541 3.012 0z" transform="translate(-1050 -672) translate(1026 660) translate(24 12)"/>
                    <g>
                        <g>
                            <path d="M0 0H36V36H0z" transform="translate(-1050 -672) translate(1026 660) translate(24 12) translate(13 18)"/>
                            <g>
                                <path fill="#3D3E49" d="M10.378 0c2.632.025 4.61.691 5.932 2 1.335 1.321 2.002 3.068 2.002 5.24.025 1.112-.239 2.174-.79 3.186-.281.481-.685.938-1.212 1.37-.526.457-1.175.87-1.947 1.241v.074c1.457.383 2.56 1.154 3.306 2.315.698 1.197 1.047 2.5 1.047 3.907-.024 2.334-.747 4.18-2.167 5.537-1.408 1.42-3.165 2.13-5.271 2.13H0V0zm-.074 15.019H4.06v8.11h6.245c1.506-.024 2.608-.438 3.306-1.24.698-.79 1.047-1.729 1.047-2.815 0-1.111-.349-2.062-1.047-2.852-.698-.778-1.8-1.179-3.306-1.203zm-.386-11.37H4.06v7.721h5.86c1.481 0 2.57-.389 3.269-1.166.71-.716 1.065-1.618 1.065-2.704s-.355-2.006-1.065-2.76c-.698-.703-1.788-1.067-3.27-1.092z" transform="translate(-1050 -672) translate(1026 660) translate(24 12) translate(13 18) translate(4.5 4.5)"/>
                                <path fill="#D0D0D8" d="M27 26V1c0-.552-.448-1-1-1h-3.06v27H26c.552 0 1-.448 1-1z" transform="translate(-1050 -672) translate(1026 660) translate(24 12) translate(13 18) translate(4.5 4.5)"/>
                            </g>
                        </g>
                    </g>
                </g>
            </g>
        </g>
    </g>
</svg>
