<svg xmlns="http://www.w3.org/2000/svg" width="62" height="72" viewBox="0 0 62 72">
    <g fill="none" fill-rule="evenodd">
        <g>
            <g>
                <g>
                    <path fill="#F5F8FA" d="M32.506.406l28 16.258C61.431 17.2 62 18.189 62 19.258v32.546c0 1.069-.569 2.057-1.494 2.594l-28 16.258c-.931.541-2.081.541-3.012 0l-28-16.258C.569 53.861 0 52.873 0 51.804V19.258c0-1.07.569-2.057 1.494-2.594l28-16.258c.931-.541 2.081-.541 3.012 0z" transform="translate(-755 -1122) translate(731 1110) translate(24 12)"/>
                    <g>
                        <g>
                            <path d="M0 0H36V36H0z" transform="translate(-755 -1122) translate(731 1110) translate(24 12) translate(13 18)"/>
                            <g fill="#D0D0D8">
                                <path d="M21 25.5L21 17.25 31.5 12 31.5 25.5zM10.5 25.5L10.5 17.25 21 12 21 25.5zM0 25.5L0 17.25 10.5 12 10.5 25.5z" transform="translate(-755 -1122) translate(731 1110) translate(24 12) translate(13 18) translate(2.25 7.5)"/>
                                <path d="M0 25.5L0 0 5.25 0 5.25 25.5z" transform="translate(-755 -1122) translate(731 1110) translate(24 12) translate(13 18) translate(2.25 7.5)"/>
                            </g>
                        </g>
                        <g fill="#3D3E49">
                            <path d="M10.948 6.813c-2.165 0-4.063 1.537-4.511 3.654l-2.222-.47c.67-3.161 3.501-5.455 6.733-5.455 3.232 0 6.064 2.294 6.733 5.455l-2.221.47c-.449-2.117-2.346-3.654-4.512-3.654z" transform="translate(-755 -1122) translate(731 1110) translate(24 12) translate(13 18) translate(10.5 3)"/>
                            <path d="M12.084 10.288L12.084 12.561 9.813 12.561 9.813 10.288zM4.062 2.308C6.058.798 8.439 0 10.948 0c2.51 0 4.89.798 6.887 2.308 1.93 1.46 3.373 3.536 4.061 5.843l-2.176.65c-.551-1.848-1.708-3.51-3.255-4.682-1.599-1.209-3.506-1.848-5.517-1.848-2.01 0-3.918.64-5.516 1.848C3.884 5.29 2.728 6.953 2.176 8.801L0 8.151c.689-2.307 2.131-4.383 4.062-5.843z" transform="translate(-755 -1122) translate(731 1110) translate(24 12) translate(13 18) translate(10.5 3)"/>
                        </g>
                    </g>
                </g>
            </g>
        </g>
    </g>
</svg>
