<svg width="62" height="72" viewBox="0 0 62 72" fill="none" xmlns="http://www.w3.org/2000/svg">
<path fill-rule="evenodd" clip-rule="evenodd" d="M29.4936 0.405633C30.425 -0.135211 31.575 -0.135211 32.5064 0.405633L60.5064 16.6637C61.431 17.2006 62 18.1889 62 19.2581V51.8038C62 52.873 61.431 53.8613 60.5064 54.3982L32.5064 70.6563C31.575 71.1971 30.425 71.1971 29.4936 70.6563L1.49359 54.3982C0.569001 53.8613 0 52.873 0 51.8038L0 19.2581C0 18.1889 0.569002 17.2006 1.49359 16.6637L29.4936 0.405633Z" fill="#F5F8FA"/>
<path fill-rule="evenodd" clip-rule="evenodd" d="M30.9998 13.5312L50.0524 24.5312V46.5312L30.9998 57.5312L11.9473 46.5312L11.9473 24.5312L30.9998 13.5312Z" fill="#D0D0D8"/>
<path fill-rule="evenodd" clip-rule="evenodd" d="M31.1244 21.5312L43.2487 28.5312V42.5312L31.1244 49.5312L19 42.5312L19 28.5312L31.1244 21.5312Z" fill="#3D3E49"/>
<path fill-rule="evenodd" clip-rule="evenodd" d="M31.1962 29.5312L36.3923 32.5312V38.5312L31.1962 41.5312L26 38.5312L26 32.5312L31.1962 29.5312Z" fill="#F5F8FA"/>
</svg>
