<svg width="62" height="72" viewBox="0 0 62 72" fill="none" xmlns="http://www.w3.org/2000/svg">
<g id="product_icon_Qing">
<path id="Shape" d="M32.506 0.405397L60.506 16.6634C61.4306 17.2001 61.9998 18.1883 62 19.2574V51.8034C61.9998 52.8725 61.4306 53.8607 60.506 54.3974L32.506 70.6554C31.5748 71.1959 30.4252 71.1959 29.494 70.6554L1.494 54.3974C0.569366 53.8607 0.000214853 52.8725 0 51.8034V19.2574C0.000214853 18.1883 0.569366 17.2001 1.494 16.6634L29.494 0.405397C30.4252 -0.135132 31.5748 -0.135132 32.506 0.405397Z" fill="#F5F8FA"/>
<g id="product_icon_AppCenter">
<path id="Polygon-2" d="M32.5064 0.405633L60.5064 16.6637C61.431 17.2006 62 18.1889 62 19.2581V51.8038C62 52.873 61.431 53.8613 60.5064 54.3982L32.5064 70.6563C31.575 71.1971 30.425 71.1971 29.4936 70.6563L1.49359 54.3982C0.569002 53.8613 0 52.873 0 51.8038V19.2581C0 18.1889 0.569002 17.2006 1.49359 16.6637L29.4936 0.405633C30.425 -0.135211 31.575 -0.135211 32.5064 0.405633Z" fill="#F5F8FA"/>
<g id="Group 58">
<path id="Combined Shape" fill-rule="evenodd" clip-rule="evenodd" d="M37.4407 35.238H37.4409V28.4584L31.0059 24.7366L35.9766 21.8668C36.9048 21.3309 38.0484 21.3309 38.9766 21.8668L48.8935 27.5923C49.8218 28.1282 50.3935 29.1186 50.3935 30.1904V41.6416C50.3935 42.7134 49.8218 43.7038 48.8935 44.2396L38.9766 49.9652C38.0484 50.5011 36.9048 50.5011 35.9766 49.9652L24.5596 43.3736V37.4414V35.238V33.7126L27.7799 31.8482L31.0002 33.7126V34.3916L31 34.3918V36.2963V38.1206L34.2203 39.985L37.4407 38.1206V35.238Z" fill="#D0D0D8"/>
<path id="Combined Shape_2" fill-rule="evenodd" clip-rule="evenodd" d="M31.0001 47.0989L24.5643 43.3766V37.4436V36.5961V33.7144L27.785 31.8497L31.0058 33.7144V35.5389V36.5961V36.9898V37.4436V38.1236L34.2265 39.9883L37.4473 38.1236V36.5961V34.3943V28.4594L26.0286 21.8669C25.1004 21.331 23.9568 21.331 23.0286 21.8669L13.11 27.5934C12.1818 28.1293 11.61 29.1197 11.61 30.1915L11.61 41.6446C11.61 42.7164 12.1818 43.7067 13.11 44.2426L23.0286 49.9692C23.9568 50.5051 25.1004 50.5051 26.0286 49.9692L31.0001 47.0989Z" fill="#3D3E49"/>
</g>
</g>
</g>
</svg>
