<svg xmlns="http://www.w3.org/2000/svg" width="62" height="72" viewBox="0 0 62 72">
    <g fill="none" fill-rule="evenodd">
        <g>
            <g>
                <g>
                    <path fill="#F5F8FA" d="M32.506.406l28 16.258C61.431 17.2 62 18.189 62 19.258v32.546c0 1.069-.569 2.057-1.494 2.594l-28 16.258c-.931.541-2.081.541-3.012 0l-28-16.258C.569 53.861 0 52.873 0 51.804V19.258c0-1.07.569-2.057 1.494-2.594l28-16.258c.931-.541 2.081-.541 3.012 0z" transform="translate(-1050 -1122) translate(1026 1110) translate(24 12)"/>
                    <g>
                        <g>
                            <g transform="translate(-1050 -1122) translate(1026 1110) translate(24 12) translate(11 16)">
                                <circle cx="20" cy="20" r="20" fill="#D0D0D8"/>
                                <path fill="#FFF" fill-rule="nonzero" d="M15.905 28.556c-4.741-2.261-6.74-7.963-4.467-12.657 2.277-4.701 8.003-6.732 12.661-4.475 4.702 2.277 6.732 8.003 4.475 12.661-.956 1.986-2.489 3.519-4.471 4.473l1.301 2.704c2.595-1.25 4.622-3.277 5.872-5.872 2.98-6.154.316-13.67-5.869-16.666-6.157-2.983-13.673-.318-16.669 5.867-2.999 6.191-.368 13.695 5.875 16.673l1.292-2.708z"/>
                                <path fill="#3D3E49" fill-rule="nonzero" d="M20 17.021c1.645 0 2.979 1.334 2.979 2.979 0 1.286-.815 2.382-1.957 2.799V40h-2V22.814c-1.165-.405-2-1.512-2-2.814 0-1.645 1.333-2.979 2.978-2.979z"/>
                            </g>
                        </g>
                    </g>
                </g>
            </g>
        </g>
    </g>
</svg>
