<svg width="62" height="72" viewBox="0 0 62 72" fill="none" xmlns="http://www.w3.org/2000/svg">
<g id="product_icon_domain name">
<path id="Polygon 2" fill-rule="evenodd" clip-rule="evenodd" d="M29.4936 0.405633C30.425 -0.135211 31.575 -0.135211 32.5064 0.405633L60.5064 16.6637C61.431 17.2006 62 18.1889 62 19.2581V51.8038C62 52.873 61.431 53.8613 60.5064 54.3982L32.5064 70.6563C31.575 71.1971 30.425 71.1971 29.4936 70.6563L1.49359 54.3982C0.569001 53.8613 0 52.873 0 51.8038L0 19.2581C0 18.1889 0.569002 17.2006 1.49359 16.6637L29.4936 0.405633Z" fill="#F5F8FA"/>
<g id="  04. &#230;&#156;&#141;&#229;&#138;&#161; / domain name">
<g id="&#231;&#188;&#150;&#231;&#187;&#132;">
<path id="Subtract" fill-rule="evenodd" clip-rule="evenodd" d="M48.999 32.0447C48.999 30.9372 48.105 30.0385 46.999 30.0385H14.999C13.897 30.0385 12.999 30.9372 12.999 32.0447V40.0697C12.999 41.1791 13.897 42.0759 14.999 42.0759H46.999C48.105 42.0759 48.999 41.1791 48.999 40.0697V32.0447ZM23.2989 37.4816L24.3067 33.091H25.6953L23.9668 39.4506H22.7949L21.4356 35.0835L20.0996 39.4506H18.9278L17.1934 33.091H18.5821L19.6074 37.4346L20.9082 33.091H21.9805L23.2989 37.4816ZM33.0168 37.4816L34.0246 33.091H35.4133L33.6848 39.4506H32.5129L31.1535 35.0835L29.8176 39.4506H28.6457L26.9114 33.091H28.3L29.3254 37.4346L30.6262 33.091H31.6985L33.0168 37.4816ZM43.7426 33.091L42.7348 37.4816L41.4164 33.091H40.3442L39.0434 37.4346L38.018 33.091H36.6293L38.3637 39.4506H39.5356L40.8715 35.0835L42.2309 39.4506H43.4028L45.1313 33.091H43.7426Z" fill="#324558"/>
<path id="Fill 3" fill-rule="evenodd" clip-rule="evenodd" d="M14.8711 27.975C17.1091 23.4589 21.1751 20.0162 26.0991 18.6199C24.7651 20.915 23.7631 24.1651 23.1811 27.975H14.8711Z" fill="#B6C2CD"/>
<path id="Fill 5" fill-rule="evenodd" clip-rule="evenodd" d="M47.1284 27.975H38.8184C38.2364 24.1651 37.2344 20.915 35.9004 18.6199C40.8244 20.0162 44.8924 23.4589 47.1284 27.975Z" fill="#B6C2CD"/>
<path id="Fill 7" fill-rule="evenodd" clip-rule="evenodd" d="M26.2422 27.975C27.2242 22.0526 29.1842 18 31.0002 18C32.8162 18 34.7782 22.0526 35.7582 27.975H26.2422Z" fill="#B6C2CD"/>
<path id="Fill 9" fill-rule="evenodd" clip-rule="evenodd" d="M14.8711 44.025H23.1811C23.7631 47.8349 24.7651 51.085 26.0991 53.3781C21.1751 51.9858 17.1091 48.5411 14.8711 44.025Z" fill="#B6C2CD"/>
<path id="Fill 11" fill-rule="evenodd" clip-rule="evenodd" d="M47.1284 44.025C44.8924 48.5411 40.8244 51.9858 35.9004 53.3781C37.2344 51.085 38.2364 47.8349 38.8184 44.025H47.1284Z" fill="#B6C2CD"/>
<path id="Fill 13" fill-rule="evenodd" clip-rule="evenodd" d="M26.2422 44.025H35.7582C34.7782 49.9475 32.8162 54.0001 31.0002 54.0001C29.1842 54.0001 27.2242 49.9475 26.2422 44.025Z" fill="#B6C2CD"/>
</g>
</g>
</g>
</svg>
