<svg width="62" height="72" viewBox="0 0 62 72" fill="none" xmlns="http://www.w3.org/2000/svg">
<g id="product_icon_host">
<path id="Polygon 2" fill-rule="evenodd" clip-rule="evenodd" d="M29.4936 0.874383C30.425 0.333539 31.575 0.333539 32.5064 0.874383L60.5064 17.1324C61.431 17.6693 62 18.6577 62 19.7268V52.2726C62 53.3417 61.431 54.3301 60.5064 54.8669L32.5064 71.125C31.575 71.6659 30.425 71.6659 29.4936 71.125L1.49359 54.8669C0.569001 54.3301 0 53.3417 0 52.2726L0 19.7268C0 18.6577 0.569002 17.6693 1.49359 17.1324L29.4936 0.874383Z" fill="#F5F8FA"/>
<path id="Shape" fill-rule="evenodd" clip-rule="evenodd" d="M18.3684 20H43.6316C45.4842 20 47 21.5158 47 23.3684V48.6316C47 50.4842 45.4842 52 43.6316 52H18.3684C16.5158 52 15 50.4842 15 48.6316V23.3684C15 21.5158 16.5158 20 18.3684 20Z" fill="#D0D0D8"/>
<rect id="Shape_2" x="25" y="30" width="12" height="12" fill="#3D3E49"/>
<path id="Shape_3" d="M11 29H15V27H11V29Z" fill="#3D3E49"/>
<path id="Shape_4" d="M11 37H15V35H11V37Z" fill="#3D3E49"/>
<path id="Shape_5" d="M11 45H15V43H11V45Z" fill="#3D3E49"/>
<path id="Shape_6" d="M47 29H51V27H47V29Z" fill="#3D3E49"/>
<path id="Shape_7" d="M47 37H51V35H47V37Z" fill="#3D3E49"/>
<path id="Shape_8" d="M47 45H51V43H47V45Z" fill="#3D3E49"/>
<path id="Shape_9" d="M38 16V20H40V16H38Z" fill="#3D3E49"/>
<path id="Shape_10" d="M30 16V20H32V16H30Z" fill="#3D3E49"/>
<path id="Shape_11" d="M22 16V20H24V16H22Z" fill="#3D3E49"/>
<path id="Shape_12" d="M38 52V56H40V52H38Z" fill="#3D3E49"/>
<path id="Shape_13" d="M30 52V56H32V52H30Z" fill="#3D3E49"/>
<path id="Shape_14" d="M22 52V56H24V52H22Z" fill="#3D3E49"/>
</g>
</svg>
