<svg xmlns="http://www.w3.org/2000/svg" width="62" height="72" viewBox="0 0 62 72">
    <g fill="none" fill-rule="evenodd">
        <g>
            <g>
                <g>
                    <path fill="#F5F8FA" d="M32.506.406l28 16.258C61.431 17.2 62 18.189 62 19.258v32.546c0 1.069-.569 2.057-1.494 2.594l-28 16.258c-.931.541-2.081.541-3.012 0l-28-16.258C.569 53.861 0 52.873 0 51.804V19.258c0-1.07.569-2.057 1.494-2.594l28-16.258c.931-.541 2.081-.541 3.012 0z" transform="translate(-755 -672) translate(731 660) translate(24 12)"/>
                    <g transform="translate(-755 -672) translate(731 660) translate(24 12) translate(9 20)">
                        <path fill="#D0D0D8" d="M34.435 10.989C34.148 3.924 28.6-.011 21.522 0 14.85.01 8.8 5.489 8.8 13.739v.55c-4.304 0-8.8 2.75-8.8 8.769 0 4.877 3.954 8.83 8.83 8.83h25.605c5.26 0 9.565-4.415 9.565-9.811 0-5.397-4.304-11.088-9.565-11.088z"/>
                        <rect width="4" height="8" x="8" y="20" fill="#3D3E49" rx="2"/>
                        <path fill="#3D3E49" d="M18 12c1.105 0 2 .895 2 2v12c0 1.105-.895 2-2 2s-2-.895-2-2V14c0-1.105.895-2 2-2zM26 15.944c1.105 0 2 .896 2 2V26c0 1.105-.895 2-2 2s-2-.895-2-2v-8.056c0-1.104.895-2 2-2zM34 8c1.105 0 2 .895 2 2v16c0 1.105-.895 2-2 2s-2-.895-2-2V10c0-1.105.895-2 2-2z"/>
                    </g>
                </g>
            </g>
        </g>
    </g>
</svg>
