<svg xmlns="http://www.w3.org/2000/svg" width="62" height="72" viewBox="0 0 62 72">
    <g fill="none" fill-rule="evenodd">
        <g>
            <g>
                <g>
                    <path fill="#F5F8FA" d="M32.506.406l28 16.258C61.431 17.2 62 18.189 62 19.258v32.546c0 1.069-.569 2.057-1.494 2.594l-28 16.258c-.931.541-2.081.541-3.012 0l-28-16.258C.569 53.861 0 52.873 0 51.804V19.258c0-1.07.569-2.057 1.494-2.594l28-16.258c.931-.541 2.081-.541 3.012 0z" transform="translate(-165 -1659) translate(141 1647) translate(24 12)"/>
                    <g fill-rule="nonzero">
                        <path fill="#D0D0D8" d="M.367.367h22c2.025 0 3.666 1.641 3.666 3.666v29.334c0 2.025-1.641 3.666-3.666 3.666h-22V.367zm5.5 25.666V29.7h14.666v-3.667H5.867zm7.333-5.5c4.05 0 7.333-3.283 7.333-7.333 0-4.05-3.283-7.333-7.333-7.333-4.05 0-7.333 3.283-7.333 7.333 0 4.05 3.283 7.333 7.333 7.333zm-5.424-6.416h2.337c.083 1.574.378 2.992.815 4.093-1.637-.743-2.845-2.265-3.152-4.093zm0-1.834c.307-1.828 1.515-3.35 3.152-4.093-.437 1.1-.732 2.52-.815 4.093H7.776zm10.848 0h-2.337c-.083-1.574-.378-2.992-.815-4.093 1.637.743 2.845 2.265 3.152 4.093zm0 1.834c-.307 1.828-1.515 3.35-3.152 4.093.437-1.1.732-2.52.815-4.093h2.337zm-6.673 0h2.498c-.164 2.67-1 4.583-1.249 4.583-.248 0-1.085-1.913-1.25-4.583zm0-1.834c.164-2.67 1-4.583 1.249-4.583.248 0 1.085 1.913 1.25 4.583h-2.5z" transform="translate(-165 -1659) translate(141 1647) translate(24 12) translate(18 17)"/>
                        <path fill="#324558" d="M5.867 26.033H20.534V29.700000000000003H5.867z" transform="translate(-165 -1659) translate(141 1647) translate(24 12) translate(18 17)"/>
                        <path fill="#3D3E49" d="M5.867 26.033H20.534V29.700000000000003H5.867z" transform="translate(-165 -1659) translate(141 1647) translate(24 12) translate(18 17)"/>
                    </g>
                </g>
            </g>
        </g>
    </g>
</svg>
