<?xml version="1.0" encoding="UTF-8"?>
<svg width="62px" height="72px" viewBox="0 0 62 72" version="1.1" xmlns="http://www.w3.org/2000/svg" xmlns:xlink="http://www.w3.org/1999/xlink">
    <!-- Generator: Sketch 61 (89581) - https://sketch.com -->
    <title>product_icon_service</title>
    <desc>Created with Sketch.</desc>
    <g id="文档" stroke="none" stroke-width="1" fill="none" fill-rule="evenodd">
        <g id="文档-目录1备份" transform="translate(-756.000000, -1448.000000)">
            <g id="分组复制备份-18" transform="translate(732.000000, 1436.000000)">
                <g id="product_icon_service" transform="translate(24.000000, 12.000000)">
                    <path d="M32.5064066,0.40563316 L60.5064066,16.6636977 C61.4309977,17.2005571 62,18.1889121 62,19.2580645 L62,51.8038265 C62,52.8729788 61.4309977,53.8613339 60.5064066,54.3981933 L32.5064066,70.6562578 C31.5749526,71.197102 30.4250474,71.197102 29.4935934,70.6562578 L1.49359345,54.3981933 C0.569002275,53.8613339 -9.10794175e-16,52.8729788 0,51.8038265 L0,19.2580645 C1.20133422e-15,18.1889121 0.569002275,17.2005571 1.49359345,16.6636977 L29.4935934,0.40563316 C30.4250474,-0.135211053 31.5749526,-0.135211053 32.5064066,0.40563316 Z" id="Polygon-2" fill="#F5F8FA"></path>
                    <g id="编组" transform="translate(14.000000, 19.000000)">
                        <path d="M29.8937198,11.6757447 L33.0555556,6.1706383 L31.6183575,4.72382979 L27.8097826,8.58680851 L24.7485507,5.51234043 L28.5714976,1.66382979 L26.9187198,1.34213628e-14 L21.557971,3.34212766 C20.2497747,4.16050481 19.4745791,5.61923485 19.5243357,7.16893617 L19.6033816,9.64297872 L1.02041063,28.3285106 C0.47846148,28.871551 0.173785228,29.6095936 0.173785228,30.3793617 C0.173785228,31.1491298 0.47846148,31.8871724 1.02041063,32.4302128 L1.02041063,32.4302128 C1.56012622,32.9780111 2.29480998,33.2861398 3.06123188,33.2861398 C3.82765379,33.2861398 4.56233755,32.9780111 5.10205314,32.4302128 L23.7137681,13.7446809 L25.9557971,13.8459574 C27.5685317,13.9218252 29.0882325,13.084309 29.8937198,11.6757447 L29.8937198,11.6757447 Z" id="Shape" fill="#D0D0D8" transform="translate(16.614670, 16.643070) rotate(-360.000000) translate(-16.614670, -16.643070) "></path>
                        <path d="M20.2226646,25.4016992 L24.9046121,20.7269377 L32.0043705,27.8018313 C32.6143393,28.4127875 33.0527237,29.1478313 33.0527237,30.0140426 C33.0527237,30.8802538 32.7097876,31.7107459 32.0998188,32.3217021 C30.8323826,33.5927392 28.5970453,33.7476299 27.329609,32.4765928 L20.2226646,25.4016992 Z" id="Shape" fill="#3D3E49" transform="translate(26.637694, 27.041447) rotate(-360.000000) translate(-26.637694, -27.041447) "></path>
                        <polygon id="Shape" fill="#3D3E49" transform="translate(7.690180, 8.001950) rotate(-360.000000) translate(-7.690180, -8.001950) " points="13.3979962 15.8736877 6.00361217 8.43709191 1.7821256 7.55957447 2.18097145e-14 1.66382979 1.53061594 0.130212766 7.65307971 1.66382979 7.98597554 6.45472854 15.3803596 13.8840902"></polygon>
                        <polygon id="Shape" fill="#3D3E49" transform="translate(20.545006, 21.007199) rotate(-360.000000) translate(-20.545006, -21.007199) " points="17.5024504 19.9580823 19.5059196 17.954613 23.5875622 22.0563152 21.5840929 24.0597844"></polygon>
                    </g>
                </g>
            </g>
        </g>
    </g>
</svg>