<svg width="48" height="48" viewBox="0 0 48 48" fill="none" xmlns="http://www.w3.org/2000/svg">
<path fill-rule="evenodd" clip-rule="evenodd" d="M39.999 18.057C41.105 18.057 41.999 18.953 41.999 20.057V28.057C41.999 29.163 41.105 30.057 39.999 30.057H7.99902C6.89702 30.057 5.99902 29.163 5.99902 28.057V20.057C5.99902 18.953 6.89702 18.057 7.99902 18.057H39.999Z" fill="#324558"/>
<path d="M16.2988 25.477L17.3066 21.1H18.6953L16.9668 27.4398H15.7949L14.4355 23.0863L13.0996 27.4398H11.9277L10.1934 21.1H11.582L12.6074 25.4301L13.9082 21.1H14.9805L16.2988 25.477Z" fill="white"/>
<path d="M26.0168 25.477L27.0246 21.1H28.4133L26.6848 27.4398H25.5129L24.1535 23.0863L22.8176 27.4398H21.6457L19.9113 21.1H21.3L22.3254 25.4301L23.6262 21.1H24.6984L26.0168 25.477Z" fill="white"/>
<path d="M35.7348 25.477L36.7426 21.1H38.1313L36.4027 27.4398H35.2309L33.8715 23.0863L32.5355 27.4398H31.3637L29.6293 21.1H31.018L32.0434 25.4301L33.3441 21.1H34.4164L35.7348 25.477Z" fill="white"/>
<path fill-rule="evenodd" clip-rule="evenodd" d="M7.87109 16C10.1091 11.498 14.1751 8.066 19.0991 6.674C17.7651 8.962 16.7631 12.202 16.1811 16H7.87109Z" fill="#B6C2CD"/>
<path fill-rule="evenodd" clip-rule="evenodd" d="M40.1289 16H31.8189C31.2369 12.202 30.2349 8.962 28.9009 6.674C33.8249 8.066 37.8929 11.498 40.1289 16" fill="#B6C2CD"/>
<path fill-rule="evenodd" clip-rule="evenodd" d="M19.2422 16C20.2242 10.096 22.1842 6.05602 24.0002 6.05602C25.8162 6.05602 27.7782 10.096 28.7582 16H19.2422Z" fill="#B6C2CD"/>
<path fill-rule="evenodd" clip-rule="evenodd" d="M7.87109 32H16.1811C16.7631 35.798 17.7651 39.038 19.0991 41.324C14.1751 39.936 10.1091 36.502 7.87109 32" fill="#B6C2CD"/>
<path fill-rule="evenodd" clip-rule="evenodd" d="M40.1289 32C37.8929 36.502 33.8249 39.936 28.9009 41.324C30.2349 39.038 31.2369 35.798 31.8189 32H40.1289Z" fill="#B6C2CD"/>
<path fill-rule="evenodd" clip-rule="evenodd" d="M19.2422 32H28.7582C27.7782 37.904 25.8162 41.944 24.0002 41.944C22.1842 41.944 20.2242 37.904 19.2422 32" fill="#B6C2CD"/>
</svg>
