<svg width="62" height="72" viewBox="0 0 62 72" fill="none" xmlns="http://www.w3.org/2000/svg">
<g id="product_icon_big_data">
<path id="Polygon 2" fill-rule="evenodd" clip-rule="evenodd" d="M29.4936 0.405633C30.425 -0.135211 31.575 -0.135211 32.5064 0.405633L60.5064 16.6637C61.431 17.2006 62 18.1889 62 19.2581V51.8038C62 52.873 61.431 53.8613 60.5064 54.3982L32.5064 70.6563C31.575 71.1971 30.425 71.1971 29.4936 70.6563L1.49359 54.3982C0.569001 53.8613 0 52.873 0 51.8038L0 19.2581C0 18.1889 0.569002 17.2006 1.49359 16.6637L29.4936 0.405633Z" fill="#F5F8FA"/>
<g id="Group 11">
<path id="Shape" fill-rule="evenodd" clip-rule="evenodd" d="M43.4348 30.9887C43.1478 23.9242 37.6 19.9887 30.5217 20C23.85 20.0107 17.8 25.4887 17.8 33.7387V34.2887C13.4957 34.2887 9 37.0387 9 43.058C9 47.9351 12.9536 51.8887 17.8307 51.8887H43.4348C48.6957 51.8887 53 47.4734 53 42.0768C53 36.6803 48.6957 30.9887 43.4348 30.9887Z" fill="#D0D0D8"/>
<rect id="Rectangle 31" x="17" y="40" width="4" height="8" rx="2" fill="#3D3E49"/>
<path id="Rectangle 31_2" fill-rule="evenodd" clip-rule="evenodd" d="M25 34C25 32.8954 25.8954 32 27 32C28.1046 32 29 32.8954 29 34V46C29 47.1046 28.1046 48 27 48C25.8954 48 25 47.1046 25 46V34Z" fill="#3D3E49"/>
<path id="Rectangle 31_3" fill-rule="evenodd" clip-rule="evenodd" d="M33 37.9453C33 36.8407 33.8954 35.9453 35 35.9453C36.1046 35.9453 37 36.8407 37 37.9453V46.0009C37 47.1055 36.1046 48.0009 35 48.0009C33.8954 48.0009 33 47.1055 33 46.0009V37.9453Z" fill="#3D3E49"/>
<path id="Rectangle 31_4" fill-rule="evenodd" clip-rule="evenodd" d="M41 30C41 28.8954 41.8954 28 43 28C44.1046 28 45 28.8954 45 30V46C45 47.1046 44.1046 48 43 48C41.8954 48 41 47.1046 41 46V30Z" fill="#3D3E49"/>
</g>
</g>
</svg>
