<svg width="62" height="72" viewBox="0 0 62 72" fill="none" xmlns="http://www.w3.org/2000/svg">
<path fill-rule="evenodd" clip-rule="evenodd" d="M29.4936 0.405633C30.425 -0.135211 31.575 -0.135211 32.5064 0.405633L60.5064 16.6637C61.431 17.2006 62 18.1889 62 19.2581V51.8038C62 52.873 61.431 53.8613 60.5064 54.3982L32.5064 70.6563C31.575 71.1971 30.425 71.1971 29.4936 70.6563L1.49359 54.3982C0.569001 53.8613 0 52.873 0 51.8038L0 19.2581C0 18.1889 0.569002 17.2006 1.49359 16.6637L29.4936 0.405633Z" fill="#F5F8FA"/>
<path d="M16.833 23.957H27.458L30.9997 26.7904H45.1663V48.0404H16.833V23.957Z" fill="#3D3E49"/>
<rect x="16.833" y="31.043" width="28.3333" height="17" fill="#D0D0D8"/>
<path d="M43.0507 20.75H42.8454L42.8055 20.9513L42.6317 21.8268C42.3668 21.9369 42.1173 22.0772 41.8893 22.246L41.0296 21.9546L40.8368 21.8893L40.7337 22.0648L39.7844 23.682L39.6784 23.8627L39.8376 23.9987L40.5219 24.583C40.5043 24.7179 40.4934 24.8568 40.4934 25C40.4934 25.1432 40.5043 25.2821 40.5219 25.417L39.8376 26.0013L39.6784 26.1373L39.7844 26.318L40.7337 27.9352L40.8368 28.1107L41.0296 28.0454L41.8893 27.754C42.1173 27.9228 42.3668 28.0631 42.6317 28.1732L42.8055 29.0487L42.8454 29.25H43.0507H44.9493H45.1546L45.1945 29.0487L45.3683 28.1732C45.6332 28.0631 45.8827 27.9228 46.1107 27.754L46.9704 28.0454L47.1632 28.1107L47.2663 27.9352L48.2156 26.318L48.3216 26.1373L48.1624 26.0013L47.4781 25.417C47.4957 25.2821 47.5066 25.1432 47.5066 25C47.5066 24.8568 47.4957 24.7179 47.4781 24.583L48.1624 23.9987L48.3216 23.8627L48.2156 23.682L47.2663 22.0648L47.1632 21.8893L46.9704 21.9546L46.1107 22.246C45.8827 22.0772 45.6332 21.9369 45.3683 21.8268L45.1945 20.9513L45.1546 20.75H44.9493H43.0507ZM45.25 25C45.25 25.6904 44.6904 26.25 44 26.25C43.3096 26.25 42.75 25.6904 42.75 25C42.75 24.3096 43.3096 23.75 44 23.75C44.6904 23.75 45.25 24.3096 45.25 25Z" fill="#3D3E49" stroke="#F5F8FA" stroke-width="0.5"/>
</svg>
