<svg xmlns="http://www.w3.org/2000/svg" width="62" height="72" viewBox="0 0 62 72">
    <g fill="none" fill-rule="evenodd">
        <g>
            <g>
                <g>
                    <path fill="#F5F8FA" d="M32.506.875l28 16.258c.925.537 1.494 1.525 1.494 2.594v32.546c0 1.069-.569 2.057-1.494 2.594l-28 16.258c-.931.541-2.081.541-3.012 0l-28-16.258C.569 54.33 0 53.342 0 52.273V19.727c0-1.069.569-2.057 1.494-2.594l28-16.258c.931-.541 2.081-.541 3.012 0z" transform="translate(-754 -258) translate(730 246) translate(24 12)"/>
                    <g>
                        <path fill="#D0D0D8" d="M10.488 15.814L12.488 15.814 12.488 39.588 10.488 39.588z" transform="translate(-754 -258) translate(730 246) translate(24 12) translate(12 17) rotate(-45 11.488 27.701)"/>
                        <path fill="#D0D0D8" d="M26.042 -0.431L28.042 -0.431 28.042 22.088 26.042 22.088z" transform="translate(-754 -258) translate(730 246) translate(24 12) translate(12 17) rotate(-45 27.042 10.828)"/>
                        <path fill="#D0D0D8" fill-rule="nonzero" d="M20 37L20 1 18 1 18 37z" transform="translate(-754 -258) translate(730 246) translate(24 12) translate(12 17)"/>
                        <path fill="#D0D0D8" fill-rule="nonzero" d="M35 20.219L3 20.219 3 18.219 35 18.219z" transform="translate(-754 -258) translate(730 246) translate(24 12) translate(12 17)"/>
                        <path fill="#3D3E49" d="M5.121 21.121c1.172-1.171 1.172-3.07 0-4.242-1.171-1.172-3.07-1.172-4.242 0-1.172 1.171-1.172 3.07 0 4.242 1.171 1.172 3.07 1.172 4.242 0zM21.121 5.121c1.172-1.171 1.172-3.07 0-4.242-1.171-1.172-3.07-1.172-4.242 0-1.172 1.171-1.172 3.07 0 4.242 1.171 1.172 3.07 1.172 4.242 0zM21.828 21.828c1.563-1.562 1.563-4.094 0-5.656-1.562-1.563-4.094-1.563-5.656 0-1.563 1.562-1.563 4.094 0 5.656 1.562 1.563 4.094 1.563 5.656 0zM21.121 37.121c1.172-1.171 1.172-3.07 0-4.242-1.171-1.172-3.07-1.172-4.242 0-1.172 1.171-1.172 3.07 0 4.242 1.171 1.172 3.07 1.172 4.242 0zM37.121 21.121c1.172-1.171 1.172-3.07 0-4.242-1.171-1.172-3.07-1.172-4.242 0-1.172 1.171-1.172 3.07 0 4.242 1.171 1.172 3.07 1.172 4.242 0z" transform="translate(-754 -258) translate(730 246) translate(24 12) translate(12 17)"/>
                    </g>
                </g>
            </g>
        </g>
    </g>
</svg>
