<svg xmlns="http://www.w3.org/2000/svg" width="62" height="72" viewBox="0 0 62 72">
    <g fill="none" fill-rule="evenodd">
        <g>
            <g>
                <g>
                    <path fill="#F5F8FA" d="M32.506.875l28 16.258c.925.537 1.494 1.525 1.494 2.594v32.546c0 1.069-.569 2.057-1.494 2.594l-28 16.258c-.931.541-2.081.541-3.012 0l-28-16.258C.569 54.33 0 53.342 0 52.273V19.727c0-1.069.569-2.057 1.494-2.594l28-16.258c.931-.541 2.081-.541 3.012 0z" transform="translate(-165 -1122) translate(141 1110) translate(24 12)"/>
                    <path fill="#D0D0D8" d="M31.66 16c-7.636.347-13.71 6.681-13.623 14.403v1.91L15 41.248l4.338 1.128v4.686c0 2.082 1.736 3.73 3.818 3.73h5.64L30.618 56l13.189-3.731-1.909-12.148c2.777-2.69 4.338-6.334 4.338-10.238C46.236 22.16 39.902 16 32.18 16h-.52z" transform="translate(-165 -1122) translate(141 1110) translate(24 12)"/>
                    <path fill="#3D3E49" d="M33.19 22l.114 1.377c.042.553.396 1.034.912 1.239h.017c.518.215 1.113.12 1.537-.247l1.044-.912 1.694 1.698-.911 1.043c-.367.425-.463 1.02-.247 1.538v.017c.213.518.7.87 1.259.911l1.391.101v2.383l-1.391.104c-.574.036-1.074.401-1.284.936v.017c-.215.518-.12 1.113.247 1.538l.911 1.043-1.683 1.687-1.043-.908c-.426-.365-1.02-.46-1.538-.243h-.017c-.519.218-.87.708-.912 1.27L33.19 38h-2.383l-.122-1.43c-.039-.564-.39-1.06-.911-1.283h-.017c-.518-.215-1.113-.12-1.538.247l-1.043.911-1.684-1.683.911-1.044c.367-.424.463-1.02.247-1.537v-.018c-.213-.517-.7-.87-1.259-.91L24 31.147v-2.383l1.391-.1c.571-.046 1.065-.418 1.266-.954l.051-.143c.145-.481.036-1.008-.298-1.394l-.91-1.044 1.714-1.67 1.043.912c.425.367 1.02.462 1.538.247l.125-.058c.448-.232.748-.681.786-1.19L30.807 22h2.383zm.532 6.278c-.951-.95-2.493-.95-3.444 0-.95.951-.95 2.493 0 3.444.951.95 2.493.95 3.444 0 .95-.951.95-2.493 0-3.444z" transform="translate(-165 -1122) translate(141 1110) translate(24 12)"/>
                </g>
            </g>
        </g>
    </g>
</svg>
