<svg xmlns="http://www.w3.org/2000/svg" width="62" height="72" viewBox="0 0 62 72">
    <g fill="none" fill-rule="evenodd">
        <g>
            <g>
                <g>
                    <path fill="#F5F8FA" d="M32.506.406l28 16.258C61.431 17.2 62 18.189 62 19.258v32.546c0 1.069-.569 2.057-1.494 2.594l-28 16.258c-.931.541-2.081.541-3.012 0l-28-16.258C.569 53.861 0 52.873 0 51.804V19.258c0-1.07.569-2.057 1.494-2.594l28-16.258c.931-.541 2.081-.541 3.012 0z" transform="translate(-460 -1122) translate(436 1110) translate(24 12)"/>
                    <g transform="translate(-460 -1122) translate(436 1110) translate(24 12) translate(11 18)">
                        <path fill="#D0D0D8" d="M31.304 9.99C31.044 3.567 26-.01 19.565 0 13.5.01 8 4.99 8 12.49v.5c-3.913 0-8 2.5-8 7.972 0 4.434 3.594 8.028 8.028 8.028h23.276c4.783 0 8.696-4.014 8.696-8.92S36.087 9.99 31.304 9.99z"/>
                        <rect width="6" height="20" x="25" y="12" fill="#3D3E49" rx="1" transform="rotate(-90 28 22)"/>
                        <rect width="6" height="20" x="25" y="5" fill="#3D3E49" rx="1" transform="rotate(-90 28 15)"/>
                        <rect width="6" height="20" x="25" y="19" fill="#3D3E49" rx="1" transform="rotate(-90 28 29)"/>
                        <circle cx="35" cy="22" r="1" fill="#FFF" transform="rotate(-90 35 22)"/>
                        <circle cx="35" cy="15" r="1" fill="#FFF" transform="rotate(-90 35 15)"/>
                        <circle cx="35" cy="29" r="1" fill="#FFF" transform="rotate(-90 35 29)"/>
                    </g>
                </g>
            </g>
        </g>
    </g>
</svg>
