<svg width="62" height="72" viewBox="0 0 62 72" fill="none" xmlns="http://www.w3.org/2000/svg">
<g id="product_icon_High availability">
<path id="Polygon 2" fill-rule="evenodd" clip-rule="evenodd" d="M29.4936 0.405633C30.425 -0.135211 31.575 -0.135211 32.5064 0.405633L60.5064 16.6637C61.431 17.2006 62 18.1889 62 19.2581V51.8038C62 52.873 61.431 53.8613 60.5064 54.3982L32.5064 70.6563C31.575 71.1971 30.425 71.1971 29.4936 70.6563L1.49359 54.3982C0.569001 53.8613 0 52.873 0 51.8038L0 19.2581C0 18.1889 0.569002 17.2006 1.49359 16.6637L29.4936 0.405633Z" fill="#F5F8FA"/>
<g id="&#233;&#171;&#152;&#229;&#143;&#175;&#231;&#148;&#168;">
<path id="Subtract" fill-rule="evenodd" clip-rule="evenodd" d="M51.785 24L31.0004 12L10.2158 24V48L31.0004 60L51.785 48V24ZM43 28.5L31 21L19 28.5V43.5L31 51L43 43.5V28.5Z" fill="#D0D0D8"/>
<g id="Group 58">
<path id="Rectangle 15" fill-rule="evenodd" clip-rule="evenodd" d="M31.9237 24.9219V36.9219H24.5391L31.9237 24.9219Z" fill="#3D3E49"/>
<path id="Rectangle 15 Copy" fill-rule="evenodd" clip-rule="evenodd" d="M30.0771 35.0742H37.4618L30.0771 47.0742V35.0742Z" fill="#3D3E49"/>
</g>
</g>
</g>
</svg>
