<svg xmlns="http://www.w3.org/2000/svg" width="62" height="72" viewBox="0 0 62 72">
    <g fill="none" fill-rule="evenodd">
        <g>
            <g>
                <g>
                    <path fill="#F5F8FA" d="M32.506.406l28 16.258C61.431 17.2 62 18.189 62 19.258v32.546c0 1.069-.569 2.057-1.494 2.594l-28 16.258c-.931.541-2.081.541-3.012 0l-28-16.258C.569 53.861 0 52.873 0 51.804V19.258c0-1.07.569-2.057 1.494-2.594l28-16.258c.931-.541 2.081-.541 3.012 0z" transform="translate(-460 -1659) translate(436 1647) translate(24 12)"/>
                    <g>
                        <g>
                            <path fill="#D0D0D8" d="M6.128 19.008l6.268-12.337c.193-.423.635-.676 1.1-.63l13.936.787c.342.036.647.232.82.527L41.84 30.653c.142.246.18.538.105.812s-.257.506-.505.646L21.226 43.668c-.516.297-1.175.122-1.474-.39L6.178 19.973c-.171-.295-.19-.654-.048-.965h-.002zm10.536-2.238c1.533.405 3.107-.495 3.528-2.015.198-.73.096-1.507-.285-2.16-.381-.653-1.009-1.128-1.743-1.318-1.533-.405-3.108.496-3.528 2.017-.199.73-.096 1.507.285 2.16.38.653 1.008 1.128 1.743 1.318v-.002z" transform="translate(-460 -1659) translate(436 1647) translate(24 12) translate(7 12)"/>
                            <path fill="#3D3E49" d="M16.948 22.613c.008.16.054.344.138.56.164.283.42.503.726.624l4.238 2.35-2.104 1.173c-.216.13-.374.339-.44.581-.057.243-.028.498.084.72.158.237.36.398.602.488.247.088.52.07.754-.048l2.74-1.508.49.87-2.746 1.53c-.223.134-.378.356-.428.61-.047.254-.01.516.102.748.158.237.356.398.592.484.243.085.512.067.742-.05l2.74-1.544.85 1.508c.492.786 1.162.941 2.012.47.42-.235.69-.517.81-.846.122-.33.078-.704-.132-1.122l-.834-1.48 2.76-1.538c.233-.14.387-.382.414-.652.029-.268-.01-.538-.114-.786-.141-.206-.345-.361-.58-.444-.246-.073-.51-.046-.736.074l-2.762 1.537-.504-.895 2.752-1.552c.225-.131.385-.35.442-.602.046-.255.013-.517-.094-.752-.141-.206-.345-.361-.58-.444-.246-.072-.51-.045-.736.075l-2.06 1.148.024-4.428c.032-.167.04-.362.028-.585-.015-.228-.087-.448-.21-.64-.169-.218-.393-.387-.65-.488-.238-.088-.564-.044-.982.125-.215.141-.383.342-.484.577-.102.239-.166.472-.19.696l.052 5.17-4.632-2.655c-.216-.1-.447-.16-.684-.179-.254-.023-.51.016-.744.113-.138.09-.26.182-.36.279-.1.089-.18.196-.236.316-.055.13-.079.271-.068.412h-.002z" transform="translate(-460 -1659) translate(436 1647) translate(24 12) translate(7 12)"/>
                            <path d="M0 0H48V48H0z" transform="translate(-460 -1659) translate(436 1647) translate(24 12) translate(7 12)"/>
                        </g>
                    </g>
                </g>
            </g>
        </g>
    </g>
</svg>
