<?xml version="1.0" encoding="UTF-8"?>
<svg width="24px" height="24px" viewBox="0 0 24 24" version="1.1" xmlns="http://www.w3.org/2000/svg" xmlns:xlink="http://www.w3.org/1999/xlink">
    <!-- Generator: Sketch 61 (89581) - https://sketch.com -->
    <title>book-open</title>
    <desc>Created with Sketch.</desc>
    <g id="book-open" stroke="none" stroke-width="1" fill="none" fill-rule="evenodd">
        <g fill-rule="nonzero">
            <rect id="矩形" fill="#000000" opacity="0" x="0" y="0" width="24" height="24"></rect>
            <g id="编组-15" transform="translate(4.000000, 6.000000)">
                <path d="M15.6175,0.00150850395 C14.0952778,0.0878973928 11.0697222,0.402341837 9.20194444,1.54567517 C9.07305556,1.62456406 9,1.76484184 9,1.9115085 L9,12.0190085 C9,12.3398418 9.35083333,12.5426196 9.64666667,12.3937307 C11.5683333,11.4265085 14.3475,11.1626196 15.7216667,11.0903974 C16.1908333,11.0656752 16.5555557,10.6895641 16.5555557,10.2387307 L16.5555557,0.854286282 C16.5558333,0.362341837 16.1291667,-0.0273803849 15.6175,0.00150850395 Z" id="形状" fill="#AEB8C1"></path>
                <path d="M7.35361111,1.54567517 C5.48611111,0.402341837 2.46055556,0.0881751706 0.938333333,0.00150850395 C0.426666667,-0.0273803849 -4.04121181e-13,0.362341837 -4.04121181e-13,0.854286282 L-4.04121181e-13,10.2390085 C-4.04121181e-13,10.6901196 0.364722222,11.0662307 0.833888889,11.0906752 C2.20861111,11.1628974 4.98916667,11.4270641 6.91083333,12.3948418 C7.20583333,12.5434529 7.55555556,12.3409529 7.55555556,12.0209529 L7.55555556,1.9065085 C7.55555556,1.75956406 7.48277778,1.62484184 7.35361111,1.54567517 Z" id="路径" fill="#3E464C"></path>
            </g>
        </g>
    </g>
</svg>