<svg xmlns="http://www.w3.org/2000/svg" width="23" height="23" viewBox="0 0 23 23">
    <g fill="none" fill-rule="evenodd">
        <g>
            <g>
                <g>
                    <g>
                        <g>
                            <g>
                                <path d="M0 0H23V23H0z" transform="translate(-62 -2157) translate(32 1652) translate(0 368) translate(18 96) translate(12 40) translate(0 1)"/>
                                <path fill="#3E464C" d="M5.854 8.854l5.438 5.438c.39.39 1.023.39 1.414 0l5.438-5.438c.195-.196.195-.512 0-.708C18.05 8.053 17.923 8 17.79 8H6.207c-.276 0-.5.224-.5.5 0 .133.053.26.147.354z" transform="translate(-62 -2157) translate(32 1652) translate(0 368) translate(18 96) translate(12 40) translate(0 1)"/>
                            </g>
                        </g>
                    </g>
                </g>
            </g>
        </g>
    </g>
</svg>
