<svg xmlns="http://www.w3.org/2000/svg" width="16" height="13" viewBox="0 0 16 13">
    <path fill="#FFF" fill-rule="nonzero" d="M13.086 12.378a.34.34 0 0 0-.27-.031 5.654 5.654 0 0 1-1.645.241c-2.667 0-4.829-1.815-4.829-4.054 0-2.239 2.162-4.054 4.83-4.054C13.837 4.48 16 6.295 16 8.534c0 1.237-.66 2.344-1.7 3.088a.249.249 0 0 0-.095.265l.227.872c.068.261-.066.364-.298.229l-1.048-.61zm-.325-4.484a.657.657 0 0 0 .656-.66.657.657 0 0 0-.656-.659.657.657 0 0 0-.655.66c0 .364.293.66.655.66zm-3.2 0a.657.657 0 0 0 .656-.66.657.657 0 0 0-.656-.659.657.657 0 0 0-.655.66c0 .364.293.66.655.66zm-1.83-3.82a.773.773 0 0 0 .77-.777.773.773 0 0 0-.77-.776.773.773 0 0 0-.772.776c0 .429.345.776.771.776zm-3.884 5.36a.466.466 0 0 0-.37.046l-1.243.73c-.274.161-.432.04-.35-.269l.273-1.024a.347.347 0 0 0-.133-.37C.785 7.655 0 6.334 0 4.859 0 2.175 2.598 0 5.802 0 8.7 0 11.1 1.777 11.534 4.1a6.481 6.481 0 0 0-.305-.007c-2.933 0-5.31 1.98-5.31 4.422 0 .414.068.815.195 1.196a6.812 6.812 0 0 1-2.268-.276zm.008-5.36a.773.773 0 0 0 .772-.777.773.773 0 0 0-.772-.776.773.773 0 0 0-.77.776c0 .429.345.776.77.776z" opacity=".3"/>
</svg>
