<svg xmlns="http://www.w3.org/2000/svg" width="17" height="14" viewBox="0 0 17 14">
    <g fill="#FFF" fill-rule="evenodd" opacity=".3">
        <path d="M11.903 6.414c-.223-.067-.376-.113-.259-.409.253-.64.28-1.194.005-1.59-.514-.74-1.922-.7-3.535-.02 0 0-.506.224-.377-.18.248-.805.21-1.478-.175-1.867-.876-.882-3.203.034-5.2 2.044C.869 5.9 0 7.495 0 8.876c0 2.64 3.36 4.245 6.648 4.245 4.31 0 7.176-2.523 7.176-4.526 0-1.21-1.012-1.897-1.92-2.18zm-5.246 5.76c-2.623.261-4.888-.933-5.059-2.669-.17-1.735 1.82-3.353 4.442-3.614 2.624-.262 4.888.933 5.058 2.668.17 1.736-1.818 3.354-4.441 3.616zM15.474 1.395A4.174 4.174 0 0 0 11.48.093a.611.611 0 0 0 .253 1.196 2.97 2.97 0 0 1 2.838.926c.74.825.94 1.952.624 2.94a.611.611 0 0 0 .39.77.605.605 0 0 0 .765-.396 4.247 4.247 0 0 0-.877-4.134"/>
        <path d="M13.358 2.69a2.033 2.033 0 0 0-1.945-.632.526.526 0 0 0 .218 1.028v.001a.995.995 0 0 1 .951.31c.248.276.315.653.208.984a.522.522 0 1 0 .994.324 2.067 2.067 0 0 0-.426-2.014M7.418 7.13c-1.248-.327-2.66.3-3.201 1.408-.552 1.13-.019 2.385 1.243 2.795 1.306.425 2.846-.226 3.381-1.446.528-1.193-.131-2.42-1.423-2.757zm-.953 2.886c-.254.408-.797.587-1.206.399-.404-.185-.523-.659-.269-1.057.25-.396.776-.572 1.182-.4.41.176.542.646.293 1.058zm.836-1.08c-.092.158-.295.234-.454.168-.156-.065-.205-.242-.116-.397.091-.155.286-.23.442-.168.158.058.215.237.128.396z"/>
    </g>
</svg>
