<svg xmlns="http://www.w3.org/2000/svg" width="125" height="32" viewBox="0 0 125 32">
    <g fill="none" fill-rule="evenodd">
        <g fill-rule="nonzero">
            <g>
                <g>
                    <g>
                        <g>
                            <g>
                                <g>
                                    <g fill="#00A971">
                                        <path d="M19.221 18.506L24.315 21.494 19.221 24.484zM19.623 17.801L24.714 14.812 24.714 20.785zM19.221 11.115L24.315 14.103 19.221 17.094zM.731 6.714L5.821 3.725 5.821 9.702zM.327 7.42L5.419 10.41.327 13.396zM.327 14.811L5.42 17.801.327 20.789zM19.221 3.723L24.316 6.714 19.221 9.704zM19.623 10.41L24.714 7.424 24.714 13.396zM13.325 6.714L18.418 3.725 18.418 9.7zM13.325 21.492L18.418 18.506 18.418 24.481zM7.027 3.018L12.119.03 12.119 6.005zM12.92.029L18.016 3.018 12.92 6.008zM12.92 22.202L18.016 25.19 12.92 28.179zM13.325 28.887L18.418 25.898 18.418 31.874zM6.622 18.506L11.718 21.494 6.622 24.484zM6.622 3.721L11.718 6.712 6.622 9.7zM.729 14.103L5.821 11.118 5.821 17.091zM.731 21.494L5.821 18.507 5.821 24.484zM7.027 25.191L12.119 22.202 12.119 28.179z" transform="translate(-140 -12) translate(0 10) translate(140) translate(0 2)"/>
                                    </g>
                                    <g fill="#FFF">
                                        <path d="M9.447 11.998c0 1.068-1.348 2.37-2.534 2.998 1.024.513 1.58.815 2.07 1.14.371.23.488.442.348.835-.094.303-.558.977-.906.977-.28 0-.443-.094-.862-.395-.697-.44-2.185-1.371-3.882-2.07-1.49-.603-3.349-2.207-3.349-3.485v-8.18C.332 2.213 3.308.05 4.867.05c1.604 0 4.58 2.162 4.58 3.767v8.18zm-6.814-.303c0 .814 1.512 1.929 2.234 1.929.767 0 2.279-1.115 2.279-1.929V4.117c0-.813-1.489-1.927-2.279-1.927-.722 0-2.234 1.114-2.234 1.927v7.578zM14.421 15.043c0 .28-.208.512-.512.512h-1.277c-.281 0-.512-.233-.512-.512V.772c0-.28.23-.51.512-.51h1.277c.303 0 .512.23.512.51v14.27zM19.583 5.28v9.763c0 .302-.232.512-.557.512h-1.164c-.278 0-.533-.21-.533-.512V.772c0-.28.255-.51.533-.51h.977c.372 0 .535.185.721.51l4.697 9.855V.772c0-.303.209-.51.513-.51h1.185c.303 0 .535.207.535.51v14.27c0 .303-.231.513-.535.513h-.952c-.35 0-.584-.257-.723-.512L19.583 5.28zM34.139 7.302c0-.28.255-.511.534-.511h2.838c.303 0 .743.442.743.72v4.487c0 1.557-2.929 3.765-4.534 3.765-1.558 0-4.558-2.208-4.558-3.765v-8.18c0-1.606 3.023-3.768 4.558-3.768 1 0 2.489.767 3.581 1.442.28.164.373.489.232.766l-.394.767c-.14.257-.512.35-.814.188-.837-.443-1.977-1.023-2.604-1.023-.697 0-2.256 1.114-2.256 1.927v7.578c0 .79 1.535 1.929 2.256 1.929.697 0 2.233-1.162 2.233-1.929V8.814h-1.28c-.279 0-.534-.234-.534-.512v-1h-.001zM42.671 11.695c0 .839 1.605 1.95 2.233 1.95.651 0 1.604-.509 2.441-.973.326-.163.721-.07.861.233l.372.767c.139.302.046.627-.209.766-1.07.65-2.372 1.325-3.464 1.325-1.513 0-4.535-2.067-4.535-3.765v-8.18c0-1.65 3-3.767 4.558-3.767.976 0 2.324.677 3.418 1.302.279.14.372.51.21.79l-.35.744c-.139.279-.512.37-.813.209-.838-.418-1.814-.93-2.465-.93-.652 0-2.256 1.116-2.256 1.95v7.579zM50.53 14.6V.772c0-.279.255-.51.535-.51h1.21c.3 0 .556.231.556.51v12.76h4.373c.301 0 .535.233.535.511v1c0 .28-.233.513-.535.513h-5.768c-.325 0-.906-.652-.906-.954zM67.83 11.998c0 1.604-2.977 3.765-4.582 3.765-1.558 0-4.534-2.14-4.534-3.765v-8.18c0-1.605 2.976-3.767 4.534-3.767 1.605 0 4.582 2.162 4.582 3.767v8.18zm-6.814-.303c0 .814 1.51 1.929 2.232 1.929.768 0 2.28-1.115 2.28-1.929V4.117c0-.813-1.489-1.927-2.28-1.927-.721 0-2.232 1.114-2.232 1.927v7.578zM74.92 15.763c-1.535 0-4.534-2.067-4.534-3.743V.77c0-.279.254-.51.535-.51h1.232c.301 0 .534.231.534.51V11.72c0 .815 1.513 1.927 2.233 1.927.722 0 2.232-1.112 2.232-1.927V.771c0-.279.21-.51.49-.51h1.277c.281 0 .536.231.536.51V12.02c0 1.626-3 3.743-4.535 3.743zM91.172 11.952c0 1.394-2.605 3.603-4.185 3.603h-3.628c-.652 0-1.115-.397-1.115-.862V1.167c0-.49.51-.906 1.115-.906h3.582c1.626 0 4.231 2.045 4.231 3.601v8.09zM88.87 4.188c0-.768-1.395-1.93-2.232-1.93h-2.092v11.297h2.14c.812 0 2.184-1.184 2.184-1.928v-7.44z" transform="translate(-140 -12) translate(0 10) translate(140) translate(0 2) translate(31.84 6.095)"/>
                                    </g>
                                </g>
                                <g>
                                    <g fill="#00A971">
                                        <path d="M19.221 18.506L24.315 21.494 19.221 24.484zM19.623 17.801L24.714 14.812 24.714 20.785zM19.221 11.115L24.315 14.103 19.221 17.094zM.731 6.714L5.821 3.725 5.821 9.702zM.327 7.42L5.419 10.41.327 13.396zM.327 14.811L5.42 17.801.327 20.789zM19.221 3.723L24.316 6.714 19.221 9.704zM19.623 10.41L24.714 7.424 24.714 13.396zM13.325 6.714L18.418 3.725 18.418 9.7zM13.325 21.492L18.418 18.506 18.418 24.481zM7.027 3.018L12.119.03 12.119 6.005zM12.92.029L18.016 3.018 12.92 6.008zM12.92 22.202L18.016 25.19 12.92 28.179zM13.325 28.887L18.418 25.898 18.418 31.874zM6.622 18.506L11.718 21.494 6.622 24.484zM6.622 3.721L11.718 6.712 6.622 9.7zM.729 14.103L5.821 11.118 5.821 17.091zM.731 21.494L5.821 18.507 5.821 24.484zM7.027 25.191L12.119 22.202 12.119 28.179z" transform="translate(-140 -12) translate(0 10) translate(140) translate(0 2)"/>
                                    </g>
                                    <g fill="#FFF">
                                        <path d="M9.447 11.998c0 1.068-1.348 2.37-2.534 2.998 1.024.513 1.58.815 2.07 1.14.371.23.488.442.348.835-.094.303-.558.977-.906.977-.28 0-.443-.094-.862-.395-.697-.44-2.185-1.371-3.882-2.07-1.49-.603-3.349-2.207-3.349-3.485v-8.18C.332 2.213 3.308.05 4.867.05c1.604 0 4.58 2.162 4.58 3.767v8.18zm-6.814-.303c0 .814 1.512 1.929 2.234 1.929.767 0 2.279-1.115 2.279-1.929V4.117c0-.813-1.489-1.927-2.279-1.927-.722 0-2.234 1.114-2.234 1.927v7.578zM14.421 15.043c0 .28-.208.512-.512.512h-1.277c-.281 0-.512-.233-.512-.512V.772c0-.28.23-.51.512-.51h1.277c.303 0 .512.23.512.51v14.27zM19.583 5.28v9.763c0 .302-.232.512-.557.512h-1.164c-.278 0-.533-.21-.533-.512V.772c0-.28.255-.51.533-.51h.977c.372 0 .535.185.721.51l4.697 9.855V.772c0-.303.209-.51.513-.51h1.185c.303 0 .535.207.535.51v14.27c0 .303-.231.513-.535.513h-.952c-.35 0-.584-.257-.723-.512L19.583 5.28zM34.139 7.302c0-.28.255-.511.534-.511h2.838c.303 0 .743.442.743.72v4.487c0 1.557-2.929 3.765-4.534 3.765-1.558 0-4.558-2.208-4.558-3.765v-8.18c0-1.606 3.023-3.768 4.558-3.768 1 0 2.489.767 3.581 1.442.28.164.373.489.232.766l-.394.767c-.14.257-.512.35-.814.188-.837-.443-1.977-1.023-2.604-1.023-.697 0-2.256 1.114-2.256 1.927v7.578c0 .79 1.535 1.929 2.256 1.929.697 0 2.233-1.162 2.233-1.929V8.814h-1.28c-.279 0-.534-.234-.534-.512v-1h-.001zM42.671 11.695c0 .839 1.605 1.95 2.233 1.95.651 0 1.604-.509 2.441-.973.326-.163.721-.07.861.233l.372.767c.139.302.046.627-.209.766-1.07.65-2.372 1.325-3.464 1.325-1.513 0-4.535-2.067-4.535-3.765v-8.18c0-1.65 3-3.767 4.558-3.767.976 0 2.324.677 3.418 1.302.279.14.372.51.21.79l-.35.744c-.139.279-.512.37-.813.209-.838-.418-1.814-.93-2.465-.93-.652 0-2.256 1.116-2.256 1.95v7.579zM50.53 14.6V.772c0-.279.255-.51.535-.51h1.21c.3 0 .556.231.556.51v12.76h4.373c.301 0 .535.233.535.511v1c0 .28-.233.513-.535.513h-5.768c-.325 0-.906-.652-.906-.954zM67.83 11.998c0 1.604-2.977 3.765-4.582 3.765-1.558 0-4.534-2.14-4.534-3.765v-8.18c0-1.605 2.976-3.767 4.534-3.767 1.605 0 4.582 2.162 4.582 3.767v8.18zm-6.814-.303c0 .814 1.51 1.929 2.232 1.929.768 0 2.28-1.115 2.28-1.929V4.117c0-.813-1.489-1.927-2.28-1.927-.721 0-2.232 1.114-2.232 1.927v7.578zM74.92 15.763c-1.535 0-4.534-2.067-4.534-3.743V.77c0-.279.254-.51.535-.51h1.232c.301 0 .534.231.534.51V11.72c0 .815 1.513 1.927 2.233 1.927.722 0 2.232-1.112 2.232-1.927V.771c0-.279.21-.51.49-.51h1.277c.281 0 .536.231.536.51V12.02c0 1.626-3 3.743-4.535 3.743zM91.172 11.952c0 1.394-2.605 3.603-4.185 3.603h-3.628c-.652 0-1.115-.397-1.115-.862V1.167c0-.49.51-.906 1.115-.906h3.582c1.626 0 4.231 2.045 4.231 3.601v8.09zM88.87 4.188c0-.768-1.395-1.93-2.232-1.93h-2.092v11.297h2.14c.812 0 2.184-1.184 2.184-1.928v-7.44z" transform="translate(-140 -12) translate(0 10) translate(140) translate(0 2) translate(31.84 6.095)"/>
                                    </g>
                                </g>
                            </g>
                        </g>
                    </g>
                </g>
            </g>
        </g>
    </g>
</svg>
