<?xml version="1.0" encoding="UTF-8"?>
<svg width="16px" height="16px" viewBox="0 0 16 16" version="1.1" xmlns="http://www.w3.org/2000/svg" xmlns:xlink="http://www.w3.org/1999/xlink">
    <!-- Generator: Sketch 61 (89581) - https://sketch.com -->
    <title>icon / Point out</title>
    <desc>Created with Sketch.</desc>
    <g id="icon-/-Point-out" stroke="none" stroke-width="1" fill="none" fill-rule="evenodd">
        <g id="icon-/-Point-out-" transform="translate(8.000000, 8.000000) rotate(-180.000000) translate(-8.000000, -8.000000) translate(0.000000, -0.000000)" fill-rule="nonzero">
            <rect id="矩形" fill="#000000" opacity="0" x="0" y="0" width="16" height="16"></rect>
            <path d="M13.8261858,6.61161333 L10.1089142,6.61161333 C11.5493136,1.29186013 9.11646703,1.02015634 9.11646703,1.02015634 C8.08532614,1.02015634 8.29908522,1.83550753 8.22110609,1.97143137 C8.22110609,4.5730275 5.45782759,6.61161333 5.45782759,6.61161333 L5.45782759,13.9892992 C5.45782759,14.7175415 6.45027472,14.9798277 6.83959475,14.9798277 L12.424784,14.9798277 C12.9504276,14.9798277 13.3784734,13.6013223 13.3784734,13.6013223 C14.7602565,8.90279589 14.7602565,7.50479973 14.7602565,7.50479973 C14.7602565,6.53404992 13.8261858,6.61161333 13.8261858,6.61161333 L13.8261858,6.61161333 L13.8261858,6.61161333 Z M3.93236586,6.61405743 L1.706483,6.61405743 C1.24679467,6.61405743 1.23971147,7.06556155 1.23971147,7.06556155 L1.6993998,14.5062288 C1.6993998,14.9798117 2.17379816,14.9798117 2.17379816,14.9798117 L4.10031598,14.9798117 C4.50165987,14.9798117 4.49811082,14.6665361 4.49811082,14.6665361 L4.49811082,7.17830111 C4.49811082,6.60683256 3.93236586,6.61405743 3.93236586,6.61405743 L3.93236586,6.61405743 L3.93236586,6.61405743 Z" id="形状" fill="#C6C8CF"></path>
        </g>
    </g>
</svg>