<svg width="62" height="72" viewBox="0 0 62 72" fill="none" xmlns="http://www.w3.org/2000/svg">
<g id="product_icon_ Audio and video">
<path id="Polygon 2" fill-rule="evenodd" clip-rule="evenodd" d="M29.4936 0.405633C30.425 -0.135211 31.575 -0.135211 32.5064 0.405633L60.5064 16.6637C61.431 17.2006 62 18.1889 62 19.2581V51.8038C62 52.873 61.431 53.8613 60.5064 54.3982L32.5064 70.6563C31.575 71.1971 30.425 71.1971 29.4936 70.6563L1.49359 54.3982C0.569001 53.8613 0 52.873 0 51.8038L0 19.2581C0 18.1889 0.569002 17.2006 1.49359 16.6637L29.4936 0.405633Z" fill="#F5F8FA"/>
<g id="Group 5728">
<g id="Group 5723">
<rect id="Rectangle 358" x="21.4541" y="19.7734" width="19.0909" height="32.4545" fill="#3D3E49"/>
<rect id="Rectangle 362" x="12.8633" y="28.3633" width="6.68182" height="6.68182" fill="#D0D0D8"/>
<rect id="Rectangle 366" x="12.8633" y="36.957" width="6.68182" height="6.68182" fill="#D0D0D8"/>
<rect id="Rectangle 368" x="12.8633" y="45.5469" width="6.68182" height="6.68182" fill="#D0D0D8"/>
<rect id="Rectangle 363" x="42.4541" y="28.3633" width="6.68182" height="6.68182" fill="#D0D0D8"/>
<rect id="Rectangle 367" x="42.4541" y="36.957" width="6.68182" height="6.68182" fill="#D0D0D8"/>
<rect id="Rectangle 369" x="42.4541" y="45.5469" width="6.68182" height="6.68182" fill="#D0D0D8"/>
<rect id="Rectangle 364" x="12.8633" y="19.7734" width="6.68182" height="6.68182" fill="#D0D0D8"/>
<rect id="Rectangle 365" x="42.4541" y="19.7734" width="6.68182" height="6.68182" fill="#D0D0D8"/>
<path id="Triangle" fill-rule="evenodd" clip-rule="evenodd" d="M37.1016 36.0007L27.1819 41.728V30.2734L37.1016 36.0007Z" fill="white"/>
</g>
</g>
</g>
</svg>
