<?xml version="1.0" encoding="UTF-8"?>
<svg width="24px" height="24px" viewBox="0 0 24 24" version="1.1" xmlns="http://www.w3.org/2000/svg" xmlns:xlink="http://www.w3.org/1999/xlink">
    <!-- Generator: Sketch 63.1 (92452) - https://sketch.com -->
    <title>搜索</title>
    <desc>Created with Sketch.</desc>
    <g id="搜索" stroke="none" stroke-width="1" fill="none" fill-rule="evenodd">
        <g transform="translate(2.000000, 2.000000)" fill-rule="nonzero">
            <rect id="矩形" fill="#000000" opacity="0" x="0" y="0" width="20" height="20"></rect>
            <path d="M17.6999997,17.6999995 C17.2999997,18.0999995 16.6999997,18.0999995 16.2999997,17.6999995 L13.1999998,14.5999996 C10.4999999,16.5999995 6.80000003,16.4999995 4.30000011,14.1999996 C1.5000002,11.5999997 1.3000002,6.99999984 4.00000013,4.19999994 C6.70000005,1.40000003 11.1999999,1.30000003 13.9999998,4.09999994 C16.4999997,6.59999986 16.6999997,10.4999997 14.5999998,13.1999997 L17.6999997,16.2999996 C18.0999997,16.6999995 18.0999997,17.2999995 17.6999997,17.6999995 Z M12.9999998,6.09999987 C10.9999999,3.29999997 6.90000002,3.29999997 4.90000008,6.09999987 C3.60000013,7.79999983 3.60000013,10.2999997 4.90000008,11.9999999 C6.90000002,14.7999996 10.9999999,14.7999996 12.9999998,11.9999999 C14.2999998,10.1999997 14.2999998,7.79999981 12.9999998,6.09999987 Z" id="形状" fill="#C6C8CF"></path>
        </g>
    </g>
</svg>