<svg xmlns="http://www.w3.org/2000/svg" xmlns:xlink="http://www.w3.org/1999/xlink" width="40" height="40" viewBox="0 0 40 40">
    <defs>
        <path id="prefix__a" d="M13 21c-3.314 0-6-2.686-6-6s2.686-6 6-6 6 2.686 6 6-2.686 6-6 6zm-4.993 2.221h9.986c2.9 0 5.384 2.074 5.903 4.927L25 34.22H1l1.104-6.073c.519-2.853 3.004-4.927 5.903-4.927z"/>
    </defs>
    <g fill="none" fill-rule="evenodd">
        <path d="M0 0H40V40H0z"/>
        <path fill="#443D4E" d="M27 17c-3.314 0-6-2.686-6-6s2.686-6 6-6 6 2.686 6 6-2.686 6-6 6zm-4.993 2.221h9.986c2.9 0 5.384 2.074 5.903 4.927L39 30.22H15l1.104-6.073c.519-2.853 3.004-4.927 5.903-4.927z"/>
        <use fill="#6DC99F" xlink:href="#prefix__a"/>
        <use fill="#86DBA2" xlink:href="#prefix__a"/>
    </g>
</svg>
