<svg width="412" height="212" viewBox="0 0 412 212" fill="none" xmlns="http://www.w3.org/2000/svg">
<rect width="412" height="212" fill="white"/>
<path d="M241.952 88.944V95.616H242.544V88.944H241.952ZM240.4 90.624V91.192H243.952V90.624H240.4ZM241.976 90.848C241.632 91.864 240.88 93.152 240.224 93.808C240.328 93.96 240.48 94.208 240.544 94.376C241.232 93.624 241.984 92.184 242.368 91.032L241.976 90.848ZM243.408 88.336C242.72 88.656 241.464 88.928 240.384 89.096C240.456 89.224 240.536 89.424 240.568 89.56C241.688 89.408 242.992 89.136 243.856 88.784L243.408 88.336ZM242.512 91.656L242.184 91.944C242.504 92.24 243.288 93.064 243.552 93.416L243.92 92.96C243.712 92.744 242.776 91.864 242.512 91.656ZM245.112 88.448C244.84 90.424 244.28 93.112 243.784 94.792L244.368 94.92C244.864 93.248 245.448 90.608 245.784 88.568L245.112 88.448ZM243.096 94.672L243.24 95.296C244.28 95.176 245.752 94.992 247.152 94.808L247.136 94.248C245.632 94.424 244.072 94.584 243.096 94.672ZM245.864 92.376C246.408 93.424 246.928 94.8 247.088 95.64L247.712 95.44C247.536 94.584 246.992 93.232 246.424 92.2L245.864 92.376ZM248.504 89.32V89.888H255.512V89.32H248.504ZM250.456 92.176V92.696H254.216V92.176H250.456ZM250.032 90.816V95.64H250.624V91.352H254.12V90.816H250.032ZM253.984 90.816V94.888C253.984 95.008 253.936 95.048 253.8 95.056C253.656 95.056 253.168 95.064 252.632 95.04C252.72 95.208 252.808 95.456 252.832 95.624C253.52 95.624 253.968 95.624 254.224 95.528C254.496 95.432 254.568 95.248 254.568 94.896V90.816H253.984ZM251.12 88.28C250.688 89.888 249.744 91.584 248.312 92.568C248.432 92.688 248.616 92.896 248.696 93.032C250.224 91.96 251.184 90.184 251.728 88.424L251.12 88.28ZM250.456 93.528V94.048H254.216V93.528H250.456ZM258.88 89.256C258.8 91.544 258.552 93.4 257.56 94.536C257.696 94.616 257.944 94.8 258.032 94.888C259.032 93.624 259.312 91.736 259.432 89.28L258.88 89.256ZM261 89.256C260.936 91.584 260.712 93.424 259.688 94.544C259.824 94.624 260.072 94.816 260.152 94.912C261.2 93.656 261.464 91.776 261.56 89.28L261 89.256ZM257.584 90.912C258.376 91.672 259.264 92.736 259.68 93.44L260.04 93.016C259.624 92.336 258.736 91.304 257.92 90.56L257.584 90.912ZM259.768 90.824C260.6 91.624 261.552 92.752 261.992 93.488L262.352 93.056C261.912 92.336 260.968 91.256 260.112 90.472L259.768 90.824ZM256.704 88.76V95.624H257.28V89.336H263.064V88.76H256.704ZM262.744 88.76V94.872C262.744 95 262.696 95.048 262.56 95.048C262.424 95.056 261.96 95.064 261.472 95.04C261.56 95.2 261.648 95.464 261.68 95.624C262.36 95.624 262.76 95.608 263 95.52C263.24 95.416 263.336 95.232 263.336 94.872V88.76H262.744ZM264.528 93.544C264.528 93.424 264.952 93.232 264.952 93.232V93.216C265.712 92.456 266.496 91.392 267.136 90.32L266.6 90C266.056 91.072 265.208 92.168 264.944 92.448C264.688 92.744 264.504 92.944 264.328 92.976C264.4 93.128 264.496 93.424 264.528 93.544ZM264.528 93.544C264.696 93.44 264.968 93.352 266.944 92.872C266.928 92.752 266.92 92.512 266.928 92.352L264.784 92.824L264.488 93.032L264.528 93.544ZM264.472 91.624C264.472 91.496 264.84 91.304 264.84 91.304V91.288C265.408 90.576 265.992 89.56 266.408 88.584L265.832 88.312C265.504 89.264 264.92 90.288 264.736 90.552C264.56 90.816 264.416 91 264.272 91.04C264.344 91.2 264.44 91.496 264.472 91.624ZM264.472 91.624C264.6 91.56 264.832 91.504 266.152 91.328C266.144 91.216 266.168 90.984 266.192 90.824L264.744 90.976L264.464 91.168L264.472 91.624ZM264.328 94.6L264.464 95.2C265.208 94.968 266.192 94.672 267.128 94.376L267.032 93.856C266.024 94.144 265 94.44 264.328 94.6ZM267.72 92.64V95.568H268.288V93.176H270.56V95.56H271.136V92.64H267.72ZM268.056 94.632V95.176H270.936V94.632H268.056ZM268.608 89.048L268.336 89.6H270.984V89.048H268.608ZM270.792 89.048V89.16C270.176 90.648 268.632 91.672 266.992 92.152C267.08 92.272 267.208 92.544 267.248 92.704C268.968 92.144 270.632 90.992 271.384 89.248L271.032 89.024L270.92 89.048H270.792ZM268.56 88.176C268.216 89.08 267.632 89.952 266.976 90.512C267.096 90.632 267.288 90.872 267.36 90.992C268.048 90.344 268.696 89.36 269.112 88.336L268.56 88.176ZM268.384 89.624L267.936 89.888C268.592 91.176 269.912 92.16 271.472 92.656C271.512 92.496 271.608 92.256 271.712 92.112C270.216 91.712 268.96 90.808 268.384 89.624Z" fill="black"/>
<path d="M299.952 88.944V95.616H300.544V88.944H299.952ZM298.4 90.624V91.192H301.952V90.624H298.4ZM299.976 90.848C299.632 91.864 298.88 93.152 298.224 93.808C298.328 93.96 298.48 94.208 298.544 94.376C299.232 93.624 299.984 92.184 300.368 91.032L299.976 90.848ZM301.408 88.336C300.72 88.656 299.464 88.928 298.384 89.096C298.456 89.224 298.536 89.424 298.568 89.56C299.688 89.408 300.992 89.136 301.856 88.784L301.408 88.336ZM300.512 91.656L300.184 91.944C300.504 92.24 301.288 93.064 301.552 93.416L301.92 92.96C301.712 92.744 300.776 91.864 300.512 91.656ZM303.112 88.448C302.84 90.424 302.28 93.112 301.784 94.792L302.368 94.92C302.864 93.248 303.448 90.608 303.784 88.568L303.112 88.448ZM301.096 94.672L301.24 95.296C302.28 95.176 303.752 94.992 305.152 94.808L305.136 94.248C303.632 94.424 302.072 94.584 301.096 94.672ZM303.864 92.376C304.408 93.424 304.928 94.8 305.088 95.64L305.712 95.44C305.536 94.584 304.992 93.232 304.424 92.2L303.864 92.376ZM306.504 89.32V89.888H313.512V89.32H306.504ZM308.456 92.176V92.696H312.216V92.176H308.456ZM308.032 90.816V95.64H308.624V91.352H312.12V90.816H308.032ZM311.984 90.816V94.888C311.984 95.008 311.936 95.048 311.8 95.056C311.656 95.056 311.168 95.064 310.632 95.04C310.72 95.208 310.808 95.456 310.832 95.624C311.52 95.624 311.968 95.624 312.224 95.528C312.496 95.432 312.568 95.248 312.568 94.896V90.816H311.984ZM309.12 88.28C308.688 89.888 307.744 91.584 306.312 92.568C306.432 92.688 306.616 92.896 306.696 93.032C308.224 91.96 309.184 90.184 309.728 88.424L309.12 88.28ZM308.456 93.528V94.048H312.216V93.528H308.456ZM316.88 89.256C316.8 91.544 316.552 93.4 315.56 94.536C315.696 94.616 315.944 94.8 316.032 94.888C317.032 93.624 317.312 91.736 317.432 89.28L316.88 89.256ZM319 89.256C318.936 91.584 318.712 93.424 317.688 94.544C317.824 94.624 318.072 94.816 318.152 94.912C319.2 93.656 319.464 91.776 319.56 89.28L319 89.256ZM315.584 90.912C316.376 91.672 317.264 92.736 317.68 93.44L318.04 93.016C317.624 92.336 316.736 91.304 315.92 90.56L315.584 90.912ZM317.768 90.824C318.6 91.624 319.552 92.752 319.992 93.488L320.352 93.056C319.912 92.336 318.968 91.256 318.112 90.472L317.768 90.824ZM314.704 88.76V95.624H315.28V89.336H321.064V88.76H314.704ZM320.744 88.76V94.872C320.744 95 320.696 95.048 320.56 95.048C320.424 95.056 319.96 95.064 319.472 95.04C319.56 95.2 319.648 95.464 319.68 95.624C320.36 95.624 320.76 95.608 321 95.52C321.24 95.416 321.336 95.232 321.336 94.872V88.76H320.744ZM322.528 93.544C322.528 93.424 322.952 93.232 322.952 93.232V93.216C323.712 92.456 324.496 91.392 325.136 90.32L324.6 90C324.056 91.072 323.208 92.168 322.944 92.448C322.688 92.744 322.504 92.944 322.328 92.976C322.4 93.128 322.496 93.424 322.528 93.544ZM322.528 93.544C322.696 93.44 322.968 93.352 324.944 92.872C324.928 92.752 324.92 92.512 324.928 92.352L322.784 92.824L322.488 93.032L322.528 93.544ZM322.472 91.624C322.472 91.496 322.84 91.304 322.84 91.304V91.288C323.408 90.576 323.992 89.56 324.408 88.584L323.832 88.312C323.504 89.264 322.92 90.288 322.736 90.552C322.56 90.816 322.416 91 322.272 91.04C322.344 91.2 322.44 91.496 322.472 91.624ZM322.472 91.624C322.6 91.56 322.832 91.504 324.152 91.328C324.144 91.216 324.168 90.984 324.192 90.824L322.744 90.976L322.464 91.168L322.472 91.624ZM322.328 94.6L322.464 95.2C323.208 94.968 324.192 94.672 325.128 94.376L325.032 93.856C324.024 94.144 323 94.44 322.328 94.6ZM325.72 92.64V95.568H326.288V93.176H328.56V95.56H329.136V92.64H325.72ZM326.056 94.632V95.176H328.936V94.632H326.056ZM326.608 89.048L326.336 89.6H328.984V89.048H326.608ZM328.792 89.048V89.16C328.176 90.648 326.632 91.672 324.992 92.152C325.08 92.272 325.208 92.544 325.248 92.704C326.968 92.144 328.632 90.992 329.384 89.248L329.032 89.024L328.92 89.048H328.792ZM326.56 88.176C326.216 89.08 325.632 89.952 324.976 90.512C325.096 90.632 325.288 90.872 325.36 90.992C326.048 90.344 326.696 89.36 327.112 88.336L326.56 88.176ZM326.384 89.624L325.936 89.888C326.592 91.176 327.912 92.16 329.472 92.656C329.512 92.496 329.608 92.256 329.712 92.112C328.216 91.712 326.96 90.808 326.384 89.624Z" fill="black"/>
<path d="M331.061 42.4545L333.004 47.9645H333.081L335.024 42.4545H335.855L333.452 49H332.634L330.23 42.4545H331.061ZM336.875 49V42.4545H339.086C339.6 42.4545 340.02 42.5472 340.346 42.7326C340.674 42.9158 340.917 43.1641 341.074 43.4773C341.232 43.7905 341.311 44.1399 341.311 44.5256C341.311 44.9112 341.232 45.2617 341.074 45.5771C340.919 45.8924 340.678 46.1438 340.352 46.3313C340.026 46.5167 339.608 46.6094 339.099 46.6094H337.514V45.9062H339.074C339.425 45.9062 339.707 45.8455 339.92 45.7241C340.134 45.6026 340.288 45.4386 340.384 45.2319C340.482 45.0231 340.531 44.7876 340.531 44.5256C340.531 44.2635 340.482 44.0291 340.384 43.8224C340.288 43.6158 340.132 43.4538 339.917 43.3366C339.702 43.2173 339.417 43.1577 339.061 43.1577H337.667V49H336.875ZM347.855 44.5H347.062C347.015 44.272 346.933 44.0717 346.816 43.8991C346.701 43.7266 346.56 43.5817 346.394 43.4645C346.23 43.3452 346.048 43.2557 345.847 43.196C345.647 43.1364 345.438 43.1065 345.221 43.1065C344.825 43.1065 344.466 43.2067 344.144 43.407C343.824 43.6072 343.57 43.9023 343.38 44.2923C343.193 44.6822 343.099 45.1605 343.099 45.7273C343.099 46.294 343.193 46.7724 343.38 47.1623C343.57 47.5522 343.824 47.8473 344.144 48.0476C344.466 48.2479 344.825 48.348 345.221 48.348C345.438 48.348 345.647 48.3182 345.847 48.2585C346.048 48.1989 346.23 48.1104 346.394 47.9933C346.56 47.8739 346.701 47.728 346.816 47.5554C346.933 47.3807 347.015 47.1804 347.062 46.9545H347.855C347.795 47.2891 347.686 47.5884 347.529 47.8526C347.371 48.1168 347.175 48.3416 346.941 48.527C346.706 48.7102 346.443 48.8498 346.151 48.9457C345.861 49.0415 345.551 49.0895 345.221 49.0895C344.663 49.0895 344.166 48.9531 343.732 48.6804C343.297 48.4077 342.955 48.0199 342.706 47.517C342.456 47.0142 342.332 46.4176 342.332 45.7273C342.332 45.0369 342.456 44.4403 342.706 43.9375C342.955 43.4347 343.297 43.0469 343.732 42.7741C344.166 42.5014 344.663 42.3651 345.221 42.3651C345.551 42.3651 345.861 42.413 346.151 42.5089C346.443 42.6048 346.706 42.7454 346.941 42.9308C347.175 43.114 347.371 43.3377 347.529 43.6019C347.686 43.864 347.795 44.1634 347.855 44.5ZM351.583 42.538C351.493 45.112 351.214 47.2 350.098 48.478C350.251 48.568 350.53 48.775 350.629 48.874C351.754 47.452 352.069 45.328 352.204 42.565L351.583 42.538ZM353.968 42.538C353.896 45.157 353.644 47.227 352.492 48.487C352.645 48.577 352.924 48.793 353.014 48.901C354.193 47.488 354.49 45.373 354.598 42.565L353.968 42.538ZM350.125 44.401C351.016 45.256 352.015 46.453 352.483 47.245L352.888 46.768C352.42 46.003 351.421 44.842 350.503 44.005L350.125 44.401ZM352.582 44.302C353.518 45.202 354.589 46.471 355.084 47.299L355.489 46.813C354.994 46.003 353.932 44.788 352.969 43.906L352.582 44.302ZM349.135 41.98V49.702H349.783V42.628H356.29V41.98H349.135ZM355.93 41.98V48.856C355.93 49 355.876 49.054 355.723 49.054C355.57 49.063 355.048 49.072 354.499 49.045C354.598 49.225 354.697 49.522 354.733 49.702C355.498 49.702 355.948 49.684 356.218 49.585C356.488 49.468 356.596 49.261 356.596 48.856V41.98H355.93ZM357.937 47.362C357.937 47.227 358.414 47.011 358.414 47.011V46.993C359.269 46.138 360.151 44.941 360.871 43.735L360.268 43.375C359.656 44.581 358.702 45.814 358.405 46.129C358.117 46.462 357.91 46.687 357.712 46.723C357.793 46.894 357.901 47.227 357.937 47.362ZM357.937 47.362C358.126 47.245 358.432 47.146 360.655 46.606C360.637 46.471 360.628 46.201 360.637 46.021L358.225 46.552L357.892 46.786L357.937 47.362ZM357.874 45.202C357.874 45.058 358.288 44.842 358.288 44.842V44.824C358.927 44.023 359.584 42.88 360.052 41.782L359.404 41.476C359.035 42.547 358.378 43.699 358.171 43.996C357.973 44.293 357.811 44.5 357.649 44.545C357.73 44.725 357.838 45.058 357.874 45.202ZM357.874 45.202C358.018 45.13 358.279 45.067 359.764 44.869C359.755 44.743 359.782 44.482 359.809 44.302L358.18 44.473L357.865 44.689L357.874 45.202ZM357.712 48.55L357.865 49.225C358.702 48.964 359.809 48.631 360.862 48.298L360.754 47.713C359.62 48.037 358.468 48.37 357.712 48.55ZM361.528 46.345V49.639H362.167V46.948H364.723V49.63H365.371V46.345H361.528ZM361.906 48.586V49.198H365.146V48.586H361.906ZM362.527 42.304L362.221 42.925H365.2V42.304H362.527ZM364.984 42.304V42.43C364.291 44.104 362.554 45.256 360.709 45.796C360.808 45.931 360.952 46.237 360.997 46.417C362.932 45.787 364.804 44.491 365.65 42.529L365.254 42.277L365.128 42.304H364.984ZM362.473 41.323C362.086 42.34 361.429 43.321 360.691 43.951C360.826 44.086 361.042 44.356 361.123 44.491C361.897 43.762 362.626 42.655 363.094 41.503L362.473 41.323ZM362.275 42.952L361.771 43.249C362.509 44.698 363.994 45.805 365.749 46.363C365.794 46.183 365.902 45.913 366.019 45.751C364.336 45.301 362.923 44.284 362.275 42.952Z" fill="black"/>
<path d="M120.334 152.914C120.561 153.4 120.669 153.862 120.659 154.298C120.649 154.735 120.535 155.12 120.318 155.455C120.101 155.791 119.796 156.05 119.403 156.233C119.009 156.417 118.615 156.484 118.219 156.435C117.822 156.385 117.454 156.224 117.113 155.952C116.772 155.679 116.488 155.3 116.261 154.813C116.034 154.326 115.926 153.865 115.936 153.428C115.947 152.992 116.06 152.606 116.277 152.271C116.494 151.936 116.799 151.677 117.193 151.493C117.586 151.31 117.981 151.243 118.377 151.292C118.773 151.341 119.141 151.502 119.482 151.775C119.823 152.047 120.107 152.427 120.334 152.914ZM119.794 153.166C119.607 152.766 119.383 152.46 119.121 152.248C118.861 152.034 118.585 151.91 118.292 151.875C118.001 151.839 117.716 151.886 117.436 152.016C117.157 152.146 116.937 152.335 116.776 152.582C116.616 152.828 116.534 153.12 116.528 153.457C116.524 153.793 116.615 154.161 116.802 154.561C116.988 154.96 117.211 155.267 117.472 155.48C117.734 155.692 118.01 155.817 118.301 155.853C118.594 155.888 118.88 155.841 119.159 155.711C119.438 155.58 119.658 155.392 119.817 155.146C119.978 154.899 120.061 154.607 120.065 154.271C120.07 153.934 119.98 153.565 119.794 153.166ZM122.883 156.114L120.664 151.356L121.177 151.116L121.434 151.666L121.497 151.636C121.508 151.558 121.526 151.456 121.552 151.331C121.578 151.203 121.64 151.072 121.736 150.938C121.833 150.801 121.995 150.68 122.22 150.575C122.511 150.439 122.802 150.392 123.092 150.434C123.382 150.477 123.652 150.602 123.902 150.811C124.151 151.021 124.36 151.307 124.53 151.67C124.701 152.037 124.786 152.384 124.787 152.711C124.787 153.036 124.711 153.324 124.559 153.574C124.406 153.823 124.185 154.014 123.897 154.149C123.675 154.252 123.48 154.298 123.312 154.287C123.143 154.274 123.001 154.238 122.884 154.177C122.767 154.114 122.675 154.06 122.606 154.016L122.561 154.037L123.414 155.866L122.883 156.114ZM121.993 152.842C122.115 153.104 122.261 153.316 122.431 153.48C122.6 153.643 122.784 153.746 122.984 153.79C123.183 153.833 123.389 153.804 123.602 153.705C123.825 153.601 123.983 153.456 124.077 153.269C124.172 153.081 124.21 152.869 124.192 152.634C124.175 152.397 124.109 152.156 123.994 151.909C123.88 151.666 123.741 151.464 123.574 151.304C123.409 151.142 123.225 151.038 123.021 150.994C122.819 150.948 122.605 150.977 122.379 151.082C122.163 151.183 122.007 151.323 121.911 151.501C121.814 151.678 121.774 151.881 121.79 152.112C121.805 152.34 121.873 152.584 121.993 152.842ZM127.628 152.409C127.294 152.564 126.972 152.625 126.662 152.591C126.352 152.554 126.07 152.433 125.816 152.228C125.562 152.021 125.352 151.74 125.187 151.386C125.022 151.031 124.941 150.689 124.944 150.358C124.948 150.026 125.031 149.729 125.193 149.469C125.356 149.206 125.593 149.002 125.906 148.857C126.086 148.773 126.278 148.72 126.481 148.698C126.685 148.676 126.891 148.699 127.098 148.767C127.304 148.833 127.502 148.957 127.691 149.138C127.879 149.319 128.049 149.571 128.199 149.893L128.304 150.119L125.637 151.363L125.423 150.903L127.549 149.911C127.458 149.716 127.338 149.56 127.188 149.443C127.04 149.326 126.874 149.256 126.69 149.234C126.508 149.211 126.32 149.245 126.128 149.334C125.916 149.433 125.758 149.571 125.652 149.748C125.547 149.923 125.492 150.113 125.487 150.319C125.483 150.524 125.525 150.722 125.614 150.913L125.756 151.219C125.878 151.48 126.027 151.681 126.202 151.821C126.377 151.958 126.568 152.036 126.775 152.055C126.98 152.073 127.19 152.031 127.405 151.931C127.545 151.866 127.662 151.788 127.756 151.696C127.852 151.602 127.922 151.497 127.967 151.378C128.012 151.259 128.029 151.128 128.018 150.987L128.599 150.892C128.626 151.091 128.607 151.287 128.541 151.479C128.474 151.669 128.364 151.844 128.211 152.006C128.056 152.165 127.862 152.3 127.628 152.409ZM129.397 148.962L130.368 151.044L129.836 151.292L128.222 147.831L128.736 147.592L128.988 148.132L129.033 148.111C129.032 147.898 129.09 147.699 129.205 147.515C129.32 147.33 129.508 147.177 129.769 147.055C130.004 146.946 130.231 146.898 130.452 146.912C130.671 146.925 130.875 147.005 131.063 147.154C131.251 147.3 131.413 147.521 131.55 147.815L132.575 150.014L132.044 150.262L131.035 148.099C130.908 147.827 130.739 147.649 130.527 147.563C130.315 147.475 130.085 147.489 129.839 147.604C129.669 147.683 129.535 147.791 129.435 147.927C129.337 148.062 129.283 148.218 129.272 148.395C129.261 148.572 129.303 148.761 129.397 148.962ZM131.335 144.975L134.516 148.221L134.57 148.196L134.128 143.673L134.714 143.4L135.171 148.804L134.595 149.073L130.749 145.249L131.335 144.975ZM137.584 147.678L135.433 143.065L136.992 142.338C137.354 142.169 137.68 142.096 137.971 142.12C138.262 142.141 138.515 142.236 138.729 142.405C138.943 142.574 139.114 142.794 139.24 143.066C139.367 143.338 139.427 143.611 139.419 143.885C139.413 144.159 139.326 144.415 139.158 144.654C138.989 144.892 138.725 145.095 138.366 145.262L137.249 145.783L137.018 145.288L138.117 144.775C138.365 144.659 138.544 144.524 138.654 144.368C138.765 144.212 138.82 144.046 138.819 143.869C138.82 143.689 138.777 143.507 138.691 143.323C138.605 143.138 138.493 142.989 138.356 142.875C138.22 142.761 138.058 142.698 137.867 142.686C137.676 142.673 137.456 142.725 137.205 142.842L136.222 143.3L138.143 147.418L137.584 147.678ZM143.118 139.481L145.27 144.095L144.729 144.347L140.526 141.896L140.481 141.917L142.17 145.54L141.611 145.801L139.46 141.187L140 140.935L144.217 143.39L144.262 143.369L142.569 139.737L143.118 139.481ZM145.695 138.016L146.784 144.233L146.297 144.46L145.208 138.243L145.695 138.016ZM148.649 142.519L146.498 137.905L148.057 137.178C148.419 137.009 148.745 136.936 149.036 136.96C149.327 136.981 149.58 137.076 149.794 137.245C150.008 137.414 150.179 137.635 150.306 137.907C150.432 138.178 150.492 138.451 150.484 138.725C150.478 138.999 150.391 139.255 150.223 139.495C150.054 139.732 149.79 139.935 149.431 140.102L148.314 140.623L148.083 140.128L149.182 139.615C149.43 139.5 149.609 139.364 149.719 139.208C149.83 139.053 149.885 138.886 149.884 138.709C149.885 138.53 149.842 138.348 149.756 138.163C149.67 137.978 149.558 137.829 149.421 137.716C149.286 137.601 149.123 137.538 148.932 137.526C148.742 137.513 148.521 137.565 148.27 137.682L147.288 138.14L149.208 142.258L148.649 142.519ZM152.676 140.641L150.525 136.027L152.084 135.3C152.446 135.131 152.772 135.059 153.063 135.082C153.354 135.103 153.607 135.199 153.821 135.367C154.035 135.536 154.206 135.757 154.333 136.029C154.459 136.301 154.519 136.574 154.511 136.848C154.505 137.121 154.418 137.377 154.25 137.617C154.081 137.855 153.817 138.057 153.459 138.225L152.341 138.746L152.11 138.25L153.209 137.737C153.457 137.622 153.636 137.486 153.747 137.331C153.857 137.175 153.912 137.008 153.911 136.831C153.912 136.652 153.869 136.47 153.783 136.285C153.697 136.1 153.585 135.951 153.448 135.838C153.313 135.724 153.15 135.661 152.959 135.649C152.769 135.635 152.548 135.687 152.297 135.804L151.315 136.262L153.235 140.38L152.676 140.641ZM154.531 134.762L154.3 134.267L157.76 132.653L157.991 133.149L156.54 133.825L158.461 137.944L157.902 138.204L155.981 134.086L154.531 134.762ZM160.774 136.865L158.622 132.251L160.181 131.524C160.543 131.355 160.87 131.283 161.16 131.306C161.452 131.327 161.705 131.423 161.919 131.592C162.133 131.761 162.303 131.981 162.43 132.253C162.557 132.525 162.616 132.798 162.609 133.072C162.603 133.345 162.516 133.601 162.348 133.841C162.179 134.079 161.915 134.281 161.556 134.449L160.439 134.97L160.207 134.474L161.307 133.961C161.555 133.846 161.734 133.71 161.844 133.555C161.954 133.399 162.009 133.233 162.009 133.055C162.009 132.876 161.966 132.694 161.88 132.509C161.794 132.324 161.683 132.175 161.546 132.062C161.41 131.948 161.247 131.885 161.057 131.873C160.866 131.859 160.645 131.911 160.394 132.028L159.412 132.486L161.332 136.604L160.774 136.865Z" fill="black"/>
<path d="M105.912 101.455C105.912 101.991 105.815 102.455 105.621 102.847C105.427 103.238 105.161 103.539 104.823 103.751C104.485 103.964 104.099 104.07 103.665 104.07C103.231 104.07 102.844 103.964 102.506 103.751C102.168 103.539 101.902 103.238 101.708 102.847C101.515 102.455 101.418 101.991 101.418 101.455C101.418 100.918 101.515 100.454 101.708 100.062C101.902 99.6714 102.168 99.3698 102.506 99.1577C102.844 98.9455 103.231 98.8395 103.665 98.8395C104.099 98.8395 104.485 98.9455 104.823 99.1577C105.161 99.3698 105.427 99.6714 105.621 100.062C105.815 100.454 105.912 100.918 105.912 101.455ZM105.315 101.455C105.315 101.014 105.242 100.642 105.094 100.338C104.948 100.035 104.75 99.8056 104.5 99.6499C104.251 99.4941 103.973 99.4162 103.665 99.4162C103.357 99.4162 103.077 99.4941 102.827 99.6499C102.578 99.8056 102.38 100.035 102.233 100.338C102.087 100.642 102.014 101.014 102.014 101.455C102.014 101.895 102.087 102.267 102.233 102.571C102.38 102.874 102.578 103.103 102.827 103.259C103.077 103.415 103.357 103.493 103.665 103.493C103.973 103.493 104.251 103.415 104.5 103.259C104.75 103.103 104.948 102.874 105.094 102.571C105.242 102.267 105.315 101.895 105.315 101.455ZM106.869 105.432V100.182H107.436V100.788H107.505C107.548 100.722 107.608 100.638 107.684 100.535C107.762 100.43 107.873 100.338 108.017 100.256C108.163 100.174 108.36 100.132 108.609 100.132C108.931 100.132 109.214 100.212 109.459 100.373C109.704 100.534 109.896 100.762 110.033 101.057C110.171 101.352 110.24 101.7 110.24 102.101C110.24 102.505 110.171 102.856 110.033 103.152C109.896 103.447 109.705 103.676 109.462 103.838C109.218 103.999 108.937 104.08 108.619 104.08C108.374 104.08 108.177 104.039 108.03 103.958C107.882 103.875 107.769 103.781 107.689 103.677C107.61 103.571 107.548 103.483 107.505 103.413H107.456V105.432H106.869ZM107.446 102.091C107.446 102.379 107.488 102.634 107.572 102.854C107.657 103.073 107.78 103.244 107.943 103.369C108.105 103.491 108.304 103.553 108.539 103.553C108.785 103.553 108.989 103.488 109.153 103.359C109.319 103.228 109.443 103.052 109.526 102.832C109.611 102.61 109.653 102.363 109.653 102.091C109.653 101.822 109.612 101.58 109.529 101.365C109.448 101.148 109.324 100.976 109.158 100.85C108.994 100.723 108.788 100.659 108.539 100.659C108.301 100.659 108.1 100.72 107.938 100.841C107.775 100.96 107.653 101.127 107.57 101.343C107.487 101.556 107.446 101.806 107.446 102.091ZM112.735 104.08C112.368 104.08 112.05 103.998 111.783 103.836C111.518 103.672 111.314 103.443 111.169 103.15C111.027 102.855 110.956 102.512 110.956 102.121C110.956 101.73 111.027 101.385 111.169 101.087C111.314 100.787 111.514 100.553 111.771 100.386C112.029 100.217 112.331 100.132 112.676 100.132C112.875 100.132 113.071 100.165 113.265 100.232C113.459 100.298 113.635 100.406 113.794 100.555C113.953 100.702 114.08 100.898 114.175 101.141C114.269 101.385 114.316 101.685 114.316 102.041V102.29H111.373V101.783H113.72C113.72 101.567 113.677 101.375 113.591 101.206C113.506 101.037 113.385 100.904 113.228 100.806C113.072 100.708 112.888 100.659 112.676 100.659C112.442 100.659 112.24 100.717 112.069 100.833C111.9 100.947 111.77 101.097 111.679 101.281C111.588 101.464 111.542 101.662 111.542 101.872V102.21C111.542 102.499 111.592 102.743 111.691 102.944C111.792 103.142 111.933 103.294 112.112 103.398C112.29 103.501 112.498 103.553 112.735 103.553C112.89 103.553 113.029 103.531 113.153 103.488C113.279 103.443 113.388 103.377 113.479 103.289C113.57 103.2 113.64 103.089 113.69 102.956L114.257 103.115C114.197 103.307 114.097 103.476 113.956 103.622C113.815 103.766 113.641 103.879 113.434 103.96C113.227 104.04 112.994 104.08 112.735 104.08ZM115.795 101.703V104H115.209V100.182H115.776V100.778H115.825C115.915 100.585 116.051 100.429 116.233 100.311C116.415 100.192 116.651 100.132 116.939 100.132C117.197 100.132 117.424 100.185 117.618 100.291C117.811 100.396 117.962 100.555 118.07 100.768C118.178 100.981 118.232 101.249 118.232 101.574V104H117.645V101.614C117.645 101.314 117.567 101.08 117.411 100.913C117.255 100.744 117.042 100.659 116.77 100.659C116.583 100.659 116.415 100.7 116.268 100.781C116.122 100.862 116.007 100.981 115.922 101.136C115.838 101.292 115.795 101.481 115.795 101.703ZM119.236 98.9091L120.748 103.195H120.807L122.319 98.9091H122.965L121.096 104H120.459L118.59 98.9091H119.236ZM123.758 104V98.9091H125.478C125.878 98.9091 126.204 98.9812 126.458 99.1254C126.713 99.2679 126.902 99.4609 127.024 99.7045C127.147 99.9482 127.208 100.22 127.208 100.52C127.208 100.82 127.147 101.092 127.024 101.338C126.903 101.583 126.716 101.779 126.463 101.924C126.209 102.069 125.884 102.141 125.488 102.141H124.255V101.594H125.468C125.742 101.594 125.961 101.547 126.127 101.452C126.293 101.358 126.413 101.23 126.487 101.069C126.564 100.907 126.602 100.724 126.602 100.52C126.602 100.316 126.564 100.134 126.487 99.973C126.413 99.8123 126.292 99.6863 126.125 99.5952C125.957 99.5024 125.735 99.456 125.458 99.456H124.375V104H123.758ZM132.238 98.9091V104H131.642L128.868 100.003H128.818V104H128.201V98.9091H128.798L131.582 102.916H131.632V98.9091H132.238ZM135.192 98.6705L133.551 104.766H133.015L134.655 98.6705H135.192ZM135.967 104V98.9091H137.687C138.087 98.9091 138.413 98.9812 138.667 99.1254C138.922 99.2679 139.111 99.4609 139.233 99.7045C139.356 99.9482 139.417 100.22 139.417 100.52C139.417 100.82 139.356 101.092 139.233 101.338C139.112 101.583 138.925 101.779 138.672 101.924C138.418 102.069 138.093 102.141 137.697 102.141H136.464V101.594H137.677C137.951 101.594 138.17 101.547 138.336 101.452C138.502 101.358 138.622 101.23 138.696 101.069C138.773 100.907 138.811 100.724 138.811 100.52C138.811 100.316 138.773 100.134 138.696 99.973C138.622 99.8123 138.501 99.6863 138.334 99.5952C138.166 99.5024 137.944 99.456 137.667 99.456H136.584V104H135.967ZM140.41 104V98.9091H142.131C142.53 98.9091 142.856 98.9812 143.11 99.1254C143.365 99.2679 143.554 99.4609 143.677 99.7045C143.799 99.9482 143.861 100.22 143.861 100.52C143.861 100.82 143.799 101.092 143.677 101.338C143.556 101.583 143.369 101.779 143.115 101.924C142.861 102.069 142.537 102.141 142.141 102.141H140.908V101.594H142.121C142.394 101.594 142.614 101.547 142.779 101.452C142.945 101.358 143.065 101.23 143.14 101.069C143.216 100.907 143.254 100.724 143.254 100.52C143.254 100.316 143.216 100.134 143.14 99.973C143.065 99.8123 142.944 99.6863 142.777 99.5952C142.61 99.5024 142.387 99.456 142.111 99.456H141.027V104H140.41ZM144.575 99.456V98.9091H148.394V99.456H146.793V104H146.176V99.456H144.575ZM149.345 104V98.9091H151.065C151.465 98.9091 151.791 98.9812 152.045 99.1254C152.3 99.2679 152.489 99.4609 152.611 99.7045C152.734 99.9482 152.795 100.22 152.795 100.52C152.795 100.82 152.734 101.092 152.611 101.338C152.49 101.583 152.303 101.779 152.05 101.924C151.796 102.069 151.471 102.141 151.075 102.141H149.842V101.594H151.055C151.329 101.594 151.548 101.547 151.714 101.452C151.88 101.358 152 101.23 152.074 101.069C152.151 100.907 152.189 100.724 152.189 100.52C152.189 100.316 152.151 100.134 152.074 99.973C152 99.8123 151.879 99.6863 151.711 99.5952C151.544 99.5024 151.322 99.456 151.045 99.456H149.961V104H149.345ZM155.509 98.6705L153.868 104.766H153.331L154.972 98.6705H155.509ZM156.283 104V98.9091H156.9V103.453H159.266V104H156.283ZM160.131 104V103.553L161.812 101.713C162.009 101.498 162.171 101.31 162.299 101.151C162.427 100.991 162.521 100.84 162.582 100.699C162.645 100.556 162.677 100.407 162.677 100.251C162.677 100.072 162.634 99.9175 162.548 99.7866C162.463 99.6557 162.347 99.5546 162.2 99.4833C162.052 99.4121 161.886 99.3764 161.703 99.3764C161.507 99.3764 161.336 99.417 161.19 99.4982C161.046 99.5778 160.934 99.6896 160.855 99.8338C160.777 99.978 160.738 100.147 160.738 100.341H160.151C160.151 100.043 160.22 99.7808 160.358 99.5554C160.495 99.33 160.682 99.1544 160.919 99.0284C161.158 98.9025 161.426 98.8395 161.722 98.8395C162.021 98.8395 162.285 98.9025 162.515 99.0284C162.746 99.1544 162.926 99.3242 163.057 99.538C163.188 99.7518 163.254 99.9896 163.254 100.251C163.254 100.439 163.22 100.622 163.152 100.801C163.085 100.978 162.969 101.176 162.804 101.395C162.64 101.612 162.412 101.877 162.12 102.19L160.977 103.413V103.453H163.343V104H160.131ZM164.181 99.456V98.9091H167.999V99.456H166.398V104H165.782V99.456H164.181ZM168.95 104V98.9091H170.671C171.07 98.9091 171.396 98.9812 171.65 99.1254C171.905 99.2679 172.094 99.4609 172.217 99.7045C172.339 99.9482 172.401 100.22 172.401 100.52C172.401 100.82 172.339 101.092 172.217 101.338C172.096 101.583 171.909 101.779 171.655 101.924C171.401 102.069 171.077 102.141 170.681 102.141H169.448V101.594H170.661C170.934 101.594 171.154 101.547 171.319 101.452C171.485 101.358 171.605 101.23 171.68 101.069C171.756 100.907 171.794 100.724 171.794 100.52C171.794 100.316 171.756 100.134 171.68 99.973C171.605 99.8123 171.484 99.6863 171.317 99.5952C171.15 99.5024 170.927 99.456 170.651 99.456H169.567V104H168.95Z" fill="black"/>
<path d="M112.561 53.3137C112.292 53.7787 111.976 54.1321 111.613 54.3738C111.249 54.6156 110.868 54.7438 110.469 54.7585C110.07 54.7731 109.683 54.6719 109.307 54.4548C108.931 54.2377 108.65 53.9528 108.463 53.6001C108.276 53.2474 108.197 52.8532 108.224 52.4175C108.252 51.9819 108.4 51.5316 108.668 51.0666C108.937 50.6016 109.253 50.2482 109.616 50.0064C109.98 49.7647 110.361 49.6365 110.76 49.6218C111.159 49.6071 111.546 49.7083 111.922 49.9254C112.298 50.1425 112.579 50.4274 112.766 50.7802C112.953 51.1329 113.032 51.5271 113.005 51.9627C112.977 52.3984 112.829 52.8487 112.561 53.3137ZM112.044 53.0154C112.264 52.6337 112.386 52.2746 112.41 51.9382C112.436 51.6027 112.379 51.3049 112.24 51.0448C112.103 50.7856 111.901 50.579 111.634 50.4249C111.367 50.2708 111.086 50.1986 110.791 50.2084C110.498 50.219 110.212 50.3187 109.933 50.5076C109.655 50.6974 109.405 50.9831 109.185 51.3649C108.965 51.7466 108.842 52.1053 108.816 52.4408C108.793 52.7772 108.849 53.075 108.987 53.3342C109.125 53.5942 109.328 53.8013 109.595 53.9554C109.862 54.1095 110.142 54.1813 110.435 54.1707C110.73 54.1609 111.016 54.0611 111.294 53.8714C111.574 53.6825 111.824 53.3972 112.044 53.0154ZM111.401 57.2367L114.026 52.69L114.517 52.9734L114.213 53.4987L114.274 53.5335C114.344 53.4976 114.438 53.4542 114.555 53.4034C114.675 53.3519 114.818 53.3271 114.983 53.3288C115.151 53.33 115.342 53.3927 115.558 53.517C115.836 53.6777 116.041 53.889 116.173 54.1509C116.305 54.4127 116.357 54.7058 116.329 55.03C116.3 55.3542 116.186 55.69 115.985 56.0373C115.783 56.3875 115.548 56.6567 115.281 56.8448C115.014 57.0315 114.735 57.1342 114.443 57.1531C114.151 57.1705 113.868 57.0996 113.592 56.9405C113.38 56.8179 113.23 56.6846 113.143 56.5405C113.057 56.395 113.005 56.2571 112.989 56.127C112.973 55.9953 112.964 55.8886 112.961 55.8068L112.918 55.7819L111.909 57.53L111.401 57.2367ZM113.571 54.6317C113.426 54.8814 113.336 55.1228 113.299 55.356C113.263 55.5877 113.284 55.7979 113.362 55.9868C113.442 56.1742 113.583 56.3267 113.787 56.4444C113.999 56.567 114.209 56.6134 114.416 56.5835C114.625 56.553 114.82 56.463 115.002 56.3135C115.186 56.1635 115.346 55.9708 115.482 55.7354C115.617 55.5029 115.702 55.2726 115.738 55.0446C115.776 54.816 115.755 54.6058 115.674 54.4138C115.596 54.2213 115.449 54.0629 115.234 53.9386C115.027 53.8193 114.823 53.7714 114.622 53.7949C114.422 53.8171 114.232 53.9007 114.052 54.0459C113.874 54.1896 113.713 54.3848 113.571 54.6317ZM117.157 58.9988C116.839 58.8148 116.605 58.5858 116.455 58.3118C116.307 58.0371 116.244 57.7367 116.266 57.4106C116.29 57.0839 116.4 56.7512 116.595 56.4125C116.791 56.0738 117.025 55.8109 117.298 55.6238C117.572 55.4362 117.863 55.3341 118.169 55.3175C118.477 55.3004 118.781 55.378 119.079 55.5504C119.252 55.6498 119.405 55.7767 119.54 55.931C119.675 56.0854 119.774 56.2669 119.837 56.4756C119.901 56.6829 119.913 56.9157 119.873 57.1739C119.833 57.4321 119.724 57.7154 119.546 58.024L119.421 58.2393L116.873 56.7677L117.126 56.3285L119.158 57.5018C119.266 57.3152 119.325 57.1272 119.335 56.9378C119.346 56.7491 119.308 56.5731 119.221 56.4097C119.135 56.2471 119 56.1128 118.816 56.0068C118.614 55.8899 118.41 55.8391 118.204 55.8542C118 55.8687 117.813 55.9328 117.642 56.0465C117.471 56.1603 117.333 56.3083 117.228 56.4905L117.059 56.7833C116.915 57.033 116.835 57.2696 116.821 57.493C116.809 57.7157 116.855 57.9171 116.958 58.097C117.061 58.2754 117.216 58.4239 117.421 58.5424C117.554 58.6195 117.686 58.6704 117.815 58.6952C117.946 58.7195 118.073 58.7163 118.196 58.6858C118.32 58.6539 118.437 58.593 118.546 58.503L118.957 58.9242C118.809 59.0608 118.638 59.1571 118.443 59.2129C118.249 59.2674 118.042 59.278 117.822 59.2447C117.603 59.21 117.381 59.128 117.157 58.9988ZM120.996 58.4708L119.847 60.4599L119.339 60.1666L121.248 56.8599L121.739 57.1433L121.441 57.66L121.484 57.6848C121.658 57.5617 121.854 57.4947 122.071 57.484C122.288 57.4718 122.522 57.5378 122.771 57.6819C122.995 57.8112 123.165 57.9702 123.28 58.159C123.395 58.3464 123.446 58.5596 123.433 58.7986C123.42 59.0361 123.332 59.2956 123.17 59.5768L121.957 61.6779L121.449 61.3846L122.642 59.318C122.792 59.0582 122.841 58.8169 122.79 58.5941C122.74 58.3698 122.597 58.1897 122.362 58.0538C122.199 57.9602 122.034 57.9117 121.866 57.9082C121.699 57.9056 121.54 57.9507 121.389 58.0433C121.238 58.136 121.107 58.2784 120.996 58.4708ZM125.373 57.7715L124.539 62.2386L124.59 62.2684L128.042 59.3127L128.602 59.6359L124.437 63.1101L123.886 62.7919L124.813 57.4484L125.373 57.7715ZM126.743 64.4412L129.289 60.0324L130.778 60.8924C131.124 61.0921 131.371 61.3178 131.518 61.5694C131.668 61.8205 131.735 62.0821 131.72 62.3544C131.704 62.6267 131.621 62.8927 131.471 63.1525C131.321 63.4123 131.132 63.6177 130.903 63.7688C130.676 63.9207 130.416 63.9964 130.123 63.9959C129.831 63.994 129.514 63.894 129.171 63.696L128.103 63.0795L128.377 62.6059L129.427 63.2125C129.664 63.3492 129.878 63.4181 130.069 63.4191C130.259 63.4202 130.427 63.3697 130.572 63.2678C130.719 63.1653 130.844 63.0258 130.946 62.8492C131.048 62.6727 131.106 62.4958 131.12 62.3184C131.136 62.1419 131.094 61.9724 130.995 61.8098C130.896 61.6457 130.727 61.4945 130.488 61.3561L129.549 60.8142L127.277 64.7495L126.743 64.4412ZM136.633 64.2725L134.087 68.6814L133.571 68.3831L133.167 63.5344L133.124 63.5095L131.125 66.9711L130.591 66.6629L133.137 62.254L133.653 62.5523L134.061 67.4146L134.104 67.4395L136.107 63.9692L136.633 64.2725ZM139.31 65.5427L134.842 70.001L134.377 69.7325L138.845 65.2742L139.31 65.5427ZM137.316 70.5457L139.862 66.1369L141.352 66.9969C141.697 67.1966 141.944 67.4223 142.092 67.6739C142.241 67.925 142.308 68.1866 142.293 68.4589C142.277 68.7312 142.194 68.9972 142.044 69.257C141.894 69.5168 141.705 69.7222 141.476 69.8733C141.249 70.0252 140.989 70.1009 140.696 70.1004C140.405 70.0985 140.087 69.9985 139.744 69.8005L138.677 69.184L138.95 68.7104L140.001 69.3169C140.237 69.4537 140.451 69.5226 140.642 69.5236C140.833 69.5247 141.001 69.4742 141.145 69.3723C141.293 69.2698 141.417 69.1302 141.519 68.9537C141.621 68.7772 141.679 68.6003 141.694 68.4229C141.709 68.2464 141.668 68.0769 141.568 67.9143C141.47 67.7502 141.301 67.599 141.061 67.4606L140.122 66.9187L137.85 70.8539L137.316 70.5457ZM141.164 72.7674L143.71 68.3585L145.2 69.2186C145.545 69.4183 145.792 69.644 145.94 69.8956C146.089 70.1466 146.156 70.4083 146.141 70.6806C146.125 70.9529 146.042 71.2189 145.893 71.4787C145.743 71.7384 145.553 71.9439 145.324 72.0949C145.097 72.2469 144.837 72.3226 144.544 72.3221C144.253 72.3202 143.935 72.2202 143.592 72.0222L142.525 71.4057L142.798 70.9321L143.849 71.5386C144.085 71.6753 144.299 71.7442 144.49 71.7453C144.681 71.7463 144.849 71.6959 144.994 71.594C145.141 71.4915 145.265 71.3519 145.367 71.1754C145.469 70.9989 145.527 70.8219 145.542 70.6446C145.557 70.4681 145.516 70.2986 145.416 70.1359C145.318 69.9719 145.149 69.8207 144.909 69.6823L143.97 69.1404L141.698 73.0756L141.164 72.7674ZM147.043 70.9146L147.317 70.441L150.623 72.3501L150.35 72.8237L148.964 72.0233L146.692 75.9585L146.158 75.6503L148.43 71.715L147.043 70.9146ZM148.902 77.2347L151.447 72.8258L152.937 73.6859C153.283 73.8856 153.53 74.1113 153.677 74.3629C153.827 74.6139 153.894 74.8756 153.878 75.1479C153.863 75.4202 153.78 75.6862 153.63 75.9459C153.48 76.2057 153.291 76.4111 153.062 76.5622C152.834 76.7142 152.575 76.7899 152.282 76.7894C151.99 76.7875 151.673 76.6875 151.33 76.4895L150.262 75.873L150.536 75.3994L151.586 76.0059C151.823 76.1426 152.037 76.2115 152.228 76.2126C152.418 76.2136 152.586 76.1632 152.731 76.0613C152.878 75.9587 153.003 75.8192 153.105 75.6427C153.207 75.4662 153.265 75.2892 153.279 75.1119C153.295 74.9354 153.253 74.7658 153.154 74.6032C153.055 74.4392 152.886 74.2879 152.646 74.1496L151.708 73.6077L149.436 77.5429L148.902 77.2347ZM156.905 75.7009L152.436 80.1592L151.971 79.8907L156.44 75.4325L156.905 75.7009ZM154.911 80.7039L157.456 76.2951L157.99 76.6033L155.718 80.5385L157.768 81.7218L157.494 82.1954L154.911 80.7039ZM158.243 82.6279L158.467 82.2404L160.842 81.4876C161.121 81.3996 161.355 81.3186 161.545 81.2447C161.736 81.1693 161.893 81.0859 162.017 80.9945C162.142 80.9026 162.244 80.7892 162.322 80.6543C162.412 80.4993 162.452 80.3435 162.443 80.1871C162.435 80.0314 162.385 79.8859 162.293 79.7504C162.201 79.615 162.075 79.5013 161.916 79.4093C161.746 79.3115 161.578 79.2613 161.411 79.2587C161.247 79.2555 161.094 79.2965 160.953 79.3816C160.813 79.4675 160.695 79.5944 160.598 79.7623L160.09 79.469C160.239 79.2107 160.43 79.0183 160.662 78.8919C160.893 78.7655 161.143 78.707 161.412 78.7164C161.681 78.7266 161.944 78.8059 162.201 78.9542C162.46 79.1034 162.657 79.2901 162.794 79.5143C162.93 79.7386 163.002 79.976 163.008 80.2266C163.015 80.4772 162.952 80.7159 162.822 80.9426C162.728 81.1048 162.607 81.2464 162.459 81.3674C162.313 81.4879 162.113 81.6014 161.86 81.7079C161.61 81.8139 161.28 81.9296 160.87 82.055L159.269 82.5425L159.249 82.5769L161.298 83.7601L161.025 84.2337L158.243 82.6279ZM164.022 80.7173L164.296 80.2437L167.602 82.1528L167.329 82.6264L165.942 81.826L163.67 85.7613L163.137 85.453L165.409 81.5178L164.022 80.7173ZM165.881 87.0374L168.426 82.6286L169.916 83.4886C170.262 83.6883 170.509 83.914 170.656 84.1656C170.806 84.4167 170.873 84.6783 170.857 84.9506C170.842 85.2229 170.759 85.4889 170.609 85.7487C170.459 86.0085 170.27 86.2139 170.041 86.365C169.813 86.5169 169.553 86.5926 169.261 86.5921C168.969 86.5902 168.652 86.4902 168.309 86.2922L167.241 85.6757L167.514 85.2021L168.565 85.8086C168.802 85.9454 169.016 86.0143 169.206 86.0153C169.397 86.0164 169.565 85.9659 169.71 85.864C169.857 85.7615 169.982 85.6219 170.084 85.4454C170.186 85.2689 170.244 85.092 170.258 84.9146C170.274 84.7381 170.232 84.5686 170.133 84.406C170.034 84.2419 169.865 84.0907 169.625 83.9523L168.687 83.4104L166.415 87.3456L165.881 87.0374Z" fill="black"/>
<path fill-rule="evenodd" clip-rule="evenodd" d="M248.667 101.5C248.667 100.856 249.189 100.333 249.833 100.333H266.167C266.811 100.333 267.333 100.856 267.333 101.5V106.75H248.667V101.5ZM251 102.375H255.667V104.708H251V102.375Z" fill="#86DBA2"/>
<path fill-rule="evenodd" clip-rule="evenodd" d="M248.667 108.5H267.333V115.5H248.667V108.5ZM251 110.833H255.667V113.167H251V110.833Z" fill="#86DBA2"/>
<path fill-rule="evenodd" clip-rule="evenodd" d="M248.667 117.25H267.333V122.5C267.333 123.144 266.811 123.667 266.167 123.667H249.833C249.189 123.667 248.667 123.144 248.667 122.5V117.25ZM251 119.292H255.667V121.625H251V119.292Z" fill="#86DBA2"/>
<path d="M251 102.375H255.667V104.708H251V102.375Z" fill="#273849"/>
<path d="M251 110.833H255.667V113.167H251V110.833Z" fill="#273849"/>
<path d="M255.667 119.292H251V121.625H255.667V119.292Z" fill="#273849"/>
<path fill-rule="evenodd" clip-rule="evenodd" d="M305.667 102.5C305.667 101.856 306.189 101.333 306.833 101.333H323.167C323.811 101.333 324.333 101.856 324.333 102.5V107.75H305.667V102.5ZM308 103.375H312.667V105.708H308V103.375Z" fill="#86DBA2"/>
<path fill-rule="evenodd" clip-rule="evenodd" d="M305.667 109.5H324.333V116.5H305.667V109.5ZM308 111.833H312.667V114.167H308V111.833Z" fill="#86DBA2"/>
<path fill-rule="evenodd" clip-rule="evenodd" d="M305.667 118.25H324.333V123.5C324.333 124.144 323.811 124.667 323.167 124.667H306.833C306.189 124.667 305.667 124.144 305.667 123.5V118.25ZM308 120.292H312.667V122.625H308V120.292Z" fill="#86DBA2"/>
<path d="M308 103.375H312.667V105.708H308V103.375Z" fill="#273849"/>
<path d="M308 111.833H312.667V114.167H308V111.833Z" fill="#273849"/>
<path d="M312.667 120.292H308V122.625H312.667V120.292Z" fill="#273849"/>
<rect x="232.5" y="81.5" width="49" height="50" rx="1.5" stroke="#00AA72" stroke-dasharray="3 3"/>
<rect x="292.5" y="81.5" width="45" height="49" rx="1.5" stroke="#00AA72" stroke-dasharray="3 3"/>
<rect x="208.5" y="56.5" width="155" height="106" rx="1.5" stroke="#00AA72" stroke-dasharray="3 3"/>
<path fill-rule="evenodd" clip-rule="evenodd" d="M341.667 51.25C340.884 51.25 340.25 51.8843 340.25 52.6667V70.375H343.083C345.039 70.375 346.625 71.9607 346.625 73.9167V76.75H364.333C365.116 76.75 365.75 76.1157 365.75 75.3333V52.6667C365.75 51.8843 365.116 51.25 364.333 51.25H341.667ZM348.783 62.9375H345.28C345.709 59.79 348.018 57.2405 351.039 56.4574C349.828 57.7193 348.959 60.1133 348.783 62.9375ZM351.895 58.9399C351.406 59.9187 351.029 61.3071 350.913 62.9375H355.087C354.971 61.3071 354.594 59.9187 354.105 58.9399C353.809 58.3479 353.511 57.9842 353.282 57.7903C353.172 57.6976 353.094 57.6565 353.052 57.6394C353.031 57.6309 353.018 57.6276 353.012 57.6264C353.006 57.6251 353.002 57.625 353 57.625C352.999 57.625 352.997 57.6251 352.994 57.6254L352.988 57.6264C352.982 57.6276 352.969 57.6309 352.948 57.6394C352.906 57.6565 352.828 57.6976 352.718 57.7903C352.489 57.9842 352.191 58.3479 351.895 58.9399ZM351.039 71.5429C348.018 70.7598 345.709 68.2102 345.28 65.0625H348.783C348.959 67.8869 349.828 70.2809 351.039 71.5429ZM354.105 69.0601C354.594 68.0813 354.971 66.6929 355.087 65.0625H350.913C351.029 66.6929 351.406 68.0813 351.895 69.0601C352.191 69.6521 352.489 70.0158 352.718 70.2096C352.828 70.3024 352.906 70.3435 352.948 70.3606C352.969 70.3691 352.982 70.3724 352.988 70.3736C352.992 70.3744 352.995 70.3748 352.997 70.3749L353 70.375C353.002 70.375 353.006 70.3749 353.012 70.3736C353.018 70.3724 353.031 70.3691 353.052 70.3606C353.094 70.3435 353.172 70.3024 353.282 70.2096C353.511 70.0158 353.809 69.6521 354.105 69.0601ZM354.961 71.5428C356.172 70.2809 357.041 67.8869 357.217 65.0625H360.72C360.291 68.2101 357.982 70.7597 354.961 71.5428ZM360.72 62.9375C360.291 59.79 357.982 57.2406 354.961 56.4574C356.172 57.7194 357.041 60.1133 357.217 62.9375H360.72Z" fill="#00AA72"/>
<path d="M343.083 72.5C343.866 72.5 344.5 73.1343 344.5 73.9167V76.75H341.667C340.884 76.75 340.25 76.1157 340.25 75.3333V72.5H343.083Z" fill="#00AA72"/>
<g clip-path="url(#clip0_501_257)">
<path d="M81.4325 37.7579L78.464 40.7264L80.497 42.7593L83.4654 39.7908C85.5146 37.7417 85.5146 34.4193 83.4654 32.3702C81.4163 30.321 78.0939 30.321 76.0448 32.3702L73.0763 35.3386L75.1092 37.3716L78.0777 34.4031C79.0041 33.4767 80.5061 33.4767 81.4325 34.4031C82.3589 35.3295 82.3589 36.8315 81.4325 37.7579Z" fill="#86DBA2"/>
<path d="M67.14 41.275L70.108 38.3069L72.141 40.3398L69.1729 43.3079C68.2465 44.2343 68.2465 45.7363 69.1729 46.6627C70.0993 47.5891 71.6013 47.5891 72.5277 46.6627L75.4958 43.6946L77.5287 45.7276L74.5606 48.6956C72.5115 50.7448 69.1891 50.7448 67.14 48.6956C65.0908 46.6465 65.0908 43.3241 67.14 41.275Z" fill="#86DBA2"/>
<path d="M72.7056 40.9044L75.6739 37.9361L77.9001 40.1623L74.9318 43.1306L72.7056 40.9044Z" fill="#86DBA2"/>
<path d="M44.75 33.7083H70.6408L65.107 39.242C61.9351 42.414 61.9351 47.5566 65.107 50.7286C68.279 53.9005 73.4217 53.9005 76.5936 50.7286L81.1667 46.1554V58.625C81.1667 59.6835 80.3085 60.5417 79.25 60.5417L64.875 60.5417V64.3578C65.1488 64.4768 67.0017 65.2408 69.6335 65.3295C70.1751 65.3477 70.6251 65.7788 70.6251 66.3208V68.204H64.875V68.2083H59.125V68.204H53.375V66.3208C53.375 65.7788 53.825 65.3477 54.3666 65.3295C56.9982 65.2408 58.851 64.4769 59.125 64.3578V60.5417L44.75 60.5417C43.6915 60.5417 42.8333 59.6835 42.8333 58.625V35.625C42.8333 34.5665 43.6915 33.7083 44.75 33.7083Z" fill="#86DBA2"/>
</g>
<path d="M46.875 42.4244L51.4856 41.7894V46.2438H46.875V42.4244ZM46.875 50.5756L51.4856 51.2113V46.8113H46.875V50.5756ZM51.9925 51.2787L58.125 52.125V46.8113H51.9925V51.2787ZM51.9925 41.7213V46.2438H58.125V40.875L51.9925 41.7213Z" fill="#324558"/>
<g clip-path="url(#clip1_501_257)">
<path d="M81.4325 95.7579L78.464 98.7264L80.497 100.759L83.4654 97.7909C85.5146 95.7417 85.5146 92.4194 83.4654 90.3702C81.4163 88.3211 78.0939 88.3211 76.0448 90.3702L73.0763 93.3387L75.1092 95.3716L78.0777 92.4031C79.0041 91.4767 80.5061 91.4767 81.4325 92.4031C82.3589 93.3295 82.3589 94.8315 81.4325 95.7579Z" fill="#86DBA2"/>
<path d="M67.14 99.275L70.108 96.3069L72.141 98.3399L69.1729 101.308C68.2465 102.234 68.2465 103.736 69.1729 104.663C70.0993 105.589 71.6013 105.589 72.5277 104.663L75.4958 101.695L77.5287 103.728L74.5606 106.696C72.5115 108.745 69.1891 108.745 67.14 106.696C65.0908 104.646 65.0908 101.324 67.14 99.275Z" fill="#86DBA2"/>
<path d="M72.7056 98.9044L75.6739 95.9361L77.9001 98.1623L74.9318 101.131L72.7056 98.9044Z" fill="#86DBA2"/>
<path d="M44.75 91.7083H70.6408L65.107 97.2421C61.9351 100.414 61.9351 105.557 65.107 108.729C68.279 111.9 73.4217 111.9 76.5936 108.729L81.1667 104.155V116.625C81.1667 117.684 80.3085 118.542 79.25 118.542L64.875 118.542V122.358C65.1488 122.477 67.0017 123.241 69.6335 123.33C70.1751 123.348 70.6251 123.779 70.6251 124.321V126.204H64.875V126.208H59.125V126.204H53.375V124.321C53.375 123.779 53.825 123.348 54.3666 123.33C56.9982 123.241 58.851 122.477 59.125 122.358V118.542L44.75 118.542C43.6915 118.542 42.8333 117.684 42.8333 116.625V93.625C42.8333 92.5665 43.6915 91.7083 44.75 91.7083Z" fill="#86DBA2"/>
</g>
<g clip-path="url(#clip2_501_257)">
<path d="M81.4325 153.758L78.464 156.726L80.497 158.759L83.4654 155.791C85.5146 153.742 85.5146 150.419 83.4654 148.37C81.4163 146.321 78.0939 146.321 76.0448 148.37L73.0763 151.339L75.1092 153.372L78.0777 150.403C79.0041 149.477 80.5061 149.477 81.4325 150.403C82.3589 151.33 82.3589 152.832 81.4325 153.758Z" fill="#86DBA2"/>
<path d="M67.14 157.275L70.108 154.307L72.141 156.34L69.1729 159.308C68.2465 160.234 68.2465 161.736 69.1729 162.663C70.0993 163.589 71.6013 163.589 72.5277 162.663L75.4958 159.695L77.5287 161.728L74.5606 164.696C72.5115 166.745 69.1891 166.745 67.14 164.696C65.0908 162.646 65.0908 159.324 67.14 157.275Z" fill="#86DBA2"/>
<path d="M72.7056 156.904L75.6739 153.936L77.9001 156.162L74.9318 159.131L72.7056 156.904Z" fill="#86DBA2"/>
<path d="M44.75 149.708H70.6408L65.107 155.242C61.9351 158.414 61.9351 163.557 65.107 166.729C68.279 169.9 73.4217 169.9 76.5936 166.729L81.1667 162.155V174.625C81.1667 175.684 80.3085 176.542 79.25 176.542L64.875 176.542V180.358C65.1488 180.477 67.0017 181.241 69.6335 181.33C70.1751 181.348 70.6251 181.779 70.6251 182.321V184.204H64.875V184.208H59.125V184.204H53.375V182.321C53.375 181.779 53.825 181.348 54.3666 181.33C56.9982 181.241 58.851 180.477 59.125 180.358V176.542L44.75 176.542C43.6915 176.542 42.8333 175.684 42.8333 174.625V151.625C42.8333 150.566 43.6915 149.708 44.75 149.708Z" fill="#86DBA2"/>
</g>
<path d="M51.9064 100.198C51.9348 100.213 51.9575 100.247 51.9915 100.247C52.0227 100.247 52.071 100.236 52.0738 100.204C52.0795 100.164 52.0199 100.138 51.983 100.121C51.9348 100.101 51.8723 100.092 51.8269 100.118C51.8156 100.124 51.8042 100.138 51.8099 100.15C51.8184 100.187 51.8752 100.181 51.9064 100.198ZM51.2849 100.247C51.319 100.247 51.3417 100.213 51.37 100.198C51.4012 100.181 51.458 100.187 51.4694 100.153C51.475 100.141 51.4637 100.127 51.4523 100.121C51.4069 100.095 51.3445 100.104 51.2962 100.124C51.2594 100.141 51.1998 100.167 51.2054 100.207C51.2083 100.236 51.2565 100.25 51.2849 100.247ZM57.5595 108.233C57.4573 108.118 57.4091 107.901 57.3551 107.669C57.3041 107.437 57.2445 107.187 57.0572 107.027C57.0203 106.995 56.9834 106.967 56.9437 106.944C56.9068 106.921 56.867 106.901 56.8273 106.887C57.0884 106.105 56.9862 105.326 56.7223 104.621C56.3988 103.759 55.834 103.005 55.4027 102.49C54.9174 101.874 54.4463 101.29 54.4548 100.428C54.469 99.1128 54.5996 96.6695 52.3037 96.6667C49.3977 96.6609 50.1242 99.6284 50.093 100.539C50.0447 101.21 49.9114 101.737 49.4545 102.392C48.9181 103.037 48.1632 104.077 47.8056 105.162C47.6354 105.675 47.5559 106.196 47.6297 106.689C47.4452 106.855 47.3062 107.11 47.1586 107.268C47.0394 107.391 46.8663 107.437 46.6762 107.505C46.486 107.574 46.2789 107.677 46.1512 107.921C46.0916 108.032 46.0717 108.153 46.0717 108.276C46.0717 108.388 46.0887 108.502 46.1057 108.614C46.1398 108.846 46.1767 109.064 46.1284 109.21C45.9809 109.622 45.961 109.909 46.066 110.118C46.1739 110.327 46.3895 110.418 46.6364 110.47C47.1274 110.573 47.7943 110.547 48.3193 110.828C48.8812 111.126 49.4516 111.232 49.9057 111.126C50.2349 111.051 50.5045 110.851 50.6407 110.547C50.9954 110.544 51.3871 110.393 52.0114 110.358C52.4342 110.324 52.9649 110.51 53.5751 110.476C53.5921 110.542 53.6148 110.607 53.646 110.668V110.67C53.8816 111.149 54.3214 111.366 54.7897 111.329C55.2608 111.292 55.7574 111.014 56.1604 110.53C56.5463 110.06 57.182 109.866 57.6049 109.608C57.8149 109.479 57.9852 109.318 57.9993 109.084C58.0107 108.849 57.8745 108.588 57.5595 108.233ZM51.9887 99.1672C52.2668 98.5314 52.9593 98.5428 53.2374 99.1558C53.4218 99.5625 53.3395 100.041 53.1153 100.313C53.0699 100.29 52.9479 100.239 52.7578 100.173C52.789 100.138 52.8457 100.095 52.8684 100.041C53.0047 99.7029 52.8628 99.2675 52.6102 99.2589C52.403 99.2446 52.2157 99.5682 52.2753 99.9177C52.159 99.8604 52.0086 99.8174 51.9064 99.7917C51.878 99.594 51.8979 99.3735 51.9887 99.1672ZM50.8337 98.8378C51.1203 98.8378 51.424 99.2446 51.3757 99.7974C51.2764 99.826 51.1742 99.869 51.0862 99.9292C51.1203 99.6742 50.9926 99.3534 50.8138 99.3677C50.5754 99.3878 50.5357 99.975 50.7627 100.173C50.7911 100.196 50.8166 100.167 50.5953 100.33C50.1526 99.912 50.2973 98.8378 50.8337 98.8378ZM50.4477 100.576C50.6237 100.445 50.8337 100.29 50.8479 100.276C50.9812 100.15 51.231 99.869 51.6396 99.869C51.8411 99.869 52.0823 99.9349 52.3746 100.124C52.5534 100.241 52.6953 100.25 53.016 100.39C53.2544 100.491 53.4048 100.668 53.314 100.912C53.2402 101.115 53.0018 101.324 52.6698 101.43C52.3548 101.533 52.1079 101.888 51.5857 101.857C51.475 101.851 51.3871 101.828 51.3133 101.797C51.0862 101.696 50.9671 101.499 50.7457 101.367C50.5016 101.23 50.3711 101.069 50.3285 100.929C50.2888 100.788 50.3285 100.671 50.4477 100.576ZM50.5414 110.143C50.4647 111.149 49.2955 111.129 48.4044 110.659C47.5559 110.206 46.4576 110.473 46.2334 110.032C46.1653 109.897 46.1653 109.668 46.3072 109.276V109.27C46.3753 109.052 46.3243 108.811 46.2902 108.585C46.2562 108.362 46.2391 108.156 46.3157 108.012C46.4151 107.82 46.557 107.752 46.7358 107.689C47.0281 107.583 47.0706 107.591 47.292 107.405C47.4481 107.242 47.5616 107.036 47.6978 106.89C47.8425 106.732 47.9816 106.657 48.2001 106.692C48.43 106.726 48.6286 106.887 48.8216 107.15L49.3778 108.17C49.6474 108.74 50.601 109.556 50.5414 110.143ZM50.5016 109.402C50.3853 109.212 50.2292 109.012 50.093 108.84C50.2945 108.84 50.496 108.777 50.5669 108.585C50.6322 108.408 50.5669 108.158 50.3569 107.872C49.9738 107.351 49.27 106.941 49.27 106.941C48.8869 106.7 48.6712 106.405 48.5719 106.085C48.4725 105.764 48.4867 105.417 48.5634 105.076C48.7109 104.42 49.0912 103.782 49.3353 103.381C49.4005 103.332 49.358 103.472 49.0884 103.976C48.8471 104.438 48.3959 105.503 49.0146 106.337C49.0316 105.744 49.1707 105.139 49.4062 104.575C49.7468 103.79 50.4647 102.43 50.5215 101.347C50.5527 101.37 50.652 101.439 50.6975 101.464C50.828 101.542 50.9273 101.656 51.055 101.759C51.4069 102.046 51.8638 102.023 52.2583 101.794C52.4342 101.694 52.5761 101.579 52.7095 101.536C52.9905 101.447 53.2147 101.29 53.3424 101.106C53.5609 101.977 54.0717 103.235 54.3981 103.848C54.5712 104.174 54.9174 104.864 55.0678 105.698C55.1615 105.695 55.2665 105.709 55.3771 105.738C55.7688 104.715 55.0451 103.613 54.7159 103.306C54.5825 103.174 54.5768 103.117 54.6421 103.12C54.9997 103.441 55.4708 104.085 55.6411 104.81C55.7205 105.142 55.7347 105.489 55.6524 105.833C56.1178 106.027 56.6712 106.345 56.5236 106.829C56.4612 106.826 56.4328 106.829 56.4045 106.829C56.4953 106.54 56.2938 106.325 55.7574 106.082C55.2012 105.835 54.7358 105.835 54.6705 106.44C54.3271 106.56 54.1512 106.861 54.0632 107.222C53.9837 107.543 53.961 107.929 53.9383 108.365C53.9241 108.585 53.8362 108.88 53.7453 109.195C52.8344 109.851 51.5687 110.138 50.5016 109.402ZM57.8064 109.072C57.7808 109.553 56.6372 109.642 56.0128 110.404C55.6382 110.854 55.1785 111.103 54.7755 111.134C54.3725 111.166 54.0235 110.997 53.8191 110.582C53.6858 110.264 53.751 109.92 53.8503 109.542C53.9554 109.135 54.1114 108.717 54.1313 108.379C54.154 107.944 54.1795 107.563 54.2505 107.27C54.3243 106.975 54.4378 106.778 54.6393 106.666C54.6478 106.66 54.6591 106.657 54.6677 106.652C54.6904 107.03 54.8748 107.414 55.2012 107.497C55.5588 107.591 56.0724 107.282 56.2909 107.03C56.5463 107.021 56.7365 107.004 56.9323 107.176C57.2133 107.419 57.1338 108.044 57.4176 108.368C57.7184 108.7 57.8149 108.926 57.8064 109.072ZM50.5584 100.926C50.6152 100.98 50.6918 101.055 50.7854 101.129C50.9727 101.278 51.2338 101.433 51.5602 101.433C51.8894 101.433 52.1987 101.264 52.4626 101.124C52.6017 101.049 52.7719 100.923 52.8826 100.826C52.9933 100.728 53.0501 100.645 52.9706 100.637C52.8911 100.628 52.8968 100.711 52.8003 100.783C52.6755 100.874 52.5251 100.995 52.4059 101.063C52.1959 101.184 51.8525 101.356 51.5573 101.356C51.2622 101.356 51.0266 101.218 50.8507 101.078C50.7627 101.006 50.6889 100.935 50.6322 100.88C50.5896 100.84 50.5783 100.748 50.5102 100.74C50.4704 100.737 50.4591 100.846 50.5584 100.926Z" fill="#324558"/>
<path d="M52.5827 158.709C52.0675 158.709 51.27 158.119 50.4301 158.14C49.3221 158.155 48.3058 158.787 47.7341 159.788C46.5837 161.798 47.4377 164.767 48.5599 166.4C49.1104 167.195 49.7597 168.09 50.6207 168.062C51.4465 168.026 51.757 167.522 52.7592 167.522C53.7543 167.522 54.0366 168.062 54.9118 168.041C55.8011 168.026 56.3657 167.231 56.9091 166.428C57.5372 165.505 57.7984 164.61 57.8125 164.561C57.7913 164.553 56.0834 163.893 56.0622 161.904C56.0481 160.243 57.4102 159.447 57.4737 159.412C56.6974 158.268 55.5046 158.14 55.0882 158.112C54.0013 158.027 53.0909 158.709 52.5827 158.709ZM54.4177 157.033C54.8765 156.479 55.18 155.705 55.0953 154.938C54.4389 154.966 53.6485 155.378 53.1756 155.932C52.7521 156.422 52.3851 157.21 52.4839 157.963C53.2109 158.02 53.959 157.587 54.4177 157.033Z" fill="#324558"/>
<line x1="85.2368" y1="46.5596" x2="191.237" y2="103.56" stroke="#00AA72" stroke-dasharray="2 2"/>
<line x1="84.7798" y1="162.551" x2="190.78" y2="110.551" stroke="#00AA72" stroke-dasharray="2 2"/>
<line x1="85.0048" y1="106.5" x2="191.005" y2="107.51" stroke="#00AA72" stroke-dasharray="2 2"/>
<path d="M206.725 93.5118C207.302 92.9504 207.73 92.8333 208 92.8333C208.27 92.8333 208.698 92.9504 209.275 93.5118C209.862 94.0829 210.488 95.0126 211.06 96.3274C211.428 97.1749 211.757 98.1425 212.033 99.2083H203.967C204.243 98.1425 204.572 97.1749 204.94 96.3274C205.512 95.0126 206.138 94.0829 206.725 93.5118Z" fill="#00AA72"/>
<path d="M214.222 99.2083H219.833C217.989 96.4132 215.181 94.3101 211.883 93.3721C212.856 94.8419 213.662 96.8483 214.222 99.2083Z" fill="#00AA72"/>
<path d="M214.044 115.5H219.334C217.501 117.941 214.896 119.771 211.883 120.628C212.757 119.307 213.497 117.554 214.044 115.5Z" fill="#00AA72"/>
<path d="M204.117 93.3721C200.819 94.3101 198.011 96.4132 196.167 99.2083H201.778C202.338 96.8483 203.144 94.8419 204.117 93.3721Z" fill="#00AA72"/>
<path d="M204.117 120.628C201.103 119.771 198.499 117.941 196.666 115.5H201.956C202.503 117.554 203.243 119.307 204.117 120.628Z" fill="#00AA72"/>
<path d="M208 121.167C208.27 121.167 208.698 121.05 209.275 120.488C209.862 119.917 210.488 118.987 211.06 117.673C211.345 117.017 211.606 116.289 211.838 115.5H204.162C204.394 116.289 204.655 117.017 204.94 117.673C205.512 118.987 206.138 119.917 206.725 120.488C207.302 121.05 207.73 121.167 208 121.167Z" fill="#00AA72"/>
<path d="M206.633 104.838V107.162H207.906C208.179 107.162 208.4 107.116 208.57 107.023C208.74 106.931 208.863 106.804 208.941 106.642C209.022 106.476 209.062 106.289 209.062 106.083C209.062 105.861 209.022 105.657 208.941 105.468C208.863 105.28 208.74 105.129 208.57 105.015C208.4 104.897 208.179 104.838 207.906 104.838H206.633Z" fill="#00AA72"/>
<path fill-rule="evenodd" clip-rule="evenodd" d="M193.833 102.75C193.833 101.968 194.468 101.333 195.25 101.333H220.75C221.532 101.333 222.167 101.968 222.167 102.75V111.958C222.167 112.741 221.532 113.375 220.75 113.375H195.25C194.468 113.375 193.833 112.741 193.833 111.958V102.75ZM198.809 111.395H200.928L203.645 103.338H201.47L199.871 109.213L198.272 103.338H196.108L198.809 111.395ZM207.906 108.661H206.633V111.395H204.691V103.338H207.906C208.551 103.338 209.107 103.456 209.572 103.692C210.04 103.928 210.4 104.253 210.651 104.666C210.901 105.076 211.027 105.544 211.027 106.072C211.027 106.592 210.901 107.046 210.651 107.433C210.4 107.82 210.04 108.123 209.572 108.341C209.107 108.555 208.551 108.661 207.906 108.661ZM219.255 111.395V103.338H217.318V108.352L214.469 103.338H212.526V111.395H214.469V106.382L217.318 111.395H219.255Z" fill="#00AA72"/>
<path d="M275.312 135.888V136.504H280.728V135.888H275.312ZM274.448 138.296V138.904H281.56V138.296H274.448ZM276.976 138.656C276.688 139.6 276.144 140.912 275.704 141.72L276.264 141.912C276.728 141.128 277.288 139.864 277.696 138.848L276.976 138.656ZM274.52 141.6L274.576 142.24C276.152 142.184 278.576 142.072 280.824 141.96L280.856 141.392C278.552 141.48 276.064 141.568 274.52 141.6ZM279.032 139.928C279.784 140.752 280.608 141.904 280.96 142.656L281.552 142.32C281.184 141.576 280.376 140.464 279.6 139.656L279.032 139.928ZM283.104 135.576V136.136H284.96V135.576H283.104ZM283.104 137.448V138.008H284.976V137.448H283.104ZM286.224 138.32V138.88H289.128V138.32H286.224ZM283.088 139.368V139.936H284.96V139.368H283.088ZM282.856 135.576V138.456C282.856 139.632 282.816 141.24 282.264 142.368C282.408 142.424 282.648 142.56 282.76 142.656C283.328 141.472 283.408 139.704 283.408 138.456V135.576H282.856ZM284.624 135.576V141.92C284.624 142.032 284.584 142.064 284.472 142.072C284.376 142.08 284.04 142.08 283.664 142.072C283.744 142.224 283.816 142.496 283.84 142.64C284.384 142.648 284.704 142.632 284.912 142.536C285.112 142.432 285.184 142.248 285.184 141.928V135.576H284.624ZM288.712 135.6V137.144C288.712 137.24 288.68 137.272 288.552 137.272C288.424 137.28 288 137.28 287.52 137.272C287.592 137.416 287.68 137.616 287.712 137.784C288.32 137.784 288.72 137.784 288.968 137.696C289.224 137.608 289.288 137.448 289.288 137.152V135.6H288.712ZM288.968 138.32V138.432C288.624 140.184 287.632 141.552 286.496 142.152C286.616 142.256 286.776 142.464 286.848 142.6C288.096 141.856 289.12 140.472 289.52 138.424L289.168 138.304L289.072 138.32H288.968ZM287.12 138.664L286.64 138.792C287.144 140.496 288.072 141.944 289.368 142.648C289.456 142.512 289.624 142.304 289.76 142.192C288.504 141.584 287.576 140.216 287.12 138.664ZM285.888 135.6V142.64H286.456V136.16H288.872V135.6H285.888ZM291.008 139.752V140.28H296.56V139.752H291.008ZM296.36 139.752L296.352 139.832C296.208 141.192 296.032 141.8 295.824 141.976C295.736 142.04 295.64 142.048 295.472 142.048C295.272 142.048 294.752 142.04 294.248 141.992C294.352 142.144 294.432 142.368 294.44 142.528C294.92 142.56 295.4 142.56 295.64 142.552C295.936 142.536 296.12 142.496 296.288 142.336C296.568 142.088 296.744 141.472 296.928 140.016C296.944 139.928 296.96 139.752 296.96 139.752H296.36ZM293.56 138.952C293.336 140.888 292.384 141.752 290.448 142.12C290.56 142.24 290.72 142.496 290.784 142.632C292.808 142.136 293.864 141.176 294.184 139.008L293.56 138.952ZM292.568 136.104V136.624H296.448V136.104H292.568ZM296.304 136.104V136.184C295.336 137.64 292.736 138.392 290.36 138.616C290.456 138.752 290.56 138.992 290.6 139.144C293.072 138.856 295.736 138.056 296.896 136.328L296.528 136.08L296.424 136.104H296.304ZM292.56 136.712L292.064 136.92C293.072 138.24 295.008 138.856 297.344 139.048C297.416 138.88 297.56 138.648 297.68 138.512C295.368 138.376 293.432 137.84 292.56 136.712ZM293.056 135.272C292.64 135.976 291.848 136.792 290.72 137.376C290.84 137.464 291.016 137.68 291.096 137.824C292.312 137.144 293.144 136.264 293.68 135.392L293.056 135.272ZM299.512 136.12H300.992V137.36H299.512V136.12ZM298.96 135.632V137.848H301.568V135.632H298.96ZM303 136.12H304.488V137.36H303V136.12ZM302.448 135.632V137.848H305.064V135.632H302.448ZM298.416 138.456V138.992H305.592V138.456H298.416ZM299.36 141.848V142.36H301.304V141.848H299.36ZM302.648 141.848V142.36H304.608V141.848H302.648ZM303.008 138.6L302.464 138.816C303.104 139.68 304.264 140.376 305.44 140.712C305.528 140.56 305.688 140.344 305.824 140.224C304.688 139.96 303.552 139.336 303.008 138.6ZM299.08 140.048V142.664H299.616V140.56H301.064V142.632H301.616V140.048H299.08ZM302.368 140.048V142.664H302.904V140.56H304.36V142.632H304.92V140.048H302.368ZM301.608 137.624C301.072 138.856 299.816 139.72 298.208 140.264C298.328 140.368 298.512 140.592 298.584 140.72C300.256 140.128 301.552 139.192 302.192 137.816L301.608 137.624Z" fill="black"/>
<defs>
<clipPath id="clip0_501_257">
<rect width="46" height="46" fill="white" transform="translate(39 27)"/>
</clipPath>
<clipPath id="clip1_501_257">
<rect width="46" height="46" fill="white" transform="translate(39 85)"/>
</clipPath>
<clipPath id="clip2_501_257">
<rect width="46" height="46" fill="white" transform="translate(39 143)"/>
</clipPath>
</defs>
</svg>
